<svg width="24" height="24" viewBox="0 0 24 24" fill="none" xmlns="http://www.w3.org/2000/svg">
<path d="M7.4199 15.54C7.23365 15.7274 7.12911 15.9808 7.12911 16.245C7.12911 16.5092 7.23365 16.7626 7.4199 16.95C7.51286 17.0437 7.62346 17.1181 7.74532 17.1689C7.86718 17.2197 7.99789 17.2458 8.1299 17.2458C8.26191 17.2458 8.39262 17.2197 8.51448 17.1689C8.63633 17.1181 8.74694 17.0437 8.8399 16.95C9.02615 16.7626 9.13069 16.5092 9.13069 16.245C9.13069 15.9808 9.02615 15.7274 8.8399 15.54C8.74694 15.4463 8.63633 15.3719 8.51448 15.3211C8.39262 15.2703 8.26191 15.2442 8.1299 15.2442C7.99789 15.2442 7.86718 15.2703 7.74532 15.3211C7.62346 15.3719 7.51286 15.4463 7.4199 15.54ZM7.4199 7.05C7.23365 7.23736 7.12911 7.49082 7.12911 7.755C7.12911 8.01919 7.23365 8.27264 7.4199 8.46C7.51286 8.55373 7.62346 8.62812 7.74532 8.67889C7.86718 8.72966 7.99789 8.7558 8.1299 8.7558C8.26191 8.7558 8.39262 8.72966 8.51448 8.67889C8.63633 8.62812 8.74694 8.55373 8.8399 8.46C9.02615 8.27264 9.13069 8.01919 9.13069 7.755C9.13069 7.49082 9.02615 7.23736 8.8399 7.05C8.74694 6.95627 8.63633 6.88188 8.51448 6.83111C8.39262 6.78034 8.26191 6.7542 8.1299 6.7542C7.99789 6.7542 7.86718 6.78034 7.74532 6.83111C7.62346 6.88188 7.51286 6.95627 7.4199 7.05ZM12.3699 17.05C12.1721 17.05 11.9788 17.1087 11.8143 17.2185C11.6499 17.3284 11.5217 17.4846 11.446 17.6673C11.3703 17.85 11.3505 18.0511 11.3891 18.2451C11.4277 18.4391 11.5229 18.6173 11.6628 18.7571C11.8026 18.897 11.9808 18.9922 12.1748 19.0308C12.3688 19.0694 12.5699 19.0496 12.7526 18.9739C12.9353 18.8982 13.0915 18.77 13.2014 18.6056C13.3112 18.4411 13.3699 18.2478 13.3699 18.05C13.3767 17.9145 13.3558 17.7791 13.3086 17.6519C13.2614 17.5248 13.1888 17.4086 13.0953 17.3103C13.0017 17.2121 12.8892 17.134 12.7645 17.0806C12.6398 17.0273 12.5055 16.9998 12.3699 17V17.05ZM6.3699 11.05C6.17212 11.05 5.97878 11.1087 5.81433 11.2185C5.64988 11.3284 5.52171 11.4846 5.44602 11.6673C5.37033 11.85 5.35053 12.0511 5.38911 12.2451C5.4277 12.4391 5.52294 12.6173 5.66279 12.7571C5.80264 12.897 5.98083 12.9922 6.17481 13.0308C6.36879 13.0694 6.56986 13.0496 6.75258 12.9739C6.93531 12.8982 7.09149 12.77 7.20137 12.6056C7.31125 12.4411 7.3699 12.2478 7.3699 12.05C7.37668 11.9145 7.35583 11.7791 7.30862 11.6519C7.26141 11.5248 7.18883 11.4086 7.09529 11.3103C7.00174 11.2121 6.8892 11.134 6.76449 11.0806C6.63979 11.0273 6.50554 10.9998 6.3699 11V11.05ZM12.3699 5.05C12.1721 5.05 11.9788 5.10865 11.8143 5.21853C11.6499 5.32841 11.5217 5.48459 11.446 5.66732C11.3703 5.85004 11.3505 6.05111 11.3891 6.24509C11.4277 6.43907 11.5229 6.61726 11.6628 6.75711C11.8026 6.89696 11.9808 6.9922 12.1748 7.03079C12.3688 7.06937 12.5699 7.04957 12.7526 6.97388C12.9353 6.89819 13.0915 6.77002 13.2014 6.60557C13.3112 6.44112 13.3699 6.24778 13.3699 6.05C13.3767 5.91453 13.3558 5.7791 13.3086 5.65195C13.2614 5.52479 13.1888 5.40857 13.0953 5.31035C13.0017 5.21213 12.8892 5.13396 12.7645 5.08061C12.6398 5.02726 12.5055 4.99983 12.3699 5V5.05ZM15.9099 7.1C15.7695 7.23962 15.6736 7.41779 15.6346 7.61193C15.5955 7.80607 15.6149 8.00745 15.6905 8.19052C15.766 8.37359 15.8941 8.53012 16.0587 8.64026C16.2233 8.75041 16.4169 8.80921 16.6149 8.80921C16.8129 8.80921 17.0065 8.75041 17.1711 8.64026C17.3357 8.53012 17.4638 8.37359 17.5393 8.19052C17.6149 8.00745 17.6343 7.80607 17.5952 7.61193C17.5562 7.41779 17.4603 7.23962 17.3199 7.1C17.1392 6.90696 16.8895 6.79332 16.6252 6.78395C16.361 6.77458 16.1038 6.87024 15.9099 7.05V7.1ZM22.2099 7.1C21.2956 5.2723 19.8903 3.73542 18.1515 2.6617C16.4127 1.58798 14.4091 1.01988 12.3655 1.0211C10.3219 1.02233 8.31902 1.59282 6.58148 2.66862C4.84395 3.74441 3.44045 5.28297 2.52838 7.11176C1.61631 8.94056 1.23172 10.9873 1.41774 13.0224C1.60377 15.0575 2.35305 17.0006 3.58157 18.6337C4.81008 20.2669 6.46926 21.5255 8.37304 22.2684C10.2768 23.0114 12.3499 23.2093 14.3599 22.84C14.8653 22.7449 15.3468 22.55 15.776 22.2667C16.2053 21.9834 16.5737 21.6174 16.8599 21.19C17.1682 20.7254 17.381 20.204 17.4857 19.6564C17.5905 19.1087 17.5851 18.5456 17.4699 18C17.4069 17.6703 17.3735 17.3356 17.3699 17C17.3743 16.031 17.6602 15.0841 18.1928 14.2745C18.7254 13.465 19.4817 12.8276 20.3699 12.44C20.8488 12.2256 21.2786 11.9153 21.6329 11.5283C21.9872 11.1414 22.2585 10.6859 22.4299 10.19C22.6033 9.68329 22.6732 9.14691 22.6354 8.61268C22.5976 8.07846 22.4529 7.55726 22.2099 7.08V7.1ZM20.5099 9.54C20.4246 9.77932 20.2921 9.99909 20.1203 10.1863C19.9486 10.3735 19.741 10.5244 19.5099 10.63C18.2799 11.1806 17.2349 12.0745 16.5006 13.2045C15.7662 14.3345 15.3736 15.6524 15.3699 17C15.3714 17.4701 15.4183 17.9389 15.5099 18.4C15.571 18.6818 15.575 18.973 15.5218 19.2564C15.4685 19.5397 15.3591 19.8096 15.1999 20.05C15.0652 20.2604 14.888 20.4403 14.6796 20.5781C14.4712 20.7158 14.2362 20.8085 13.9899 20.85C13.4558 20.9504 12.9134 21.0006 12.3699 21C11.1641 21.0006 9.97041 20.7588 8.85982 20.2891C7.74923 19.8194 6.74435 19.1314 5.90486 18.2658C5.06537 17.4001 4.40838 16.3747 3.97291 15.2502C3.53745 14.1257 3.33238 12.9252 3.3699 11.72C3.44751 9.47279 4.3589 7.33495 5.92653 5.72296C7.49415 4.11097 9.60573 3.14028 11.8499 3H12.3599C14.0357 3.00042 15.678 3.46869 17.102 4.35207C18.526 5.23545 19.6751 6.49885 20.4199 8C20.6491 8.47498 20.6815 9.02129 20.5099 9.52V9.54ZM12.3699 11C12.1721 11 11.9788 11.0587 11.8143 11.1685C11.6499 11.2784 11.5217 11.4346 11.446 11.6173C11.3703 11.8 11.3505 12.0011 11.3891 12.1951C11.4277 12.3891 11.5229 12.5673 11.6628 12.7071C11.8026 12.847 11.9808 12.9422 12.1748 12.9808C12.3688 13.0194 12.5699 12.9996 12.7526 12.9239C12.9353 12.8482 13.0915 12.72 13.2014 12.5556C13.3112 12.3911 13.3699 12.1978 13.3699 12C13.3699 11.7348 13.2645 11.4804 13.077 11.2929C12.8895 11.1054 12.6351 11 12.3699 11Z" fill="#4C4F57"/>
</svg>
