<svg width="18" height="17" viewBox="0 0 18 17" fill="none" xmlns="http://www.w3.org/2000/svg">
<path d="M12 12.1389L8 16.0278H18V12.1389H12ZM9.06 3.57362L0 12.382V16.0278H3.75L12.81 7.21946L9.06 3.57362ZM2.92 14.0833H2V13.1889L9.06 6.32501L9.98 7.21946L2.92 14.0833ZM15.71 4.40001C15.8027 4.31007 15.8763 4.20323 15.9264 4.08562C15.9766 3.96801 16.0024 3.84193 16.0024 3.7146C16.0024 3.58727 15.9766 3.46119 15.9264 3.34357C15.8763 3.22596 15.8027 3.11912 15.71 3.02918L13.37 0.75418C13.1825 0.573338 12.9291 0.471863 12.665 0.471863C12.4009 0.471863 12.1475 0.573338 11.96 0.75418L10.13 2.53335L13.88 6.17918L15.71 4.40001Z" fill="#4C4F57"/>
</svg>
