<svg width="24" height="24" viewBox="0 0 24 24" fill="none" xmlns="http://www.w3.org/2000/svg">
<g clip-path="url(#clip0_533_457)">
<path d="M18.1102 19.0623L14.6713 22.5158L14.5652 22.6224L14.4589 22.5161L13.3939 21.4511L13.2876 21.3448L13.3942 21.2387L16.8487 17.7988C16.5945 17.3853 16.4192 16.9277 16.3321 16.4494C16.2378 15.9307 16.2491 15.3984 16.3655 14.8842C16.4819 14.37 16.7009 13.8846 17.0094 13.4572C17.318 13.0297 17.7096 12.669 18.161 12.3966L18.1967 12.375H18.2385H18.2431C18.7981 12.056 19.4227 11.8768 20.0629 11.8531L18.1102 19.0623ZM18.1102 19.0623C18.5928 19.3662 19.1401 19.5577 19.7079 19.619C20.3078 19.6917 20.9163 19.6224 21.4845 19.4166C22.0745 19.2178 22.6087 18.8811 23.0426 18.4345L23.0434 18.4336C23.4649 17.9926 23.7753 17.4575 23.9488 16.8727L23.9491 16.8717C24.1173 16.2902 24.1545 15.6787 24.0581 15.0811L24.0581 15.0811L24.0576 15.0784C23.9493 14.4771 23.7027 13.9092 23.3374 13.4194C22.9721 12.9296 22.4981 12.5314 21.9526 12.2561L21.9512 12.2554C21.3648 11.967 20.716 11.8287 20.063 11.8531L18.1102 19.0623ZM4.5 1.35H4.43787L4.39393 1.39393L2.89393 2.89393L2.85 2.93787V3V19.5V19.5621L2.89393 19.6061L4.39393 21.1061L4.43787 21.15H4.5H11.82H11.8821L11.9261 21.1061L13.6061 19.4261L13.65 19.3821V19.32V3.15H20.85V10.5V10.6319L20.9808 10.6488C21.4858 10.7138 21.9767 10.8611 22.4341 11.0848L22.65 11.1903V10.95V3V2.93787L22.6061 2.89393L21.1061 1.39393L21.0621 1.35H21H4.5ZM21.417 17.4686C21.1228 17.6759 20.7803 17.8041 20.4224 17.841H20.4211L20.4137 17.8417C19.9312 17.8895 19.4471 17.7689 19.0434 17.5003C18.6952 17.2652 18.4226 16.9342 18.2585 16.5474C18.1035 16.1664 18.0647 15.748 18.147 15.345L18.1473 15.3435C18.2263 14.9349 18.4258 14.5593 18.72 14.265C19.0143 13.9708 19.3899 13.7713 19.7985 13.6923L19.8 13.692C20.203 13.6097 20.6214 13.6485 21.0024 13.8035C21.3892 13.9677 21.7199 14.2396 21.9554 14.5885C22.1561 14.89 22.2754 15.2383 22.3017 15.5995C22.328 15.9609 22.2603 16.323 22.1053 16.6505C21.9503 16.978 21.7132 17.2598 21.417 17.4686ZM11.85 3.15V19.35H4.65V3.15H11.85Z" fill="#4C4F57" stroke="#4C4F57" stroke-width="0.3"/>
</g>
<defs>
<clipPath id="clip0_533_457">
<rect width="24" height="24" fill="white"/>
</clipPath>
</defs>
</svg>
