<svg width="275" height="151" viewBox="0 0 275 151" fill="none" xmlns="http://www.w3.org/2000/svg">
<path d="M269.613 40.273C269.822 39.054 269.894 37.599 269.697 35.9L269.115 30.849L268.738 31.261C268.664 30.2609 268.492 29.2704 268.224 28.304C269.279 22.12 269.175 14.079 267.88 4.249L267.717 3L266.479 3.164C259.33 4.123 252.586 7.189 247.486 10.676C245.174 10.176 242.684 9.91 240 9.91C237.318 9.91 234.826 10.176 232.514 10.676C227.414 7.19 220.672 4.123 213.523 3.164L212.284 3L212.119 4.25C210.824 14.08 210.721 22.121 211.775 28.305C211.508 29.2716 211.336 30.262 211.261 31.262L210.885 30.85L210.303 35.9C210.107 37.599 210.179 39.054 210.388 40.273L210 40.189V43.08C210 48.529 213.878 53.721 220.92 57.695C226.716 60.967 234.027 63 240 63C245.973 63 253.284 60.967 259.081 57.695C266.123 53.721 270 48.529 270 43.08V40.189L269.613 40.273ZM265.564 5.857C266.373 12.433 266.607 18.218 266.296 23.082C266.267 22.393 266.148 21.705 265.884 21.062L266.307 21L264.625 18.094C264.963 16.123 265.217 12.696 264.092 8.621C260.199 10.24 257.192 13.06 256.067 14.213C254.452 13.123 252.665 12.242 250.719 11.565C254.936 8.984 260.094 6.791 265.564 5.857ZM214.436 5.857C219.907 6.791 225.066 8.984 229.283 11.564C227.336 12.242 225.55 13.123 223.935 14.212C222.809 13.06 219.802 10.239 215.909 8.62C214.785 12.694 215.039 16.12 215.377 18.093L213.694 21L214.116 21.063C213.852 21.706 213.732 22.393 213.704 23.083C213.393 18.219 213.628 12.434 214.436 5.857ZM240 60.656C229.035 60.656 212.308 53.158 212.308 43.08L214.156 43.478C214.156 43.478 212.018 41.169 212.594 36.173L214.39 38.142C214.39 38.142 212.594 33.072 214.156 28.394L216.145 29.882C216.145 29.882 215.541 27.978 216.096 26.675L216.955 27.359C216.955 27.359 216.604 26.58 216.33 25.55C218.107 25.732 219.711 26.001 221.258 26.415C221.289 26.423 221.318 26.435 221.348 26.444C221.294 26.485 221.236 26.516 221.184 26.561C219.883 27.735 218.883 29.202 218.392 30.942C217.953 32.669 218.067 34.448 218.482 36.092C218.7 36.918 218.982 37.711 219.361 38.492L219.517 38.791L219.58 38.893L219.677 39.016C219.737 39.084 219.779 39.127 219.828 39.176C220.019 39.356 220.208 39.492 220.403 39.617C220.796 39.857 221.199 40.043 221.61 40.191C223.26 40.783 224.988 40.804 226.622 40.586C228.241 40.3345 229.819 39.8681 231.314 39.199C229.73 39.545 228.148 39.847 226.563 39.853C224.994 39.894 223.41 39.697 222.044 39.103C221.713 38.9589 221.398 38.7802 221.104 38.57C220.972 38.4766 220.849 38.3726 220.734 38.259L220.679 38.196C220.681 38.196 220.683 38.202 220.681 38.202C220.678 38.198 220.632 38.122 220.664 38.175L220.551 37.933C220.252 37.2324 220.021 36.5043 219.863 35.759C219.529 34.277 219.459 32.732 219.842 31.325C220.195 29.94 221.071 28.62 222.132 27.612C222.465 27.294 222.83 27.122 223.217 27.022C224.125 27.335 225.017 27.678 225.882 28.079C226.512 28.374 227.126 28.692 227.731 29.028C225.651 29.188 224.003 31.116 224.003 33.497C224.003 35.981 225.794 37.997 228.003 37.997C230.212 37.997 232.003 35.981 232.003 33.497C232.003 32.86 231.882 32.255 231.669 31.706C232.518 32.4007 233.332 33.138 234.107 33.915C233.904 32.03 232.978 30.261 231.736 28.8C230.488 27.339 228.886 26.159 227.142 25.359C225.39 24.5415 223.484 24.1056 221.551 24.08C219.712 24.072 217.846 24.463 216.295 25.414C215.931 23.982 215.743 22.121 216.815 21.146C217.582 23.718 218.488 23.757 218.54 23.757H218.543C218.543 23.757 217.397 21.773 218.289 20.941C218.654 21.539 218.994 21.742 219.268 21.742C219.679 21.742 219.943 21.285 219.921 21.015C219.872 20.419 220.101 19.577 217.425 19.181C217.794 18.544 218.618 18.355 219.474 18.355C220.749 18.355 222.093 18.779 222.093 18.779C222.093 18.779 222.007 17.437 220.239 17.437L220.132 17.439C220.688 16.605 221.502 16.361 222.262 16.361C223.318 16.361 224.268 16.83 224.268 16.83L224.262 16.848C224.979 16.3063 225.732 15.8148 226.516 15.377C227.136 16.795 227.974 17.441 228.999 19.336C230.464 16.631 231.536 15.059 232.138 13.162C233.051 12.9303 233.976 12.7457 234.908 12.609C235.683 16.099 237.463 18.8 240.002 23.486C242.579 18.73 244.335 16.07 245.098 12.607C246.067 12.748 246.985 12.939 247.869 13.162C248.476 15.08 249.557 16.666 251.004 19.336C252.039 17.422 252.877 16.781 253.492 15.377C254.283 15.828 255.045 16.309 255.746 16.848L255.74 16.83C255.74 16.83 256.689 16.361 257.746 16.361C258.506 16.361 259.32 16.605 259.875 17.439L259.768 17.437C258 17.437 257.914 18.779 257.914 18.779C257.914 18.779 259.258 18.353 260.533 18.355C261.388 18.355 262.213 18.544 262.582 19.181C259.906 19.577 260.135 20.419 260.086 21.015C260.065 21.285 260.328 21.742 260.738 21.742C261.013 21.742 261.353 21.539 261.718 20.941C262.611 21.773 261.464 23.757 261.464 23.757H261.466C261.519 23.757 262.425 23.718 263.191 21.146C264.263 22.121 264.076 23.982 263.711 25.414C262.16 24.463 260.293 24.072 258.453 24.08C256.533 24.098 254.613 24.549 252.863 25.359C251.119 26.16 249.515 27.339 248.267 28.8C247.025 30.259 246.101 32.03 245.898 33.915C246.675 33.1362 247.491 32.3963 248.341 31.698C248.119 32.2718 248.005 32.8817 248.005 33.497C248.005 35.981 249.796 37.997 252.005 37.997C254.216 37.997 256.005 35.981 256.005 33.497C256.005 31.114 254.357 29.186 252.275 29.028C252.879 28.6899 253.496 28.3741 254.123 28.081C254.988 27.681 255.881 27.335 256.789 27.022C257.176 27.122 257.541 27.293 257.875 27.612C258.936 28.62 259.813 29.94 260.164 31.325C260.547 32.731 260.477 34.276 260.143 35.759C259.985 36.5043 259.754 37.2324 259.455 37.933L259.342 38.175C259.373 38.122 259.328 38.198 259.324 38.202C259.322 38.202 259.324 38.196 259.326 38.196L259.271 38.259C259.173 38.361 259.041 38.468 258.902 38.57C258.608 38.78 258.292 38.9587 257.961 39.103C256.596 39.697 255.012 39.894 253.443 39.853C251.857 39.847 250.275 39.544 248.691 39.199C250.186 39.8679 251.764 40.3344 253.382 40.586C255.017 40.805 256.743 40.783 258.394 40.191C258.815 40.0414 259.219 39.849 259.601 39.617C259.796 39.492 259.986 39.355 260.177 39.176C260.226 39.127 260.269 39.084 260.327 39.016L260.425 38.893L260.488 38.791L260.644 38.492C261.023 37.711 261.306 36.918 261.525 36.092C261.939 34.447 262.052 32.67 261.613 30.942C261.123 29.202 260.123 27.735 258.822 26.561C258.769 26.514 258.711 26.485 258.656 26.442C258.685 26.434 258.715 26.422 258.744 26.415C260.293 26.001 261.896 25.731 263.674 25.55C263.401 26.579 263.049 27.359 263.049 27.359L263.908 26.675C264.465 27.978 263.859 29.882 263.859 29.882L265.847 28.394C267.41 33.072 265.613 38.142 265.613 38.142L267.41 36.173C267.986 41.169 265.847 43.478 265.847 43.478L267.697 43.08C267.693 53.158 250.967 60.656 240 60.656Z" fill="black"/>
<path d="M240 44.748C240.744 44.748 241.67 44.461 242.639 43.551C244.174 42.11 244.621 40.44 244.043 39.766C243.232 38.821 240.744 38.748 240 38.748C239.258 38.748 236.768 38.82 235.957 39.766C235.381 40.44 235.826 42.11 237.363 43.551C238.332 44.461 239.257 44.748 240 44.748ZM240.001 47.352C235.462 47.352 231.919 50.411 230.165 53.844C229.694 54.762 230.319 55.756 231.013 55.184C236.806 50.383 243.232 50.413 248.99 55.184C249.683 55.756 250.308 54.762 249.838 53.844C248.084 50.41 244.539 47.352 240.001 47.352Z" fill="black"/>
<rect x="0.5" y="0.5" width="273.713" height="149.649" rx="10.5" fill="white" stroke="#ECECEC"/>
<path d="M147.667 64.3333V75M110.333 55V96.3333H163.667V55H153V64.3333H142.333V55H131.667V64.3333H121V55H110.333ZM110.333 75H163.667H110.333ZM110.333 85.6667H163.667H110.333ZM137 75V85.6667V75ZM126.333 85.6667V96.3333V85.6667ZM126.333 64.3333V75V64.3333ZM147.667 85.6667V96.3333V85.6667Z" stroke="black" stroke-width="4" stroke-linecap="round" stroke-linejoin="round"/>
</svg>
