<svg width="275" height="151" viewBox="0 0 275 151" fill="none" xmlns="http://www.w3.org/2000/svg">
<rect x="0.5" y="0.5" width="273.713" height="149.649" rx="10.5" fill="white" stroke="#ffffff"/>
<path d="M137 43C119.344 43 105 57.344 105 75C105 92.656 119.344 107 137 107C154.656 107 169 92.656 169 75C169 57.344 154.656 43 137 43ZM137 45C144.656 45 151.614 47.886 156.916 52.604H117.082C122.557 47.7027 129.649 44.995 136.998 45H137ZM117.834 54.604H156.168L137.002 92.926L117.834 54.604ZM114.604 55.084V94.918C109.703 89.4426 106.995 82.3507 107 75.002C107 67.346 109.886 60.388 114.604 55.086V55.084ZM159.396 55.084C164.297 60.5594 167.005 67.6513 167 75C167 82.656 164.114 89.614 159.396 94.916V55.084ZM116.604 56.604L136 95.396H116.604V56.604ZM157.396 56.604V95.396H138L157.406 56.604H157.396ZM117.084 97.396H156.918C151.438 102.302 144.346 105 137.002 105C129.658 105 122.564 102.302 117.086 97.396H117.084Z" fill="black"/>
</svg>
