<svg width="275" height="151" viewBox="0 0 275 151" fill="none" xmlns="http://www.w3.org/2000/svg">
<rect x="0.5" y="0.5" width="273.713" height="149.649" rx="10.5" fill="white" stroke="#ECECEC"/>
<g clip-path="url(#clip0_82_407)">
<path d="M116.267 44.0667C117.334 43.8889 118.934 43.8 121.067 43.8H124.934C121.378 48.3333 119.422 52.5556 119.067 56.4667C118.622 60.0222 119.2 63.5111 120.8 66.9333C122.4 70.3556 124.667 73.2667 127.6 75.6667C127.956 75.8444 128.222 76.1111 128.4 76.4667C128.578 76.8222 128.667 77.1556 128.667 77.4667C128.667 77.7778 128.645 78.2 128.6 78.7333C128.556 79.2667 128.534 79.6222 128.534 79.8C127.911 85.5778 127.556 89.0889 127.467 90.3333C128.622 89.6222 130.645 88.2667 133.534 86.2667C136.422 84.2667 138.711 82.8222 140.4 81.9333C150.8 83.8889 159.867 82.4222 167.6 77.5333V89.6667C167.689 91.9778 167.089 94.1778 165.8 96.2667C164.511 98.3556 162.8 99.8444 160.667 100.733C159.156 101.533 157.022 101.933 154.267 101.933H136L117.734 101.8C114.711 101.8 112.045 100.644 109.734 98.3333C107.422 96.0222 106.267 93.3111 106.267 90.2V56.4667C106.089 53.6222 107 50.9778 109 48.5333C111 46.0889 113.422 44.6 116.267 44.0667ZM132.267 51.9333C129.956 54.4222 128.8 57.0889 128.8 59.9333C128.534 64.0222 130.267 67.4889 134 70.3333C137.289 72.8222 141.178 74.1778 145.667 74.4C150.156 74.6222 154.222 73.7111 157.867 71.6667C162.756 68.9111 165.2 65.1778 165.2 60.4667C165.378 56.2 163.511 52.6889 159.6 49.9333C155.867 47.1778 151.422 45.8889 146.267 46.0667C140.578 46.2444 135.911 48.2 132.267 51.9333Z" fill="black"/>
</g>
<defs>
<clipPath id="clip0_82_407">
<rect width="61.8667" height="64" fill="white" transform="translate(106 43)"/>
</clipPath>
</defs>
</svg>
