<svg width="275" height="151" viewBox="0 0 275 151" fill="none" xmlns="http://www.w3.org/2000/svg">
<rect x="0.5" y="0.5" width="273.713" height="149.649" rx="10.5" fill="white" stroke="#ffffff"/>
<path d="M166.613 83.273C166.822 82.054 166.894 80.599 166.697 78.9L166.115 73.849L165.738 74.261C165.664 73.2609 165.492 72.2704 165.224 71.304C166.279 65.12 166.175 57.079 164.88 47.249L164.717 46L163.479 46.164C156.33 47.123 149.586 50.189 144.486 53.676C142.174 53.176 139.684 52.91 137 52.91C134.318 52.91 131.826 53.176 129.514 53.676C124.414 50.19 117.672 47.123 110.523 46.164L109.284 46L109.119 47.25C107.824 57.08 107.721 65.121 108.775 71.305C108.508 72.2716 108.336 73.262 108.261 74.262L107.885 73.85L107.303 78.9C107.107 80.599 107.179 82.054 107.388 83.273L107 83.189V86.08C107 91.529 110.878 96.721 117.92 100.695C123.716 103.967 131.027 106 137 106C142.973 106 150.284 103.967 156.081 100.695C163.123 96.721 167 91.529 167 86.08V83.189L166.613 83.273ZM162.564 48.857C163.373 55.433 163.607 61.218 163.296 66.082C163.267 65.393 163.148 64.705 162.884 64.062L163.307 64L161.625 61.094C161.963 59.123 162.217 55.696 161.092 51.621C157.199 53.24 154.192 56.06 153.067 57.213C151.452 56.123 149.665 55.242 147.719 54.565C151.936 51.984 157.094 49.791 162.564 48.857ZM111.436 48.857C116.907 49.791 122.066 51.984 126.283 54.564C124.336 55.242 122.55 56.123 120.935 57.212C119.809 56.06 116.802 53.239 112.909 51.62C111.785 55.694 112.039 59.12 112.377 61.093L110.694 64L111.116 64.063C110.852 64.706 110.732 65.393 110.704 66.083C110.393 61.219 110.628 55.434 111.436 48.857ZM137 103.656C126.035 103.656 109.308 96.158 109.308 86.08L111.156 86.478C111.156 86.478 109.018 84.169 109.594 79.173L111.39 81.142C111.39 81.142 109.594 76.072 111.156 71.394L113.145 72.882C113.145 72.882 112.541 70.978 113.096 69.675L113.955 70.359C113.955 70.359 113.604 69.58 113.33 68.55C115.107 68.732 116.711 69.001 118.258 69.415C118.289 69.423 118.318 69.435 118.348 69.444C118.294 69.485 118.236 69.516 118.184 69.561C116.883 70.735 115.883 72.202 115.392 73.942C114.953 75.669 115.067 77.448 115.482 79.092C115.7 79.918 115.982 80.711 116.361 81.492L116.517 81.791L116.58 81.893L116.677 82.016C116.737 82.084 116.779 82.127 116.828 82.176C117.019 82.356 117.208 82.492 117.403 82.617C117.796 82.857 118.199 83.043 118.61 83.191C120.26 83.783 121.988 83.804 123.622 83.586C125.241 83.3345 126.819 82.8681 128.314 82.199C126.73 82.545 125.148 82.847 123.563 82.853C121.994 82.894 120.41 82.697 119.044 82.103C118.713 81.9589 118.398 81.7802 118.104 81.57C117.972 81.4766 117.849 81.3726 117.734 81.259L117.679 81.196C117.681 81.196 117.683 81.202 117.681 81.202C117.678 81.198 117.632 81.122 117.664 81.175L117.551 80.933C117.252 80.2324 117.021 79.5043 116.863 78.759C116.529 77.277 116.459 75.732 116.842 74.325C117.195 72.94 118.071 71.62 119.132 70.612C119.465 70.294 119.83 70.122 120.217 70.022C121.125 70.335 122.017 70.678 122.882 71.079C123.512 71.374 124.126 71.692 124.731 72.028C122.651 72.188 121.003 74.116 121.003 76.497C121.003 78.981 122.794 80.997 125.003 80.997C127.212 80.997 129.003 78.981 129.003 76.497C129.003 75.86 128.882 75.255 128.669 74.706C129.518 75.4007 130.332 76.138 131.107 76.915C130.904 75.03 129.978 73.261 128.736 71.8C127.488 70.339 125.886 69.159 124.142 68.359C122.39 67.5415 120.484 67.1056 118.551 67.08C116.712 67.072 114.846 67.463 113.295 68.414C112.931 66.982 112.743 65.121 113.815 64.146C114.582 66.718 115.488 66.757 115.54 66.757H115.543C115.543 66.757 114.397 64.773 115.289 63.941C115.654 64.539 115.994 64.742 116.268 64.742C116.679 64.742 116.943 64.285 116.921 64.015C116.872 63.419 117.101 62.577 114.425 62.181C114.794 61.544 115.618 61.355 116.474 61.355C117.749 61.355 119.093 61.779 119.093 61.779C119.093 61.779 119.007 60.437 117.239 60.437L117.132 60.439C117.688 59.605 118.502 59.361 119.262 59.361C120.318 59.361 121.268 59.83 121.268 59.83L121.262 59.848C121.979 59.3063 122.732 58.8148 123.516 58.377C124.136 59.795 124.974 60.441 125.999 62.336C127.464 59.631 128.536 58.059 129.138 56.162C130.051 55.9303 130.976 55.7457 131.908 55.609C132.683 59.099 134.463 61.8 137.002 66.486C139.579 61.73 141.335 59.07 142.098 55.607C143.067 55.748 143.985 55.939 144.869 56.162C145.476 58.08 146.557 59.666 148.004 62.336C149.039 60.422 149.877 59.781 150.492 58.377C151.283 58.828 152.045 59.309 152.746 59.848L152.74 59.83C152.74 59.83 153.689 59.361 154.746 59.361C155.506 59.361 156.32 59.605 156.875 60.439L156.768 60.437C155 60.437 154.914 61.779 154.914 61.779C154.914 61.779 156.258 61.353 157.533 61.355C158.388 61.355 159.213 61.544 159.582 62.181C156.906 62.577 157.135 63.419 157.086 64.015C157.065 64.285 157.328 64.742 157.738 64.742C158.013 64.742 158.353 64.539 158.718 63.941C159.611 64.773 158.464 66.757 158.464 66.757H158.466C158.519 66.757 159.425 66.718 160.191 64.146C161.263 65.121 161.076 66.982 160.711 68.414C159.16 67.463 157.293 67.072 155.453 67.08C153.533 67.098 151.613 67.549 149.863 68.359C148.119 69.16 146.515 70.339 145.267 71.8C144.025 73.259 143.101 75.03 142.898 76.915C143.675 76.1362 144.491 75.3963 145.341 74.698C145.119 75.2718 145.005 75.8817 145.005 76.497C145.005 78.981 146.796 80.997 149.005 80.997C151.216 80.997 153.005 78.981 153.005 76.497C153.005 74.114 151.357 72.186 149.275 72.028C149.879 71.6899 150.496 71.3741 151.123 71.081C151.988 70.681 152.881 70.335 153.789 70.022C154.176 70.122 154.541 70.293 154.875 70.612C155.936 71.62 156.813 72.94 157.164 74.325C157.547 75.731 157.477 77.276 157.143 78.759C156.985 79.5043 156.754 80.2324 156.455 80.933L156.342 81.175C156.373 81.122 156.328 81.198 156.324 81.202C156.322 81.202 156.324 81.196 156.326 81.196L156.271 81.259C156.173 81.361 156.041 81.468 155.902 81.57C155.608 81.78 155.292 81.9587 154.961 82.103C153.596 82.697 152.012 82.894 150.443 82.853C148.857 82.847 147.275 82.544 145.691 82.199C147.186 82.8679 148.764 83.3344 150.382 83.586C152.017 83.805 153.743 83.783 155.394 83.191C155.815 83.0414 156.219 82.849 156.601 82.617C156.796 82.492 156.986 82.355 157.177 82.176C157.226 82.127 157.269 82.084 157.327 82.016L157.425 81.893L157.488 81.791L157.644 81.492C158.023 80.711 158.306 79.918 158.525 79.092C158.939 77.447 159.052 75.67 158.613 73.942C158.123 72.202 157.123 70.735 155.822 69.561C155.769 69.514 155.711 69.485 155.656 69.442C155.685 69.434 155.715 69.422 155.744 69.415C157.293 69.001 158.896 68.731 160.674 68.55C160.401 69.579 160.049 70.359 160.049 70.359L160.908 69.675C161.465 70.978 160.859 72.882 160.859 72.882L162.847 71.394C164.41 76.072 162.613 81.142 162.613 81.142L164.41 79.173C164.986 84.169 162.847 86.478 162.847 86.478L164.697 86.08C164.693 96.158 147.967 103.656 137 103.656Z" fill="black"/>
<path d="M137 87.748C137.744 87.748 138.67 87.461 139.639 86.551C141.174 85.11 141.621 83.44 141.043 82.766C140.232 81.821 137.744 81.748 137 81.748C136.258 81.748 133.768 81.82 132.957 82.766C132.381 83.44 132.826 85.11 134.363 86.551C135.332 87.461 136.257 87.748 137 87.748ZM137.001 90.352C132.462 90.352 128.919 93.411 127.165 96.844C126.694 97.762 127.319 98.756 128.013 98.184C133.806 93.383 140.232 93.413 145.99 98.184C146.683 98.756 147.308 97.762 146.838 96.844C145.084 93.41 141.539 90.352 137.001 90.352Z" fill="black"/>
</svg>
