<svg width="275" height="151" viewBox="0 0 275 151" fill="none" xmlns="http://www.w3.org/2000/svg">
<rect x="0.5" y="0.5" width="273.713" height="149.649" rx="10.5" fill="white" stroke="#ECECEC"/>
<path d="M146.333 56.3333L149 49.6667C151.889 50.7773 158.066 57.4 157 67M127.666 56.3333L125 49.6667C122.11 50.7773 115.933 57.4 117 67L127.666 56.3333Z" stroke="black" stroke-width="4" stroke-linecap="round" stroke-linejoin="round"/>
<path d="M161 81C161 93.8867 150.255 100.333 137 100.333C123.745 100.333 113 93.8867 113 81C113 68.1133 123.745 55 137 55C150.255 55 161 68.1133 161 81Z" stroke="black" stroke-width="4"/>
<path d="M131.667 68.3333C133.139 68.3333 134.333 67.1394 134.333 65.6667C134.333 64.1939 133.139 63 131.667 63C130.194 63 129 64.1939 129 65.6667C129 67.1394 130.194 68.3333 131.667 68.3333Z" fill="black"/>
<path d="M142.333 68.3333C143.806 68.3333 145 67.1394 145 65.6667C145 64.1939 143.806 63 142.333 63C140.86 63 139.667 64.1939 139.667 65.6667C139.667 67.1394 140.86 68.3333 142.333 68.3333Z" fill="black"/>
<path d="M137 77.6667C137 79.876 137.667 85 133 85C131.939 85 130.922 84.5786 130.172 83.8284C129.421 83.0783 129 82.0609 129 81" stroke="black" stroke-width="4" stroke-linecap="round" stroke-linejoin="round"/>
<path d="M137.033 77.6667C137.033 79.876 136.367 85 141.033 85C142.094 85 143.112 84.5786 143.862 83.8284C144.612 83.0783 145.033 82.0609 145.033 81" stroke="black" stroke-width="4" stroke-linecap="round" stroke-linejoin="round"/>
<path d="M139.667 77.3333C139.667 78.2533 137 79.6667 137 79.6667C137 79.6667 134.333 78.2533 134.333 77.3333C134.333 76.4133 135 75.6667 137 75.6667C139 75.6667 139.667 76.4133 139.667 77.3333Z" stroke="black" stroke-width="4" stroke-linejoin="round"/>
</svg>
