<svg width="275" height="151" viewBox="0 0 275 151" fill="none" xmlns="http://www.w3.org/2000/svg">
<rect x="0.5" y="0.5" width="273.713" height="149.649" rx="10.5" fill="white" stroke="#ffffff"/>
<path d="M142.504 65.025C141.172 65.025 140.1 66.363 140.1 68.023C140.1 69.687 141.172 71.025 142.504 71.025C143.828 71.025 144.9 69.687 144.9 68.023C144.9 66.363 143.828 65.025 142.504 65.025ZM125.497 65.025C124.174 65.025 123.1 66.362 123.1 68.023C123.1 69.687 124.174 71.025 125.497 71.025C126.828 71.025 127.9 69.687 127.9 68.023C127.9 66.362 126.828 65.025 125.497 65.025Z" fill="black"/>
<path d="M164 56.793C162.59 56.73 161.705 56.167 160.979 55.302C160.836 52.378 159.798 49.557 158.29 48.332C157.443 47.644 156.249 47.296 154.741 47.296C154.62 47.296 154.495 47.305 154.372 47.309C150.127 45.035 145.692 47.211 145.692 47.211C145.982 45.658 145.252 44.826 145.801 44C137.57 44 134.004 47.462 134 47.465C133.998 47.462 130.432 44 122.201 44C122.75 44.826 122.019 45.658 122.31 47.211C122.31 47.211 117.875 45.034 113.63 47.309C113.507 47.305 113.381 47.296 113.259 47.296C111.752 47.296 110.558 47.645 109.711 48.332C108.202 49.557 107.164 52.378 107.021 55.302C106.296 56.167 105.41 56.73 104 56.793C104 56.793 104.124 60.622 107.991 63.176C107.991 63.176 103.935 67.043 104.616 75.26C104.616 75.26 106.252 73.264 110.078 72.512C105.572 76.292 108.2 81.887 104.864 85.75C104.864 85.75 109.454 86.758 111.315 85.413C110.586 91.336 114.188 93.646 114.188 96.545C118.275 95.201 118.847 91.168 118.847 91.168C118.847 98.636 121.431 98.371 121.431 102.341C121.431 102.341 125.964 101.627 127.826 97.889C128.566 101.414 132.076 101.795 134 104H134.002C135.926 101.795 139.436 101.414 140.176 97.889C142.037 101.627 146.571 102.341 146.571 102.341C146.571 98.371 149.155 98.636 149.155 91.168C149.155 91.168 149.727 95.201 153.813 96.545C153.813 93.647 157.415 91.336 156.686 85.413C158.547 86.758 163.137 85.75 163.137 85.75C159.801 81.887 162.43 76.292 157.924 72.512C161.75 73.264 163.385 75.26 163.385 75.26C164.067 67.043 160.01 63.176 160.01 63.176C163.877 60.622 164 56.793 164 56.793ZM112.509 53.31C111.157 54.411 110.354 59.034 113.134 61.025C112.797 61.6332 112.479 62.2518 112.181 62.88C109.998 61.392 109.279 59.049 109.074 57.247C108.71 54.06 109.762 50.868 110.973 49.885C111.447 49.5 112.238 49.296 113.26 49.296C115.969 49.296 119.448 50.7 121.563 52.533C120.483 53.035 119.463 53.688 118.493 54.46C116.64 53.068 113.671 52.368 112.509 53.31ZM137.845 95.104C137.938 93.814 137.584 92.756 137.584 92.756C137.268 94.674 136.412 96.045 136.412 96.045C136.449 94.4 135.611 93.695 135.611 93.695C134.83 95.925 134.013 96.791 134.013 96.791C134.013 96.791 133.198 95.926 132.416 93.695C132.416 93.695 131.579 94.4 131.616 96.045C131.616 96.045 130.76 94.674 130.444 92.756C130.444 92.756 130.09 93.814 130.182 95.104C130.182 95.104 123.69 90.907 122.672 85.235C124.756 87.576 129.333 91.367 134.002 86.458C138.69 91.386 143.285 87.546 145.357 85.208C144.358 90.894 137.845 95.104 137.845 95.104ZM132.328 76.734C131.824 76.054 131.303 75.352 130.706 74.912C130.397 74.683 130.131 74.492 129.896 74.328C130.831 73.94 132.736 73.275 134.012 73.275C135.286 73.275 137.284 73.861 138.296 74.198C138.019 74.389 137.694 74.619 137.298 74.912C136.7 75.353 136.185 76.058 135.687 76.74C135.126 77.506 134.492 78.374 134.017 78.374H134.015C133.541 78.371 132.896 77.501 132.328 76.734ZM145.996 83.925L145.975 83.992L145.936 84.051C145.915 84.083 145.776 84.283 145.544 84.566C143.602 85.972 138.992 88.433 135 84.706V78.837L138.82 77.222C139.402 76.954 139.879 76.226 139.879 75.608L139.875 73.88C139.875 73.88 137.815 72.276 134.013 72.276C130.211 72.276 128.139 73.88 128.139 73.88L128.129 75.607C128.129 76.225 128.607 76.954 129.188 77.221L133 78.833V84.712C129.041 88.401 124.478 86.009 122.512 84.599C122.365 84.4223 122.225 84.2395 122.093 84.051L122.054 83.992L122.033 83.925C121.85 83.355 121.635 82.223 121.8 81.115C121.962 80.039 122.478 79.03 122.748 78.548C123.095 77.928 128.128 73.889 128.14 73.88C129.767 71.013 129.966 70.732 131.368 70.119C131.959 69.862 132.982 69.733 134.006 69.733C135.03 69.733 136.051 69.862 136.643 70.119C138.044 70.731 138.249 71.012 139.877 73.879C139.877 73.879 144.936 77.927 145.283 78.548C145.553 79.03 146.07 80.041 146.23 81.115C146.395 82.223 146.179 83.354 145.996 83.925ZM150.932 70.652C150.47 72.824 147.385 75.006 146.187 78.138C146.175 78.115 146.166 78.081 146.155 78.059C145.864 77.54 144.009 75.902 140.636 73.189C139.071 70.438 138.723 69.937 137.041 69.203C136.067 68.778 134.592 68.733 134.004 68.733C133.414 68.733 131.94 68.778 130.967 69.202C129.278 69.94 128.934 70.441 127.355 73.22C124.007 75.915 122.164 77.543 121.875 78.06C121.862 78.082 121.854 78.118 121.842 78.142C120.638 75.009 117.531 72.826 117.071 70.653C116.601 68.439 118.622 63.397 120.525 62.332C120.866 62.143 122.07 62.332 122.07 62.332C122.426 61.856 124.355 56.291 129.388 55.373C132.376 54.827 134.013 57.381 134.013 57.381C134.013 57.381 135.628 54.827 138.617 55.373C143.648 56.291 145.578 61.856 145.935 62.332C145.935 62.332 147.138 62.143 147.48 62.332C149.381 63.396 151.402 68.438 150.932 70.652ZM158.928 57.248C158.723 59.05 158.004 61.392 155.821 62.88C155.523 62.2518 155.205 61.6332 154.868 61.025C157.649 59.034 156.845 54.411 155.493 53.31C154.331 52.369 151.362 53.069 149.511 54.46C148.54 53.689 147.521 53.035 146.441 52.533C148.554 50.7 152.033 49.296 154.742 49.296C155.765 49.296 156.556 49.5 157.031 49.885C158.24 50.868 159.293 54.062 158.928 57.248Z" fill="black"/>
</svg>
