<svg width="360" height="163" xmlns="http://www.w3.org/2000/svg" xmlns:xlink="http://www.w3.org/1999/xlink"><defs><path d="M0 0h360v159a4 4 0 0 1-4 4H4a4 4 0 0 1-4-4V0z" id="a"/><path id="c" d="M0 0h148.221v75.963H0z"/><path id="e" d="M0 0h148.221v75.963H0z"/><path id="g" d="M0 0h148.221v75.963H0z"/><path id="i" d="M0 0h148.221v75.963H0z"/></defs><g fill="none" fill-rule="evenodd"><mask id="b" fill="#fff"><use xlink:href="#a"/></mask><use fill="#FFF" xlink:href="#a"/><g mask="url(#b)"><g transform="translate(179.22 6)"><mask id="d" fill="#fff"><use xlink:href="#c"/></mask><use fill="#FFF" xlink:href="#c"/><g mask="url(#d)" fill="#969696" fill-rule="nonzero"><path d="M51 28.013 39.945 45.675h8.79c.778 0 1.81-1.004 1.81-2.24h.523v2.926h-16.04l11.123-17.66h-7.595c-.78 0-1.58 1.002-1.58 2.239h-.758v-2.927h14.783zm10.173 0 8.554 16.92c.274.443 1.077.852 2.392.856l-.003.572H63.43v-.572c1.073 0 2.115-.444 1.882-.856l-2.055-4.08h-7.233l-1.885 4.089c-.202.46.63.843 1.404.843v.573h-4.174v-.573c1.07 0 1.826-.468 1.964-.84l7.84-16.932zm23.12 0c2.823 0 5.111 2.15 5.111 4.812 0 2.55-2.055 4.696-4.711 4.872l5.533 7.22c.346.434.97.928 2.162.928v.516h-6.197s-.113-.544-.34-.875l-.028-.04c-.432-.642-5.728-8.662-5.728-8.662h1.696c2.364 0 4.277-1.806 4.277-4.032 0-2.225-1.913-4.185-4.274-4.185h-2.452v16.35c0 .422 1.023.925 2.285.925v.516h-8.504l.004-.554c1.274 0 2.31-.469 2.31-.89v-.037l-.002-.185V34.528l.001-2.977v-2.106c0-.397-1.05-.724-2.322-.724v-.708zm18.475 0 8.554 16.92c.274.443 1.077.893 2.392.893l-.003.535h-8.686v-.554l.153-.003c1.016-.04 1.953-.479 1.729-.871l-2.056-4.08H97.62l-1.885 4.089c-.199.46.63.9 1.403.9v.516h-4.173v-.554c1.073 0 1.825-.487 1.964-.859l7.84-16.932zm-43.3 5.312-3.13 6.868h6.623l-3.494-6.868zm41.59 0-3.127 6.868h6.621l-3.493-6.868z"/></g></g><g transform="translate(179.22 81.037)"><mask id="f" fill="#fff"><use xlink:href="#e"/></mask><use fill="#FFF" xlink:href="#e"/><g mask="url(#f)" fill="#969696" fill-rule="nonzero"><path d="M32.833 45.017H31.63c-.1 0-.352 0-.352-.15 0-.1.05-.151.201-.201 1.104-.352 1.354-.953 1.354-1.805v-8.978c0-.803-.25-1.405-1.354-1.806-.15 0-.2-.1-.2-.15 0-.2.25-.151.35-.151h9.931c2.257 0 4.113 1.805 4.113 4.062 0 2.257-1.856 4.062-4.113 4.062h-5.016v3.06c.051.802.302 1.353 1.355 1.705.15.05.2.1.2.2 0 .151-.25.151-.35.151h-4.916v.001zm74.029-4.865h2.357l-2.357-4.012-.252-.402-2.106 4.414h2.358zm0-8.425h1.605l6.72 11.837c.2.3.451.601.753.75.25.202.551.252.802.352.1.051.2.101.2.201 0 .15-.25.15-.35.15h-5.969c-.1 0-.402 0-.402-.15 0-.1.101-.15.202-.2.301-.1.5-.251.6-.552.102-.351 0-.551-.25-1.004a83.797 83.797 0 0 0-1.053-2.156h-5.617l-.05.1c-.05.2-.451.903-.753 1.655-.4.803-.551 1.003-.451 1.405.05.3.3.45.601.55.101.051.152.102.152.202 0 .15-.252.15-.352.15h-2.759c-.1 0-.351 0-.351-.15 0-.1.05-.151.2-.201.252-.1.552-.15.803-.352.3-.15.552-.451.752-.75l.352-.754 3.811-7.974-.552-.953c-.5-.803-1.003-1.304-1.554-1.605-.25-.15-.502-.15-.752-.251-.151-.05-.201-.1-.151-.201 0-.1.1-.05.15-.1h3.663zm-14.997 13.24h.2c9.23 0 9.13-13.19 0-13.19h-7.572c-.151 0-.401-.05-.401.15 0 .05.1.15.2.15 1.103.351 1.354.953 1.404 1.706v9.178c-.05.803-.3 1.354-1.404 1.705-.1.051-.2.101-.2.201 0 .15.25.15.4.15h4.866v-.05h2.507zm0-12.238a2.57 2.57 0 0 1 2.559 2.558v6.119a2.57 2.57 0 0 1-2.559 2.558h-2.508V32.729h2.508zm-19.109 7.423h2.358l-2.358-4.012-.25-.402-2.106 4.414h2.356zm0-8.425h1.656l6.72 11.837c.15.3.402.601.703.75.25.202.552.252.853.352.1.051.2.101.2.201 0 .15-.301.15-.401.15h-5.968c-.1 0-.351 0-.351-.15 0-.1.05-.15.2-.2.251-.1.501-.251.552-.552.1-.351 0-.551-.2-1.004-.352-.752-.753-1.454-1.103-2.156h-5.62l-.05.1c-.05.2-.4.903-.752 1.655-.35.803-.551 1.003-.45 1.405.1.3.3.45.601.55.1.051.2.102.2.202 0 .15-.25.15-.4.15h-2.71c-.1 0-.4 0-.4-.15 0-.1.1-.151.2-.201.301-.1.552-.15.853-.352.25-.15.552-.451.702-.75l.35-.754 3.863-7.974-.552-.953c-.501-.803-1.053-1.304-1.554-1.605-.302-.15-.502-.15-.803-.251-.1-.05-.201-.1-.15-.201.05-.1.15-.05.2-.1h3.611zm-16.55 8.777c1.153.4 2.557.5 3.66.15l4.364 3.762.351.3c.05.051.05.1.05.151 0 .15-.25.15-.35.15h-4.614l-3.461-2.858-2.81-2.257v3.11c.051.752.352 1.303 1.405 1.655.1.05.15.1.15.2 0 .151-.25.151-.35.151h-6.07c-.15 0-.4 0-.4-.15 0-.1.1-.151.2-.201 1.203-.4 1.354-1.003 1.404-1.956v-8.678c-.05-.903-.201-1.555-1.405-1.956-.1 0-.2-.1-.2-.15 0-.2.251-.151.401-.151h9.78a4.046 4.046 0 0 1 4.063 4.062 4.045 4.045 0 0 1-4.063 4.062h-3.159c.15.301.502.402.802.552.1.001.15.052.251.052zm0-1.555h.4c1.304 0 2.408-1.405 2.408-3.21 0-1.756-1.104-3.16-2.408-3.16h-3.21v6.37h2.81zm-16.803-6.37h-2.859v6.37h3.311c1.354 0 2.407-1.405 2.407-3.21 0-1.756-1.053-3.16-2.407-3.16h-.452z"/></g></g><g transform="translate(31 6)"><mask id="h" fill="#fff"><use xlink:href="#g"/></mask><use fill="#FFF" xlink:href="#g"/><g mask="url(#h)" fill="#969696" fill-rule="nonzero"><path d="M81.75 33.023h1.353c.82 0 1.107.185 1.107.902v8.837c0 .697-.287.964-1.107.964H81.75v1.428h13.818v-5.867h-1.306c0 2.893-1.146 4.414-3.075 4.414H87.31V39h.761c1.251 0 1.966.555 1.966 1.58v.82h1.499v-6.524h-1.5v.718c0 1.007-.754 1.62-1.965 1.62h-.761v-4.191h3.61c2.648 0 3.198 1.524 3.342 3.801h1.306V31.47H81.751v1.553zM75.673 43.7h-3.275v-9.714c0-.718.288-.964 1.108-.964h1.231v-1.518h-7.64v1.518h1.067c.82 0 1.108.246 1.108.964v8.775c0 .697-.287.964-1.108.964h-1.067v1.463h12.95v-6.01H78.57c-.042 2.358-.025 4.522-2.897 4.522zM57.405 31.088c-4.719 0-7.657 3.639-7.673 7.062-.021 4.431 2.913 7.221 7.53 7.221 4.902 0 7.754-2.748 7.754-7.447 0-3.482-3.077-6.836-7.611-6.836zm-.103 12.67c-2.462 0-3.877-2.203-3.877-5.71 0-3.427 1.477-5.196 4-5.196 2.421 0 3.837 1.81 3.837 5.339 0 3.447-1.436 5.566-3.96 5.566zm56.42-10.735h1.438v-1.537h-6.946v1.537h.908c.341.052.568.402.228.743l-1.931 2.215-1.534-1.875c-.34-.397-.284-1.08.341-1.08l.701-.004v-1.537h-7.915v1.537c1.988.057 2.485.289 3.203 1.212l3.216 3.905-4.374 4.6c-.78.882-.854.961-2.044.961v1.469h6.929V43.7h-1.658c-.492 0-.595-.357-.595-.623 0-.267.349-.575.492-.76l2.442-2.763 2.443 2.908c.123.164.327.349.327.554 0 .267-.225.684-.697.684h-1.373v1.47h7.837V43.7c-1.238 0-1.349-.058-2.46-1.415l-4.089-4.827 2.783-3.01c1.025-1.088 1.426-1.425 2.329-1.425zm-67.249 8.215v.703c0 .84-.49 1.271-.901 1.271-.657 0-.697-.8-.739-1.271v-.568c0-1.875-.851-2.613-1.93-3.181 2.01-.472 3.344-1.673 3.344-3.335 0-2.154-1.477-3.385-4.103-3.385h-9.93v1.551h1.345c.82 0 1.108.19 1.108.908v8.806c0 .697-.287.964-1.108.964h-1.345v1.455h7.735V43.7h-1.067c-.82 0-1.108-.267-1.108-.964v-3.92h1.38c1.477 0 2.56.825 2.641 2.385l.123 1.8c.082 1.641 1.19 2.523 3.14 2.523 2.071 0 2.558-1.005 2.558-3.139v-1.148h-1.143zm-6.297-4.202h-2.4V33.01h2.133c2.052 0 2.79.68 2.79 2.014 0 1.374-.8 2.01-2.523 2.01z"/></g></g><g transform="translate(31 81.037)"><mask id="j" fill="#fff"><use xlink:href="#i"/></mask><use fill="#FFF" xlink:href="#i"/><path d="M51.14 22.056c2.998-.208 6.089.146 8.837 1.407 2.45 1.108 4.578 3.005 5.791 5.423 1.205 2.352 1.518 5.116.997 7.695-.493 2.495-1.817 4.822-3.742 6.49-2.135 1.878-4.88 2.925-7.647 3.426-2.499.462-5.05.534-7.584.493-1.93-.028-3.864-.028-5.79-.152-.204-.025-.462-.017-.597-.197-.167-.219-.003-.526.227-.62 1.169-.665 2.102-1.685 2.792-2.829.773-1.246 1.299-2.617 1.847-3.972.92-2.323 1.765-4.678 2.665-7.007.673-1.72 1.424-3.446 2.59-4.897 1.105-1.388 2.75-2.35 4.506-2.601.222-.011.485-.075.676.063.202.252-.144.444-.307.593-1.665 1.263-2.626 3.191-3.407 5.077-1.46 3.618-2.579 7.374-4.23 10.91-.667 1.35-1.454 2.67-2.56 3.71-.185.182-.42.326-.553.56-.072.24.216.35.41.348a56.33 56.33 0 0 0 4.52.078c2.518-.089 5.077-.543 7.326-1.723a10.413 10.413 0 0 0 4.925-5.412c.972-2.427 1.136-5.136.64-7.692-.415-2.17-1.476-4.258-3.174-5.7-2.089-1.793-4.895-2.494-7.595-2.571-2.349-.02-4.756.357-6.85 1.468-1.997 1.047-3.598 2.872-4.257 5.041-.366 1.307-.421 2.717-.047 4.027.119.327-.408.38-.549.155-.778-1.038-1.044-2.39-.994-3.67.058-1.592.886-3.055 1.97-4.182 1.794-1.875 4.281-2.942 6.8-3.426a18.37 18.37 0 0 1 2.365-.313zm24.772 8.827c1.529-.213 3.21-.1 4.517.8 1.139.773 1.776 2.108 1.945 3.45.224 1.805-.139 3.647-.853 5.309-.867 1.986-2.288 3.745-4.094 4.952-1.723 1.155-3.845 1.754-5.92 1.518-1.174-.122-2.337-.623-3.127-1.523-1.047-1.169-1.343-2.817-1.254-4.34.163-2.657 1.36-5.202 3.171-7.133 1.48-1.576 3.46-2.731 5.615-3.033m.545.814c-.911.217-1.714.746-2.404 1.363-1.083.984-1.917 2.213-2.56 3.52-1.04 2.18-1.573 4.654-1.232 7.064.147.908.53 1.93 1.44 2.313 1.03.426 2.2.044 3.086-.543 1.476-1.003 2.515-2.524 3.296-4.105 1-2.11 1.601-4.47 1.371-6.814-.105-.848-.316-1.762-.96-2.368-.533-.507-1.342-.596-2.037-.43zm26.198-.73c1.036-.211 2.119-.23 3.155 0 .725.168 1.448.537 1.85 1.187.526.837.457 1.931.01 2.784-.664 1.291-1.86 2.21-3.112 2.89-2.175 1.16-4.629 1.675-7.064 1.913-.296.986-.382 2.028-.368 3.055.028.793.219 1.632.77 2.227.465.515 1.174.75 1.859.734 1.357.017 2.667-.532 3.728-1.349.875-.656 1.61-1.481 2.271-2.343.263-.294.82.05.573.413-1.373 2.434-3.922 4.274-6.75 4.479-1.357.094-2.839-.092-3.93-.97-.942-.737-1.416-1.928-1.52-3.094-.167-1.808.265-3.628 1.002-5.274a13.239 13.239 0 0 1 2.875-4.063c1.294-1.24 2.889-2.208 4.65-2.59m.25.878c-1.086.455-1.95 1.3-2.684 2.2-1.136 1.448-1.947 3.135-2.476 4.891a12.8 12.8 0 0 0 3.667-.93c1.221-.524 2.382-1.266 3.227-2.305.606-.748 1.02-1.706.92-2.684-.048-.496-.264-1.036-.743-1.255-.606-.288-1.313-.152-1.911.083zm-8.936-.581c.344-.308.845-.502 1.291-.305.371.147.507.59.457.956-.133 1.396-.634 2.725-1.177 4.008-1.335 3.138-3.36 5.946-5.717 8.398-.756.756-1.548 1.49-2.457 2.063-.443.272-.925.521-1.457.53-.293 0-.629-.111-.756-.4-.224-.498-.163-1.058-.163-1.59.193-3.34.623-6.702.23-10.046-.136-.989-.322-2.022-.898-2.861-.144-.23-.382-.371-.557-.57-.033-.167.175-.225.297-.255 1.016-.186 2.16.03 2.919.767.704.648.997 1.61 1.116 2.531.352 2.79.158 5.615-.077 8.407-.022.413-.125.864.094 1.244.498-.009.872-.371 1.205-.698a22.402 22.402 0 0 0 4.93-8.008c.371-1.06.657-2.158.776-3.28.03-.296.02-.6-.056-.891z" fill="#969696" fill-rule="nonzero" mask="url(#j)"/></g></g></g></svg>