<svg width="360" height="163" xmlns="http://www.w3.org/2000/svg" xmlns:xlink="http://www.w3.org/1999/xlink"><defs><path d="M0 0h360v159a4 4 0 0 1-4 4H4a4 4 0 0 1-4-4V0z" id="a"/><path id="c" d="M0 0h148.221v75.963H0z"/><path id="e" d="M0 0h148.221v75.963H0z"/><path id="g" d="M0 0h148.221v75.963H0z"/><path id="i" d="M0 0h148.221v75.963H0z"/></defs><g fill="none" fill-rule="evenodd"><mask id="b" fill="#fff"><use xlink:href="#a"/></mask><use fill="#FFF" xlink:href="#a"/><g mask="url(#b)"><g transform="translate(31 81.037)"><mask id="d" fill="#fff"><use xlink:href="#c"/></mask><use fill="#FFF" xlink:href="#c"/><g mask="url(#d)" fill="#A2A2A2" fill-rule="nonzero"><path d="m54.76 31.343-.005 2.962-9.44-.002a.353.353 0 0 0-.35.354c0 .196.156.354.35.354l2.456-.013c3.87 0 7.005 3.127 7.005 6.986 0 3.852-3.136 6.979-7.005 6.979l-9.458.01.004-2.995h9.464a4.005 4.005 0 0 0 4.01-4 4.001 4.001 0 0 0-4.01-3.993l-2.468-.033A3.309 3.309 0 0 1 42 34.65a3.313 3.313 0 0 1 3.313-3.307h9.446zm17.444-3.664v2.967l-10.095-.002c-1.641 0-2.985 1.321-2.985 2.928v9.448a2.97 2.97 0 0 0 2.985 2.977l10.05-.004.003 2.96-10.053-.004c-3.285 0-5.947-2.655-5.947-5.93v-9.415c0-3.274 2.662-5.925 5.947-5.925h10.095zm26.943-.347c2.137 0 3.942 1.327 4.49 3.13l6.249 18.489H97.871v-2.962h7.895l-5.098-15.02a1.66 1.66 0 0 0-1.526-1.012c-.666 0-1.268.4-1.524 1.015l-6.123 17.98-2.447-.002v.003l-9.777-.004c-3.284 0-5.968-2.655-5.968-5.93v-9.415c0-3.274 2.661-5.925 5.945-5.925h9.8v2.965h-9.777a2.959 2.959 0 0 0-2.964 2.96v9.416a2.976 2.976 0 0 0 2.972 2.97h6.8v-8.032h-5.433V35h8.402v11.9l5.608-16.445c.532-1.737 2.224-3.028 4.263-3.118zm.002 3.314a.97.97 0 0 1 .914.647l4.746 14.022h-6.95l.005-2.637-2.126 6.273h-3.504l6.002-17.658a.968.968 0 0 1 .913-.647zm-10.101.69.004 2.956h-8.394c-.702.017-.7.706-.7.706l.015 6.628c0 .381.312.697.693.697h1.746l-.005-.697h-1.754V38.66h4.725v6.635h-6.107a2.272 2.272 0 0 1-2.267-2.274v-9.416a2.267 2.267 0 0 1 2.266-2.266l9.778-.002zm-34.293-3.657.004 2.973-9.446.002a4.004 4.004 0 0 0-4.01 3.996 4.005 4.005 0 0 0 4.01 4.001l2.468.027a3.305 3.305 0 0 1 3.314 3.3 3.307 3.307 0 0 1-3.314 3.305h-9.464l-.004-2.952 9.445-.008a.343.343 0 0 0 .342-.339.344.344 0 0 0-.342-.342l-2.443-.004c-3.866 0-7.006-3.125-7.006-6.98 0-3.856 3.14-6.98 7.006-6.98h9.44zm15.301 10.983v2.964H62.8c.009.65.616.697.697.7h8.665l-.002 2.947-10.051.004a2.26 2.26 0 0 1-2.265-2.257v-4.358h10.212zm29.087.247-1.054 3.107h2.1l-1.046-3.107zm-26.939-7.571v2.97h-8.698c-.696 0-.706.692-.706.692h7.256v2.958H59.844l.004-4.354a2.26 2.26 0 0 1 2.26-2.266h10.096z"/></g></g><g transform="translate(179.22 81.037)"><mask id="f" fill="#fff"><use xlink:href="#e"/></mask><use fill="#FFF" xlink:href="#e"/><g mask="url(#f)" fill="#969696" fill-rule="nonzero"><path d="M116.492 36.408v6.76h-2.161V38.66h-7.901v4.506h-2.161v-6.76h12.223zm-26.606-4.414v8.982h9.722c-.247.926-.833 1.728-1.913 2.191h-10V31.994h2.19zm-8.303 0c-.247.957-1.204 1.852-2.377 2.191H71.49l.031 2.223h10v6.76H68.712c.525-1.081 1.574-1.914 2.81-2.254h7.839V38.6h-10v-6.605zm-18.519 8.92c-.216.988-1.08 2.037-2.253 2.253h-8.334c-1.173-.216-2.037-1.265-2.284-2.253zm-18.18-8.95v.03c-.246.988-1.08 1.914-2.253 2.222h-3.518l-.185.062v8.858h-2.192v-8.858l-.185-.062h-3.519c-1.142-.247-2.006-1.234-2.253-2.222l14.105-.03zm18.18 4.413c-.216.988-1.08 2.037-2.253 2.253h-8.334c-1.173-.247-2.037-1.265-2.284-2.253zm53.705-4.414c-.247.988-1.08 2.037-2.253 2.253h-8.333c-1.142-.247-2.007-1.265-2.254-2.253zm-53.705 0c-.216.988-1.08 2.037-2.253 2.253h-8.334c-1.173-.247-2.037-1.265-2.284-2.253z"/></g></g><g transform="translate(31 6)"><mask id="h" fill="#fff"><use xlink:href="#g"/></mask><use fill="#FFF" xlink:href="#g"/><path d="m89.137 28 1.937 2.94c-.642.423-.664 1.372-.664 1.502v.013l.002.036V47H86.89V32.55l-.002-.053c-.025-1.119.38-3.121 2.036-4.348l.213-.149zm16.15.043c5.22 0 9.465 4.246 9.465 9.465 0 5.219-4.246 9.465-9.465 9.465-5.217 0-9.463-4.246-9.463-9.465 0-5.218 4.245-9.464 9.463-9.465zM65.61 28.02c4.328 0 6.881 3.814 9.05 7.533l.293.507.29.502c2.02 3.516 3.93 6.836 6.671 6.836v3.522c-4.28 0-6.835-3.668-8.987-7.33l-.298-.51-.439-.762c-2.003-3.485-3.895-6.776-6.58-6.776-2.684 0-4.577 3.29-6.58 6.776l-.292.507-.295.51-.3.51-.307.51c-2.06 3.39-4.548 6.565-8.53 6.565-4.78 0-7.407-4.57-9.725-8.602-2.004-3.485-3.896-6.776-6.581-6.776V28.02c4.722 0 7.331 4.538 9.633 8.542 2.021 3.516 3.93 6.836 6.672 6.836 2.742 0 4.65-3.32 6.672-6.836 2.302-4.004 4.911-8.542 9.633-8.542zm39.677 3.545a5.95 5.95 0 0 0-5.942 5.943 5.95 5.95 0 0 0 5.942 5.944 5.95 5.95 0 0 0 5.944-5.944 5.95 5.95 0 0 0-5.944-5.943zM65.61 38.202a2.602 2.602 0 0 1 2.603 2.602 2.603 2.603 0 0 1-5.206 0 2.602 2.602 0 0 1 2.603-2.602z" fill="#969696" fill-rule="nonzero" mask="url(#h)"/></g><g transform="translate(179.22 6)"><mask id="j" fill="#fff"><use xlink:href="#i"/></mask><use fill="#FFF" xlink:href="#i"/><path d="M76.488 47.936h10.169c1.52 0 2.766-.623 3.78-1.87.973-1.209 1.48-2.65 1.48-4.286 0-3.312-4.247-5.65-5.884-5.65h-5.571c-.43 0-.78-.195-1.053-.506a1.904 1.904 0 0 1-.428-1.209c0-.545.155-1.012.428-1.402.312-.39.702-.623 1.17-.623H91.02v-4.17H80.383c-1.91 0-3.39.585-4.442 1.714-.935 1.053-1.403 2.455-1.403 4.13 0 1.637.468 3.08 1.403 4.247 1.052 1.286 2.299 1.95 3.819 1.95h6.43c.388 0 .7.116.934.427.272.312.39.702.39 1.13 0 .507-.196.975-.507 1.364-.35.351-.74.546-1.247.546H75.474l-.156-.273-3.857-12.39-.195-.39c-.935-1.91-2.494-2.844-4.637-2.844-1.169 0-2.22.272-3.156.857-.974.584-1.598 1.441-1.948 2.533l-5.183 16.676 4.715.04L65.81 33.09c.117-.468.39-.701.74-.701a.64.64 0 0 1 .468.195 1.2 1.2 0 0 1 .234.506l4.792 14.845h4.444zM41.419 34.299v13.598h-4.364v-15.08c0-1.947.468-3.311 1.48-4.13.78-.584 1.95-.896 3.585-.896a5.69 5.69 0 0 1 3.468 1.13c1.013.74 1.675 1.754 2.026 3l2.845 10.014.467 1.364c.04.273.195.468.35.623.196.157.39.235.624.157.39-.04.585-.273.585-.624V28.259h4.481V43.26c0 1.676-.39 2.923-1.208 3.82-.779.895-1.948 1.363-3.507 1.363-1.363 0-2.494-.273-3.39-.74-1.09-.546-1.792-1.403-2.104-2.534l-3.273-11.416-.233-.74c-.078-.273-.234-.468-.429-.663a.814.814 0 0 0-.662-.156c-.234.04-.39.156-.546.39a1.346 1.346 0 0 0-.195.701V34.3zm69.747 13.637L106.1 31.065l-.195-.39c-.935-1.91-2.493-2.844-4.636-2.844-1.17 0-2.221.272-3.156.857-.975.584-1.598 1.441-1.949 2.533l-5.182 16.676 4.715.04 4.753-14.846c.117-.468.39-.701.74-.701.195 0 .351.077.468.195a1.2 1.2 0 0 1 .234.506l4.793 14.845h4.48z" fill="#A2A2A2" fill-rule="nonzero" mask="url(#j)"/></g></g></g></svg>