<svg width="360" height="163" xmlns="http://www.w3.org/2000/svg" xmlns:xlink="http://www.w3.org/1999/xlink"><defs><path d="M0 0h360v159a4 4 0 0 1-4 4H4a4 4 0 0 1-4-4V0z" id="a"/><path id="c" d="M0 0h148.221v75.963H0z"/><path id="e" d="M0 0h148.221v75.963H0z"/><path id="g" d="M0 0h148.221v75.963H0z"/><path id="i" d="M0 0h148.221v75.963H0z"/></defs><g fill="none" fill-rule="evenodd"><mask id="b" fill="#fff"><use xlink:href="#a"/></mask><use fill="#FFF" xlink:href="#a"/><g mask="url(#b)"><g transform="translate(180 6)"><mask id="d" fill="#fff"><use xlink:href="#c"/></mask><use fill="#FFF" xlink:href="#c"/><g mask="url(#d)" fill="#969696" fill-rule="nonzero"><path d="M38.43 28.8c-1.656.691-3.474 2.644-4.043 5.086-.72 3.107 2.292 4.409 2.55 3.988.285-.502-.543-.678-.705-2.292-.217-2.076.746-4.409 1.967-5.426.23-.19.217.068.217.556 0 .868-.055 8.695-.055 10.337 0 2.21-.095 2.903-.257 3.594-.163.706-.435 1.167-.231 1.357.23.204 1.194-.285 1.75-1.058.665-.936.909-2.062.95-3.283.054-1.465.054-3.798.054-5.141 0-1.221.027-4.802-.027-6.946-.028-.515-1.479-1.058-2.17-.773zm76.074 11.611c-.245 0-.353.244-.435.665-.312 1.438-.637 1.763-1.071 1.763-.475 0-.896-.719-1.004-2.143-.081-1.126-.068-3.201.04-5.263.028-.42-.094-.841-1.234-1.248-.488-.177-1.194-.434-1.546.42-1.004 2.415-1.384 4.327-1.479 5.1 0 .041-.054.055-.068-.04-.054-.624-.19-1.75-.203-4.137 0-.462-.095-.855-.61-1.18-.34-.204-1.344-.584-1.71-.136-.312.366-.678 1.33-1.058 2.482-.312.936-.529 1.574-.529 1.574s0-2.523.014-3.487c0-.366-.245-.488-.326-.501-.34-.095-1.004-.258-1.275-.258-.353 0-.434.19-.434.475 0 .04-.054 3.323-.054 5.63v.325c-.19 1.058-.814 2.496-1.493 2.496-.678 0-1.004-.597-1.004-3.337 0-1.601.055-2.293.068-3.446.014-.665.041-1.18.041-1.289 0-.352-.624-.529-.909-.596a2.557 2.557 0 0 0-.732-.082c-.272.014-.475.204-.475.448v.393c-.353-.556-.923-.95-1.316-1.058-1.031-.298-2.103-.04-2.903 1.099-.638.895-1.031 1.913-1.18 3.378-.109 1.071-.082 2.157.122 3.065-.244 1.031-.678 1.452-1.167 1.452-.705 0-1.22-1.153-1.153-3.147.04-1.316.299-2.225.584-3.554.122-.57.027-.869-.231-1.153-.23-.258-.719-.394-1.41-.231-.503.122-1.208.244-1.86.34 0 0 .041-.164.069-.435.162-1.451-1.411-1.33-1.913-.868-.299.271-.502.597-.584 1.194-.122.936.638 1.37.638 1.37-.244 1.14-.855 2.631-1.492 3.703a15.31 15.31 0 0 1-.936 1.465v-.502c-.014-2.4.027-4.286.04-4.965.014-.664.041-1.166.041-1.275 0-.258-.149-.353-.475-.488a3.474 3.474 0 0 0-.95-.217c-.433-.027-.69.19-.69.461v.366c-.354-.556-.923-.95-1.317-1.058-1.03-.298-2.102-.04-2.903 1.099-.637.895-1.058 2.157-1.18 3.364-.108 1.126-.095 2.076.054 2.89-.162.8-.637 1.655-1.166 1.655-.679 0-1.058-.597-1.058-3.338 0-1.6.054-2.292.067-3.445.014-.665.041-1.18.041-1.289 0-.353-.624-.529-.909-.597a2.733 2.733 0 0 0-.76-.081c-.257.013-.447.258-.447.434v.407c-.353-.556-.922-.95-1.316-1.058-1.03-.299-2.089-.027-2.903 1.099-.529.732-.963 1.546-1.18 3.35a11.197 11.197 0 0 0-.095 1.465c-.217 1.289-1.14 2.781-1.913 2.781-.447 0-.868-.868-.868-2.713 0-2.469.15-5.969.176-6.308 0 0 .964-.013 1.154-.013.488 0 .922 0 1.56-.027.325-.014.637-1.167.298-1.316-.15-.068-1.22-.122-1.641-.136a74.404 74.404 0 0 1-1.343-.081s.095-2.334.108-2.578c.014-.203-.244-.312-.393-.38-.367-.162-.706-.23-1.1-.312-.542-.108-.786 0-.84.462-.068.691-.109 2.726-.109 2.726-.393 0-1.75-.081-2.157-.081-.366 0-.773 1.587-.257 1.614.583.027 1.614.04 2.292.068 0 0-.027 3.568-.027 4.666v.34c-.38 1.953-1.696 2.998-1.696 2.998.285-1.29-.298-2.252-1.329-3.08-.38-.298-1.14-.868-1.98-1.506 0 0 .488-.488.922-1.451.312-.692.326-1.479-.434-1.655-1.248-.285-2.28.624-2.591 1.614-.244.76-.109 1.316.353 1.913.04.04.067.081.108.136-.285.542-.665 1.275-1.004 1.845-.909 1.573-1.6 2.821-2.116 2.821-.42 0-.407-1.261-.407-2.455 0-1.018.082-2.55.136-4.151.013-.53-.244-.828-.678-1.099-.272-.163-.842-.488-1.167-.488-.502 0-1.926.067-3.27 3.974l-.501 1.384.027-4.694c0-.108-.054-.217-.19-.285-.23-.122-.841-.38-1.37-.38-.258 0-.38.123-.38.353l-.04 7.353c0 .556.013 1.207.067 1.492.054.285.15.515.258.651a.74.74 0 0 0 .448.285c.19.04 1.261.176 1.329-.23.068-.489.068-1.018.638-2.999.881-3.079 2.02-4.585 2.55-5.114.095-.095.203-.095.19.055-.027.678-.109 2.36-.163 3.798-.15 3.839.556 4.544 1.546 4.544.76 0 1.845-.76 2.998-2.672.72-1.194 1.411-2.374 1.913-3.215.353.325.746.678 1.14 1.044.908.869 1.207 1.683 1.017 2.47-.15.596-.719 1.207-1.736.61-.299-.177-.421-.312-.72-.502-.162-.109-.406-.136-.556-.027-.38.285-.596.65-.719 1.098-.122.435.326.679.774.882.393.177 1.234.34 1.777.353 2.102.068 3.784-1.017 4.951-3.812.204 2.415 1.099 3.785 2.659 3.785 1.03 0 2.075-1.343 2.537-2.659.135.543.325 1.004.57 1.397 1.193 1.9 3.513 1.492 4.68-.122.366-.502.42-.678.42-.678.176 1.52 1.397 2.048 2.089 2.048.787 0 1.587-.366 2.157-1.641.068.135.136.271.217.393 1.194 1.9 3.513 1.492 4.68-.122.054-.081.108-.15.15-.203l.04 1.003s-.665.61-1.072.977c-1.79 1.642-3.16 2.89-3.269 4.355-.122 1.858 1.37 2.55 2.51 2.631 1.207.095 2.238-.57 2.875-1.505.557-.828.923-2.591.896-4.341a524.28 524.28 0 0 1-.041-2.55 19.432 19.432 0 0 0 1.994-2.74c.72-1.181 1.479-2.768 1.872-4.003 0 0 .665 0 1.37-.04.23-.014.299.027.244.203-.054.204-.895 3.46-.122 5.63.53 1.492 1.723 1.967 2.429 1.967.827 0 1.614-.624 2.034-1.547.055.109.109.204.163.299 1.194 1.899 3.5 1.478 4.68-.122.271-.367.42-.679.42-.679.258 1.574 1.48 2.062 2.171 2.062.733 0 1.424-.298 1.98-1.627.028.583.055 1.058.123 1.207.04.095.244.203.393.258.665.244 1.343.135 1.6.081.177-.04.313-.176.326-.543.055-.95.014-2.536.312-3.73.489-1.98.936-2.754 1.14-3.134.122-.217.258-.244.258-.027.013.461.027 1.804.217 3.609.135 1.329.325 2.116.46 2.36.408.705.896.746 1.303.746.258 0 .8-.068.746-.529-.027-.217.014-1.587.489-3.54.312-1.276.827-2.429 1.017-2.863.068-.15.095-.027.095-.013-.04.881-.122 3.757.23 5.33.489 2.13 1.9 2.375 2.388 2.375 1.045 0 1.9-.8 2.184-2.89.095-.583-.013-.963-.325-.963zm-43.83-1.302c-.054 1.112-.271 2.035-.624 2.713-.624 1.22-1.872 1.6-2.415-.15-.393-1.274-.257-2.997-.095-3.933.245-1.384.855-2.374 1.805-2.28.976.096 1.465 1.344 1.329 3.65zm9.564.027c-.055 1.044-.326 2.103-.624 2.686-.61 1.22-1.886 1.614-2.415-.15-.366-1.207-.271-2.767-.095-3.757.23-1.275.8-2.455 1.804-2.455.99 0 1.479 1.071 1.33 3.676zm.257 7.135c-.013 1.913-.312 3.582-.963 4.07-.909.692-2.143.176-1.885-1.221.23-1.234 1.288-2.496 2.848-4.029v1.18zm16.51-7.135c-.055 1.153-.313 2.048-.625 2.686-.61 1.22-1.885 1.6-2.414-.15-.299-.962-.312-2.563-.095-3.906.217-1.37.814-2.401 1.804-2.306.977.081 1.438 1.343 1.33 3.676z"/></g></g><g transform="translate(31 81.037)"><mask id="f" fill="#fff"><use xlink:href="#e"/></mask><use fill="#FFF" xlink:href="#e"/><path d="M53.542 24.397s1.253.745 2.2.711c.001 0 1.085.102 2.507-.474 0 0-2.201 2.743-2.608 3.86 0 0-.304-3.826-3.318-4.198 0 0-4.166-1.152-9.855 4.91 0 0-5.114 5.08-5.724 11.041 0 0-.508 5.046 3.285 5.418 0 0 4.2.813 9.11-4.03.134-.29.301-.6.508-.93 0 0 3.073-5.055 7.747-5.944 0 0 3.53-.807 3.402 2.495l1.144-2.064h2.21l-4.724 8.027-.015.03c-.107.226-.742 1.655.193 2.052 0 0 2.286 1.27 7.747-6.502 0 0 1.32-1.905 2.311-3.607h2.21s-.422.696-1.052 1.744c.677-.614 1.932-1.556 3.285-1.562.092 0 .184.005.276.014.009.001.327.038.653.247.259.162.456.407.56.694l-.054-.125.005.005s.435.808.13 1.649a1.672 1.672 0 0 1-.035.1c1.55-.853 3.749-3.572 4.027-3.922l.01-.015c.808-1.286 2.418-3.84 2.418-3.84l2.188-.005-2.648 4.694h2.47l-.248.307-2.481-.001-.01.013-3.587 6.169-1.09 1.843s-.754 1.291-.033 1.76c0 0 .687.554 2.28-.352 0 0 4.188-2.222 8.482-9.404h2.028l-3.822 6.622-.604 1.073s-1.09 1.777-.084 2.263c0 0 .788.369 2.13-.738 0 0 1.851-1.602 3.825-3.96.13-.235.22-.37.22-.37 3.26-4.792 7.366-5.203 7.366-5.203s2.31-.253 2.547 1.424c0 0 .52 2.054-3.45 4.162 0 0-2.263 1.208-4.792 1.15 0 0-1.479 3.122.903 3.642 0 0 1.725.657 4.93-1.615 0 0 4.983-3.095 8.269-8.544h2.382l-1.607 2.648c3.206-2.53 4.374-2.67 4.477-2.677.82-.175 1.41.358 1.41.358.858.847.21 1.878.21 1.878a1.225 1.225 0 0 1-1.067.684c-.8.011-1.193-.568-1.193-1.224a1.189 1.189 0 0 1 1.336-1.162c-.525-.607-1.89.168-1.89.168-2.388 1.137-3.854 3.014-4.445 3.895a809.967 809.967 0 0 0-3.748 6.248h-2.3l4.668-7.82c-6.258 7.397-10.905 8.025-12.144 8.05h-.209a4.11 4.11 0 0 1-.327-.017c-2.267-.128-2.448-2.376-2.448-2.376-.052-.862.193-1.725.468-2.397-.367.387-1.156 1.215-1.95 2.015l-.31.31c-.41.408-.807.792-1.132 1.085 0 0-1.656 1.624-3.604 1.475 0 0-1.626-.05-1.274-2.028 0 0 .407-1.695 1.681-3.656-1.027 1.242-2.858 2.819-3.328 3.217l-.083.07-.03.025c-2.422 2.209-4.173 2.214-4.36 2.208h-.017c-3.236 0-1.572-2.927-1.572-2.927l3.628-6.408 1.1-1.96c-2.779 3.496-4.152 3.86-4.445 3.898l-.048.007c-.093.011-.154.007-.154.007l-.024.002c-.13 0-.255-.02-.372-.06a.957.957 0 0 1-.562-.37 1.543 1.543 0 0 1-.163-.298v-.001a1.189 1.189 0 0 1 1.888-1.346 1.273 1.273 0 0 0-.39-.817 1.169 1.169 0 0 0-.832-.304c-.752-.002-1.496.392-2.114.783a8.097 8.097 0 0 0-2.018 2.053l-.284.473-.105.18.024-.044a779.47 779.47 0 0 0-1.288 2.157l-.37.624c-1.044 1.76-2.01 3.412-2.478 4.276h-2.59L65.7 41.44s-1.677 2.184-3.963 3.733c0 0-2.59 1.677-4.013.762 0 0-1.245-.889-.965-2.21 0 0-4.343 3.506-6.705 2.16 0 0-1.993-.979-1.175-3.578-.814.812-4.191 3.865-8.917 3.865 0 0-6.062.237-5.927-4.842l-.002-.049v-.19c.02-1.284.532-7.525 8.232-13.444 0 0 .083-.069.24-.188l.151-.114c1.434-1.066 6.54-4.503 10.886-2.949zm5.876 10.736c-1.27-.49-2.743.356-2.743.356-3.421 1.727-5.3 5.79-5.3 5.79-1.423 2.812-.305 3.828-.305 3.828 1.54 1.303 4.368-.864 4.368-.864 2.947-2.269 4.487-5.588 4.488-5.588 1.422-2.963-.508-3.522-.508-3.522zm39.517.19c-.763-.466-2.19.736-2.19.736-2.602 2.134-3.905 5.417-3.905 5.417 3.874.11 5.954-3.495 5.954-3.495 1.216-2.092.141-2.658.141-2.658zm-8.967-4.554a.988.988 0 1 1 0 1.976.988.988 0 0 1 0-1.976z" fill="#868686" fill-rule="nonzero" mask="url(#f)"/></g><g transform="translate(179.22 81.037)"><mask id="h" fill="#fff"><use xlink:href="#g"/></mask><use fill="#FFF" xlink:href="#g"/><g mask="url(#h)" fill="#969696"><path d="M65.514 47.128c-2.757-1.776-6.5-2.088-12.535-.414-6.435 1.512-8.58 2.482-11.397.536-1.083-.956-1.47-2.495-1.181-4.712.672-3.614 2.488-7.091 5.715-10.949 1.8-2.007 3.47-3.729 5.676-4.42 1.69-.434 1.533.894 1.328 1.084-.216 0-.578.034-.859.217-.227.177-.851.746-.885 1.512-.048 1.173 1.165.929 1.689.285.564-.726 1.398-2.115.742-3.41-.275-.461-.75-.78-1.34-.888-2.02-.116-3.9.847-5.636 1.911-3.797 2.638-6.834 6.292-8.552 10.292-.99 2.414-1.887 5.871-.544 8.685 1.04 1.952 3.196 2.99 5.77 2.773 1.804-.19 3.987-.773 5.455-1.126 1.468-.352 8.981-2.935 11.45 1.56 0 0 .821-1.594 2.873-1.627 1.687-.156 4.12.488 5.892 1.79-.59-.889-2.264-2.197-3.66-3.099zm-11.77-15.085c-1.405-.922-4.229.841-6.491 3.865-2.07 2.712-2.962 5.864-1.99 7.322 1.446 1.715 4.13-.78 5.272-2.115l.148-.157c.776-.833 1.376-1.837 1.956-2.8l.56-.922c.33-.06.726-.156 1.174-.284-.006.02-1.713 2.888-1.538 4.311.054.434.012 2.02 1.561 2.502 2.065.346 3.713-1.254 5.167-2.678l.388-.372-.081.331c-.605 2.102.21 2.543.72 2.706 1.54.447 3.38-1.79 3.385-1.79-.047.705-.187 1.288.556 1.756.701.25 1.411-.132 1.95-.491 1.944-1.37 3.509-3.513 4.773-5.366h-.806c-.01 0-1.99 2.87-3.276 3.495-.002 0-.236.12-.371.025-.167-.143-.101-.439.002-.649.006-.013 4.966-8.615 4.966-8.615h-2.342s-.256.414-.277.441c-.015-.013-.053-.084-.079-.118-1.45-2.007-4.736 1.08-7.21 4.66-.951 1.375-2.164 2.925-3.42 4.044 0 0-1.863 1.707-2.659.48-.29-.515-.201-1.268-.037-1.763.926-2.637 2.523-5.031 4.34-6.475.512-.4 1.07-.516 1.346-.346.264.156.306.542.14.807-.424-.014-.763.115-1.038.4-.543.57-.732 1.118-.559 1.634.838 1.193 2.51-1.166 2.43-2.604-.029-.515-.304-1.003-.714-1.24-.612-.367-1.545-.272-2.148.02-.809.305-2.088 1.37-2.835 2.197-.94 1.037-2.552 2.19-3.056 2.06.165-.44 1.526-3.227.094-4.27zm11.29 4.122c.455-.63 1.781-2.318 2.104-2.603 1.087-.956 1.522-.536 1.56-.237a214.657 214.657 0 0 1-3.338 5.77c.002-.007-.353.535-.353.535-.497.759-.997 1.41-1.814 1.864-.116.034-.308.048-.436-.048A.462.462 0 0 1 62.56 41c.049-.583.642-2.366 2.474-4.834zm-12.738 1.092s-.02.061-.031.081c-.002 0-1.02 1.66-1.02 1.66-.615.821-1.383 1.852-2.342 2.347-.284.095-.677.156-.878-.095-.424-.508-.205-1.213-.028-1.783l.063-.203c.51-1.383 1.319-2.604 2.106-3.736a.103.103 0 0 1 .04-.013l.006.02c.494.949 1.42 1.39 2.113 1.593.004 0 .009.007.009.02 0 .02-.011.048-.038.109zm.964-1.96c-.004.014-.453 1.045-.453 1.045-.065.054-.168.027-.286 0l-.201-.034c-.633-.197-1.11-.617-1.258-1.119-.203-.976.631-1.742.999-2.02.352-.244.9-.373 1.219-.122.196.23.27.529.27.854 0 .44-.136.935-.29 1.397zm29.602 3.146c-.226-.488-.762-.8-1.333-.766-1.855.17-3.67 1.695-4.622 3.885-.5 1.125-.773 2.054-.952 3.532.577-.664 1.754-1.756 3.089-2.352 0 0 .182-1.417 1.108-2.678.35-.523 1.052-1.363 1.84-1.14.688.231.446 2.136-.469 3.98-.677 1.356-1.712 2.712-2.76 3.648-.927.786-2.297 1.735-3.497 1.003-.755-.447-1.14-1.383-1.059-2.59.361-3.423 1.92-6.339 4.15-9.66 2.3-3.085 4.834-6.251 8.25-7.94.696-.352 1.34-.434 1.898-.217 0 0-3.205 1.763-4.733 5.024-.389.827-.93 1.946-.385 2.936.284.515.79.556 1.196.528 1.873-.434 3.083-2.183 4.072-3.783.573-1.213 1.083-2.42 1.083-3.762 0-.163-.009-.38-.022-.543.894-.474 2.73.366 2.73.366 1.434.475 4.487 2.814 5.517 3.261a32.406 32.406 0 0 1 1.793-1.904l-.673-.414c-1.078-.658-2.217-1.282-3.337-1.899-2.546-1.39-4.618-.901-5.673-.521-.414.149-.793.277-.793.277-.783-.854-2.066-.773-3.012-.542-3.4.976-6.559 3.356-9.944 7.485-2.49 3.234-4.033 6.027-4.856 8.786-.634 1.858-.827 4.59.721 6.21 1.317 1.377 3.062 1.078 4.294.584 2.67-1.316 5.07-4.15 6.267-7.41.289-.97.609-2.34.112-3.384zm6.14-10.217c-.353 4.055-3.504 6.435-4.284 6.624-.473.095-1.279-.115-.56-1.817 1.06-2.291 2.87-4.237 4.812-5.234.048.17.046.278.033.427zm18.695.515c-1.695.963-3.453 1.587-5.58 1.37-.59.665-1.163 1.35-1.692 2.054 2.985.76 6.15-.929 7.916-2.535 1.867-1.62 2.825-3.661 2.825-3.661s-1.4 1.6-3.47 2.772zM75.66 32.118h-2.224l-1.254 2.038h2.223l1.255-2.038zm26.448 15.199c-.239.162-.575.037-.45-.335.314-.95 1.557-2.884 1.557-2.884l3.465-6.144h-2.373c-.113.185-.354.61-.354.61-.11-.182-.438-.589-.573-.677-.58-.366-1.43-.193-2.017.14-2.552 1.49-4.413 4.438-5.881 6.737 0 0-1.545 2.554-2.403 2.744-.67.055-.6-.847-.572-1.058.26-1.518.86-2.962 1.466-4.27a32.813 32.813 0 0 0 3.917-3.2c2.773-2.652 5.111-5.655 5.453-6.327 0 0-.37.075-.807.089-2.133 2.976-6.5 7.301-7.823 7.946.586-1.411 4.375-8.143 7.599-11.363l.507-.489c.785-.766 1.598-1.552 2.231-1.681.067-.007.153 0 .227.156.029.597-.193 1.037-.448 1.539l-.357.732s.506-.095.838-.203c.385-.725.812-1.54.655-2.508a.72.72 0 0 0-.574-.604c-.962-.183-2.01.529-2.853 1.105l-.034.02c-4.336 3.397-7.997 8.292-11.198 14.977-.232.176-1.128.386-1.28.284.316-.65.714-1.525.913-2.474a6.57 6.57 0 0 0 .067-.82c0-.584-.14-1.133-.663-1.512-.613-.305-1.37-.163-1.881.067-2.288.95-3.998 3.295-5.232 5.227-.664 1.228-1.326 2.542-1.509 4.048-.129 1.18.134 1.939.805 2.318.689.353 1.557-.014 1.898-.19 2.318-1.22 3.938-3.667 5.214-5.905.05-.006.748-.027 1.275-.162l.022.007c-.03.101-.303.915-.303.915-.809 2.372-1.183 3.986-.419 4.942 1.092 1.35 2.9-.047 4.371-1.892-.316 2.21.83 2.556 1.703 2.387 1.003-.27 2.12-1.342 2.64-1.891-.167.644-.122 1.796.79 1.911.626.116 1.094-.224 1.635-.516 1.943-1.057 4.268-4.582 4.872-5.601h-.792c-.858 1.297-1.95 2.998-3.324 3.805zm-17.436-.236a1.068 1.068 0 0 1-.168-.6c-.024-1.33 1.407-3.71 2.416-5.007h.002c.423.926 1.381 1.522 1.96 1.773-.719 1.6-3.182 5.027-4.21 3.834zm4.615-4.55c-.068.048-1.276-.359-1.51-1.477-.198-.963.465-1.716 1.107-2.095.275-.217.69-.292.994-.184.283.19.36.53.36.895 0 .225-.03.455-.057.665l-.005.047a9.031 9.031 0 0 1-.889 2.15zm9.69 4.123-.23.203c-.325.291-.66.603-1.066.447-.111-.04-.19-.19-.209-.305-.018-.834.357-1.607.721-2.36l.094-.196c1.047-1.749 2.265-3.81 4.053-5.24.302-.218.629-.4.974-.258.08.075.172.203.172.332 0 .041-.037.15-.058.183-.5.807-.975 1.655-1.437 2.468-.904 1.607-1.842 3.268-3.014 4.726z"/></g></g><g transform="translate(30.22 6)"><mask id="j" fill="#fff"><use xlink:href="#i"/></mask><use fill="#FFF" xlink:href="#i"/><g mask="url(#j)" fill="#969696" fill-rule="nonzero"><path d="M112.727 34.283c.25.272.357.662.177 1.067-.283.624-1.032.497-1.663.611-.228.038-.468.327-.542.57-.427 1.428.089 2.945-.353 4.354-.44 1.38-1.19 2.533-2.455 3.425-1.152.82-2.564.989-3.9.571-.418-.133-.748-.396-1.036-.738-1.764-2.103 1.077-3.369-.529-2.444-1.318.756-3.765 2.042-4.601 3.09-1.448 1.846-2.587 3.727-4.288 5.177-1.228 1.07-2.51 1.982-4.259 1.58a1.45 1.45 0 0 1-1.111-1.324c-.083-2.708 2.195-4.103 4.475-5.271l.441-.224c1.172-.59 2.304-1.138 3.072-1.794-.237-.114-1.377.744-2.358.697-.488-.02-1.244-.105-1.63-.713-.66-1.057-.52-2.165 0-3.121 1.53-2.837 4.541-5.08 7.926-5.253.59-.032.78 1.019.263 1.231-1.735.735-4.873 1.587-4.972 4.275-.019.2.412.703 1.032.437 1.875-.823 2.356-3.062 3.974-4.34.914-.713 1.846.319 1.501 1.25-.44 1.18-1.083 2.229-1.767 3.299-.329.52.354.206.51.11 3.55-2.175 6.038-5.515 9.959-6.99.7-.263 1.516-.184 2.134.468zm-23.511.55c.177.04.32.18.462.298.18.126.222.525.145.503l-.076.007-.098.012c-.97.155-3.775 2.192-4.726 3.755-.208.345-.335.785-.17 1.16.174.373.561.515.975.363 2.014-.728 2.372-3.064 3.594-4.575.17-.45 2.132-2.01 2.768-.915.75 1.308-1.776 4.477-3.06 6.624-.103.17-.119.418.132.317.639-.24 1.304-.97 1.653-1.235.918.456-1.343 3.705-3.98 4.391-.748.19-2.778 6.039-8.474 5.906-1.178-.025-1.396-1.593-.842-2.619 1.472-2.726 5.383-4.214 7.27-4.784.032-.006.684-.602.788-.912.092-.3-.06-.18-.156-.143-1.297.586-2.497.855-3.475.146-1.992-1.428-.038-4.41 1.61-5.632-1.01.1-1.808.063-2.503-.359-.2-.129-.498.53-.558 1.023-.282 2.587-2.16 4.756-4.246 6.013-.912.55-1.896.643-2.907.307-1.023-.339-1.669-1.307-1.763-2.27-.359-3.597 2.545-6.836 6.085-7.409.596-.098 1.036.133 1.311.772l-.139.137c-1.653.547-2.865 2.222-3.404 3.45-.263.596-.75 2.303.551 2.043 2.023-.399 3.037-3.255 2.688-4.648l.029-.447c.54-.367 1.127-.864 1.238-.864h.035c.728-.05 2.176.595 3.213.684 2.61.235 3.931-1.558 6.03-1.1zm4.317 11.52c-.601.17-3.03 1.817-2.72 2.777l.021.017.098.072a.52.52 0 0 0 .138.078c.398-.037.677-.265.998-.503.974-.731 1.677-1.837 2.152-2.612.127-.21-.192.031-.687.17zm-10.104-.05c-.595.056-2.707 1.272-3.365 2.228-.22.314-.093.608.23.662.336.023.681-.118.953-.313.672-.472 2.73-2.638 2.182-2.578zM57.274 24.054c.801-.199 1.472.229 1.798.9.263.548.133 1.237-.149 1.741-1.671 3.023-4.294 4.969-7.027 6.76l-.747.486-.375.241-.749.482a86.08 86.08 0 0 0-1.481.976c1.45 3.388-1.395 6.47-.848 9.382.265 1.412 1.769.39 1.003 1.207-1.013 1.092-3.49 1.092-4.309-.336-1.12-1.97-.348-3.976.46-5.946l.2-.492c.267-.654.52-1.304.692-1.946.162-.57.13-1.182-.206-1.695l.611-1.086c4.015-2.627 6.72-6.396 9.598-9.68.385-.443.915-.842 1.53-.994zm-7.645 3.312c.221.051.382.409.236.655-1.39 2.214-2.598 4.107-3.88 6.34-.013.026-.081.143-.168.294l-.14.245c-.17.3-.341.617-.32.652-1.999 2.808-3.208 6.472-6.121 8.897-.671.56-1.58.668-2.375.345-.823-.345-1.028-1.368-.727-2.122.749-1.909 2.207-3.26 3.7-4.568l.64-.56c1.596-1.402 3.121-2.84 3.746-4.953.022-.105-.138-.231-.357-.162-2.337.735-2.828 3.987-5.237 4.706-.577.167-1.26.082-1.647-.453-.576-.824-.152-1.852.396-2.498 1.163-1.385 2.68-2.17 4.248-2.953l.674-.337c.112-.056.225-.113.337-.171.422-.212.922-.481 1.34-.7 2.006-1.039 3.47-2.632 5.655-2.657zm27.63-.408c.21 2.258-1.002 3.53-2.067 5.341-1.893 3.199-4.334 5.127-6.69 7.559-.43.452-.32 1.605.934 1.744.535.058 1.045-.24 1.463-.275-.045 2.014-2.03 3.654-3.93 3.194-.894-.215-1.745-1.038-1.723-1.782.038-1.127-.177-.51-.314-.386-1.861 1.612-5.597 3.068-7.2.342-1.232.288-2.796 1.836-4.515 1.675-1.14-.111-2.27-.387-2.881-1.206-.222-.302-1.008.36-1.533.082-.717-.384-.507-.785-.19-1.137.348-.403 1.359-.42 1.419-1.162.277-2.974 2.274-5.798 5.23-6.526 1.18-.291 2.074.684 1.982 1.714-.216 2.4-1.435 3.837-3.702 5.53-.216.174.038.336.193.34 1.565.025 3.568-1.717 3.73-2.195.27-.753.504-2.023.731-2.659.216-.598.542-1.283.802-1.837 1.795-3.663 5.782-9.141 9.046-7.7.735.322.798.927.538 1.928-1.222 4.623-5.085 8.382-7.783 10.408-1.764 1.336 2.282 1.158 3.369.285.29-.234.928-.529 1.013-.982.813-4.344 5.465-12.716 10.921-13.369.554-.066 1.07.207 1.156 1.074zm30.798 10.54c-.868.33-2.4 1.621-3.423 2.61-1.222 1.184-.19.255.438.43.579.168 1.392.99.997 1.412-.146.155.285.37.547.177 1.232-.905 1.887-3.07 1.441-4.629zM54.59 36.481c-.582.05-2.369 2.133-2.175 3.359.035.203.731-.08.801-.127.345-.267.708-.643.912-.93.421-.58.827-1.251.852-1.89.01-.375-.014-.438-.39-.412zm10.75-5.786c-1.197.042-2.908 2.309-3.823 4.012-.322.596-.902 2.115-.81 2.463.288.216 2.143-1.916 2.945-2.995.93-1.25 1.678-2.245 2.049-3.144.025-.066-.118-.348-.362-.336zm8.344-1.083c-.799-.022-3.747 3.166-4.795 6.352-.07.18-.138.608-.07.576.507-.184 1.935-1.65 2.708-2.698 1.267-1.713 2.856-4.148 2.157-4.23zm31.865.012c.957.058 1.429.146 1.872 1.267.212.51.123.795.025 1.285-.177.963-2.324 3.157-3.32 2.53-.2-.137.207-.633.422-.997.157-.27.115-.589-.027-.719-.978-.877-.877-1.608-.627-2.283.209-.547 1.113-1.108 1.655-1.083z"/></g></g></g></g></svg>