<svg width="360" height="163" xmlns="http://www.w3.org/2000/svg" xmlns:xlink="http://www.w3.org/1999/xlink"><defs><path d="M0 0h360v159a4 4 0 0 1-4 4H4a4 4 0 0 1-4-4V0z" id="a"/><path id="c" d="M0 0h148.221v75.963H0z"/><path id="e" d="M0 0h148.221v75.963H0z"/><path id="g" d="M0 0h148.221v75.963H0z"/><path id="i" d="M0 0h148.221v75.963H0z"/></defs><g fill="none" fill-rule="evenodd"><mask id="b" fill="#fff"><use xlink:href="#a"/></mask><use fill="#FFF" xlink:href="#a"/><g mask="url(#b)"><g transform="translate(31 6)"><mask id="d" fill="#fff"><use xlink:href="#c"/></mask><use fill="#FFF" xlink:href="#c"/><g mask="url(#d)" fill-rule="nonzero"><path d="M103.25 44.138V41.72h-6.972v-2.788h5.577v-2.417h-5.577v-2.23h6.414v-2.51h-8.923v12.362h9.48zm3.532-12.362v12.362h9.016V41.72h-6.507v-9.945h-2.51zm-58.93 0v12.362h2.51v-5.205h5.856v5.205h2.417V31.776h-2.417v4.74h-5.856v-4.74h-2.51zm25.004 12.362h2.695l-5.67-12.362h-3.253l-5.577 12.362h2.603l1.301-2.789h6.6l1.3 2.789zm5.112-12.362v12.362h2.51v-8.923l6.692 8.923h1.952V31.776h-2.51v7.436l-5.577-7.436h-3.067zm-35.506 8.18a3.975 3.975 0 0 1-3.532 2.137c-2.251-.002-4.068-1.818-4.09-4.09a4.044 4.044 0 0 1 4.09-3.996 3.868 3.868 0 0 1 3.532 2.137l2.23-1.208c-1.143-2.042-3.297-3.422-5.762-3.44-3.612.018-6.532 2.937-6.507 6.507-.025 3.633 2.894 6.553 6.507 6.507 2.472.046 4.63-1.342 5.762-3.346l-2.23-1.209z" fill="#969696"/><path fill="#FFF" d="M70.532 38.84H66.07l2.232-4.926z"/></g></g><g transform="translate(179.22 6)"><mask id="f" fill="#fff"><use xlink:href="#e"/></mask><use fill="#FFF" xlink:href="#e"/><g mask="url(#f)" fill="#A2A2A2" fill-rule="nonzero"><path d="M111.214 27.16v22.002H88.269V27.16h22.945zm-25.502 0v22.002H62.768V27.16h22.944zm-25.577 0v22.002H37.191V27.16h22.944zm13.655 3.27h-3.987v15.196h5.153c1.166 0 2.106-.188 2.896-.564.79-.414 1.354-.903 1.768-1.505.376-.602.564-1.316.601-2.069-.037-.977-.338-1.843-.977-2.52-.64-.752-1.543-1.203-2.671-1.391 1.58-.64 2.332-1.693 2.332-3.197 0-.79-.188-1.467-.564-2.069-.339-.564-.865-1.016-1.58-1.392-.714-.338-1.692-.489-2.971-.489zm-25.614 0h-3.987v15.195h5.153c1.166 0 2.144-.188 2.934-.564.752-.376 1.316-.866 1.73-1.505.414-.564.602-1.279.602-2.068 0-.978-.339-1.843-.978-2.52-.64-.715-1.505-1.166-2.671-1.354 1.58-.677 2.332-1.73 2.37-3.235-.038-.79-.226-1.466-.602-2.03-.339-.602-.903-1.091-1.618-1.43-.714-.338-1.655-.489-2.933-.489zm52.469-.564c-2.294 0-4.25.79-5.83 2.294-1.618 1.505-2.408 3.348-2.408 5.605 0 1.354.377 2.633 1.054 3.911a8.444 8.444 0 0 0 2.82 2.822c1.204.677 2.634 1.015 4.364 1.015 2.03 0 3.874-.451 5.53-1.354v-2.37c-1.769 1.129-3.574 1.693-5.417 1.693-1.73 0-3.16-.527-4.363-1.58-1.129-1.129-1.73-2.52-1.73-4.137 0-1.693.601-3.047 1.767-4.138 1.128-1.128 2.596-1.692 4.363-1.692 1.655 0 3.424.526 5.191 1.542v-2.332c-1.919-.865-3.686-1.279-5.341-1.279zm-26.63 9.027c1.091-.037 1.919.075 2.407.263.527.188.903.489 1.129.903.263.376.376.79.414 1.241 0 .452-.15.865-.376 1.242-.226.338-.565.639-1.054.902-.526.15-1.354.226-2.369.226h-2.181v-4.777zm-25.614 0c1.053 0 1.88.075 2.407.3.469.142.87.45 1.128.866.226.301.377.714.414 1.241a3.12 3.12 0 0 1-.376 1.316 2.41 2.41 0 0 1-1.015.828c-.49.15-1.317.226-2.445.226H46.37v-4.777zm25.464-6.544c1.843 0 2.783.752 2.783 2.181 0 .715-.263 1.28-.752 1.768-.489.414-1.317.64-2.482.64h-1.43v-4.59zm-25.614 0c1.843 0 2.783.752 2.783 2.219 0 .677-.263 1.279-.752 1.73-.49.414-1.317.64-2.445.64H46.37v-4.59z"/></g></g><g transform="translate(31 81.037)"><mask id="h" fill="#fff"><use xlink:href="#g"/></mask><use fill="#FFF" xlink:href="#g"/><g mask="url(#h)" fill="#969696" fill-rule="nonzero"><path d="M69.824 32.804a7.572 7.572 0 0 1 7.57 7.572 7.57 7.57 0 1 1-7.569-7.572zM83.168 28v6.327c1.132-.965 2.422-1.431 3.907-1.431 4.125 0 7.208 3.494 7.208 7.506 0 4.017-3.11 7.454-7.208 7.454-1.54 0-2.861-.442-3.907-1.598v1.268H79.1V28h4.067zm-35.839 0 3.578 11.989h.052L54.592 28h6.154v19.526h-4.07V33.717h-.054l-3.905 13.81h-3.74l-3.853-13.81h-.054v13.81H41V28h6.33zm52.729 5.22v14.306h-4.07V33.22h4.07zm6.327-5.22v19.526h-4.07V28h4.07zm-36.566 8.908a3.468 3.468 0 0 0-3.468 3.47 3.468 3.468 0 1 0 6.936 0 3.468 3.468 0 0 0-3.468-3.47zm16.867 0a3.468 3.468 0 0 0-3.468 3.47 3.469 3.469 0 1 0 6.939 0 3.472 3.472 0 0 0-3.471-3.47zM100.058 28v3.85h-4.07V28h4.07z"/></g></g><g transform="translate(179.22 81.037)"><mask id="j" fill="#fff"><use xlink:href="#i"/></mask><use fill="#FFF" xlink:href="#i"/><g mask="url(#j)" fill="#969696" fill-rule="nonzero"><path d="M91.215 32.523c.51.222.927.6 1.332.98.013-.353 0-.72.013-1.085.875.013 1.75 0 2.638.013v11.52c-.013 1.737-.457 3.58-1.71 4.846-1.372 1.398-3.475 1.829-5.369 1.541-2.024-.3-3.788-1.776-4.571-3.644.783-.379 1.606-.679 2.416-1.032.457 1.071 1.385 1.986 2.547 2.195 1.162.209 2.508-.079 3.265-1.045.81-.993.81-2.351.771-3.566-.6.588-1.293 1.11-2.129 1.306-1.816.51-3.814-.117-5.212-1.345-1.41-1.228-2.246-3.122-2.168-5.003.04-2.129 1.241-4.18 3.057-5.29 1.502-.94 3.5-1.201 5.12-.391zm-25.692.705a6.135 6.135 0 0 1 2.469 3.918c.352 1.816-.092 3.801-1.267 5.238-1.267 1.606-3.344 2.469-5.369 2.338-1.854-.105-3.657-1.032-4.754-2.547-1.24-1.672-1.541-3.97-.862-5.93.68-2.103 2.6-3.71 4.767-4.088 1.724-.327 3.592.039 5.016 1.07zm-20.01-8.216c2.403.053 4.767 1.02 6.465 2.73-.627.64-1.267 1.254-1.88 1.894-.954-.862-2.103-1.528-3.357-1.763-1.855-.392-3.853-.04-5.408 1.019-1.698 1.11-2.847 2.99-3.095 5.002-.275 1.985.287 4.075 1.58 5.616a6.99 6.99 0 0 0 5.094 2.508c1.829.105 3.736-.457 5.068-1.737 1.045-.901 1.528-2.273 1.685-3.605l-4.337.006c-.722 0-1.445-.002-2.168-.006v-2.69h9.13c.47 2.886-.209 6.138-2.403 8.202-1.463 1.463-3.488 2.325-5.551 2.495-1.999.196-4.062-.183-5.839-1.15-2.129-1.136-3.827-3.056-4.663-5.316a9.63 9.63 0 0 1-.065-6.517 9.944 9.944 0 0 1 3.592-4.768c1.58-1.162 3.5-1.802 5.46-1.92h.692zm34.443 8.7c2.403 2.154 2.664 6.19.614 8.672-1.241 1.567-3.253 2.43-5.238 2.338-1.894-.052-3.762-.993-4.885-2.547-1.267-1.711-1.541-4.062-.823-6.06.719-2.038 2.6-3.592 4.728-3.958 1.973-.379 4.128.17 5.604 1.554zm29.388-1.32c1.907.718 3.122 2.534 3.735 4.402-2.834 1.175-5.655 2.338-8.49 3.513.392.745.993 1.424 1.803 1.698 1.136.405 2.495.261 3.448-.496.379-.288.68-.666.967-1.032.718.483 1.437.953 2.155 1.437-1.019 1.528-2.73 2.599-4.572 2.769-2.037.248-4.205-.536-5.525-2.13-2.168-2.507-1.959-6.713.484-8.972 1.567-1.463 3.983-1.96 5.995-1.189zm-9.352-6.7v18.651c-.927 0-1.868.013-2.795-.013.013-6.204 0-12.421 0-18.639h2.795zm-11.194 8.894a3.436 3.436 0 0 0-2.05 1.189c-1.228 1.463-1.228 3.8.013 5.237a3.417 3.417 0 0 0 2.939 1.202c1.031-.104 1.985-.757 2.494-1.659.862-1.528.719-3.605-.444-4.937a3.214 3.214 0 0 0-2.952-1.032zm-14.054.053a3.572 3.572 0 0 0-1.828 1.149c-1.254 1.489-1.202 3.918.143 5.342.797.849 2.038 1.267 3.187 1.032a3.583 3.583 0 0 0 2.43-1.79c.849-1.567.6-3.709-.732-4.924a3.501 3.501 0 0 0-3.2-.81zm-13.845 0a3.512 3.512 0 0 0-1.828 1.162c-1.267 1.515-1.189 3.984.209 5.394.796.81 1.998 1.189 3.108.967 1.032-.183 1.933-.875 2.43-1.79.862-1.554.614-3.696-.706-4.91a3.524 3.524 0 0 0-3.213-.823zm43.847 1.358c-.444.64-.627 1.424-.614 2.194a976.687 976.687 0 0 0 5.682-2.364c-.313-.731-1.07-1.175-1.842-1.293-1.24-.222-2.533.444-3.226 1.463z"/></g></g></g></g></svg>