<svg width="360" height="163" xmlns="http://www.w3.org/2000/svg" xmlns:xlink="http://www.w3.org/1999/xlink"><defs><path d="M0 0h360v159a4 4 0 0 1-4 4H4a4 4 0 0 1-4-4V0z" id="a"/><path id="c" d="M0 0h148.221v75.963H0z"/><path id="e" d="M0 0h148.221v75.963H0z"/><path id="g" d="M0 0h148.221v75.963H0z"/><path id="i" d="M0 0h148.221v75.963H0z"/></defs><g fill="none" fill-rule="evenodd"><mask id="b" fill="#fff"><use xlink:href="#a"/></mask><use fill="#FFF" xlink:href="#a"/><g mask="url(#b)"><g transform="translate(31 6)"><mask id="d" fill="#fff"><use xlink:href="#c"/></mask><use fill="#FFF" xlink:href="#c"/><g mask="url(#d)" fill="#A2A2A2" fill-rule="nonzero"><path d="M79.395 28.434c2.851-.827 7.439-.581 12.081 1.73 1.108.554 1.504 1.07 1.429 2.277v.028c-.012.56-.21 9.175-1.962 14.26-.339.985-.27 1.187-1.562 1.358-.92.123-3.57.266-3.57.266-1.233-.01-1.377-.471-1.192-1.801.046-.35.189-1.728.254-2.365l.02-.2.013-.125c.154-2.318-.988-2.29-1.843-.882-1.644 2.71-3.011 4.413-3.699 5.035-1.097.991-1.466 1.094-2.936.472-1.22-.52-2.871-2.304-2.871-2.304-.742-.848-.158-1.132.748-1.819 1.497-1.138 2.349-2.718 2.807-3.517.369-.647.553-1.05.26-1.241-4.885-3.17-3.251-9.64 2.023-11.172zm-16.337 3.822c.493-.003 1.258.003 2.055.041.77.041.84.256.608.985-1.158 3.63-6.108 11.93-8.04 12.723-.273.113-.328.144-.612.106-1.025-.144-2.304-1.426-2.717-1.9-.185-.21-.578-.695-.26-.951 1.207-.964 2.707-2.43 2.779-3.292a.777.777 0 0 0-.113-.479l-.055-.073-.117-.155a2326.93 2326.93 0 0 1-2.718-3.591l-.238-.316-.104-.139-.174-.232-.16-.214c-.532-.756-.53-.934.062-1.22a32.47 32.47 0 0 1 2.192-.94c.66-.254.762-.076.946.132l2.81 3.535c.202.137.387.1.534-.075.359-.424 1.876-3.166 2.116-3.596.28-.479.742-.349 1.206-.349zm-17.933-.267c.123.24.36 1.494.342 1.819-.017.318.144.786-.4.94-1.692.472-2.133.619-3.258.95-.52.158-.485.373-.471.77.078 2.198.81 5.107 1.33 6.73.218.684.317 1.173-.161 1.354-.667.243-2.52.749-3.019.851-.861.182-.984-.45-1.066-.776-.732-2.926-1.094-5.903-1.166-7.018-.038-.567-.222-1.1-.756-1.083-.55.01-1.162.078-2.355.099-.64.013-.977-.024-1.063-.571-.085-.55-.061-3.036.03-3.422.103-.386.555-.448.914-.451 4.45-.034 5.958-.12 9.971-.78.906-.15.978.301 1.128.588zm63.378 1.149c1.662-.858 4.807-.663 6.663 1.412.506.57-.715 2.246-1.303 1.706-1.162-1.064-2.642-1.238-3.08-.992-.464.257-.868.817 1.214 1.764 1.429.65 2.714 1.405 3.483 2.547.55.81.561 1.702.417 2.383-.211.98-.817 1.808-1.37 2.304-1.371 1.234-3.402 1.19-4.185 1.131-2.83-.205-4.782-1.733-5.39-2.591-.236-.335-.387-.513-.308-.889.174-.824 1.289-2 1.654-1.59.626.701 1.012 1.053 1.771 1.344.69.27 1.63.403 1.97-.065.215-.297.184-.803-.643-1.237-.688-.36-3.58-1.792-3.36-3.843.16-1.521.943-2.598 2.467-3.384zm-4.678.688.087.002c.54.024.862.342.882.869.1 2.28-.294 7.329-3.804 9.336-1.634.933-3.443 1.001-4.834.184-1.255-.735-1.952-2.085-1.87-3.62.191-3.453 1.723-5.695 1.918-5.982.471-.701 1.039-.585 1.422-.445l.54.195c.448.157.957.342 1.19.458.403.202.523.725.283 1.214l-.167.314c-.393.728-1.026 1.867-1.193 3.313-.072.58.212 1.148.65 1.323.488.198 1.233-.106 1.859-.869.954-1.155 1.1-3.035 1.125-5.151l.006-.147c.024-.557.332-.903.841-.944.503-.04.947-.058 1.152-.048zm-36.699.32c1.385-.858 3.87-1.124 6.591.841.54.39-.328 1.945-.988 1.549-1.217-.732-1.945-.838-2.362-.7-.485.16-1.135 1.011.916 1.855 1.265.523 1.986 1.122 2.383 1.716.472.711.612 1.443.537 2.041-.11.872-.578 1.494-1.026 1.966-1.1 1.162-2.871 1.299-3.555 1.268-2.872-.126-4.318-1.552-5.018-2.16-.274-.233-.376-.42-.335-.75.092-.727.717-1.534 1.141-1.301.752.42 1.494 1.254 2.448 1.449.526.106.974.024 1.17-.407.136-.287.03-.673-.722-.998-.626-.27-3.118-1.463-3.077-3.261.03-1.33.633-2.321 1.897-3.108zM44.363 36.84c1.145-1.583 3.138-2.396 5.193-2.116 1.61.219 2.96 1.09 3.804 2.44.619.992.875 2.137.701 3.15-.366 2.095-1.706 3.448-4.099 4.132-2.12.609-5.51-.321-6.358-3.654-.355-1.385-.082-2.786.759-3.952zm4.058.79c-.76-.23-1.576.547-1.816 1.668-.242 1.121.257 2.154.927 2.369.766.25 1.569-.414 1.822-1.61.236-1.125-.26-2.219-.933-2.427zm36.502-6.29c-.253-.834-.64-.332-.807-.13l.02-.026.007-.007-.007.008-.007.007-.013.016-.03.038a27.15 27.15 0 0 0-.996 1.29l-.05.075c-.267.4-.633.377-.667.373-.031-.003-2-.044-2-.044-1.152-.055-.462.741-.462.741a46.69 46.69 0 0 0 1.132 1.45.893.893 0 0 1 .157.844c-.085.24-.342.981-.721 1.87-.393.916.663.5.663.5l1.754-.678c.598-.25.98.171 1.018.202.165.144 1.286 1.09 1.286 1.09.67.571.762.01.765-.194.004-.185.069-1.672.08-1.88.023-.506.214-.63.355-.735l.153-.102.216-.144.27-.179.292-.193.754-.5c.8-.544-.045-.793-.045-.797l-1.808-.632c-.584-.178-.66-.393-.776-.704a52.732 52.732 0 0 1-.466-1.357l-.05-.148a52.095 52.095 0 0 1-.017-.054z"/></g></g><g transform="translate(179.22 6)"><mask id="f" fill="#fff"><use xlink:href="#e"/></mask><use fill="#FFF" xlink:href="#e"/><g mask="url(#f)" fill-rule="nonzero"><path d="M69.07 24.07c2.437 0 3.964.646 5.265 1.683 1.796-1.078 3.854-1.636 6.308-1.636 3.138 0 5.467.729 7.091 2.335 1.895-1.578 4.271-2.296 6.927-2.296 3.514 0 5.825 1.267 7.184 3.155 1.911 2.665 1.571 5.348 1.22 8.183-.29 2.313-1.855 6.601-2.684 8.314-2.232 4.595-5.211 8.126-10.95 8.126-3.066 0-5.588-.98-7.063-2.857-2.16 1.891-4.834 2.883-7.711 2.883-2.22 0-4.179-.64-5.672-1.825-1.65 1.163-3.875 1.81-6.343 1.81-2.06 0-3.913-.564-5.365-1.61C55.673 51.4 53.57 51.93 51.1 51.87c-4.108-.096-6.945-2.701-7.026-6.484-.108-5.026 4.125-14.225 6.12-17.412 1.492-2.452 3.772-3.77 6.562-3.77 3.03 0 4.13.867 4.67 1.968 2.338-1.988 5.438-2.1 7.644-2.1zm.001 2.034c-3.028 0-6.083.41-7.927 3.381l-.761 1.227-.061-1.443c-.046-1.116-.15-1.58-.668-2.132-.573-.605-1.533-.9-2.94-.9-2.065 0-3.616.9-4.747 2.754-1.74 2.776-5.939 11.908-5.845 16.248.06 2.814 1.94 4.539 5.028 4.613 2.546.058 4.57-.596 5.853-1.891l.329-.333.314.344c1.156 1.255 2.912 1.943 4.946 1.943 2.59 0 4.806-.805 6.079-2.21l.347-.383.327.404c1.19 1.462 3.032 2.23 5.323 2.22 2.987-.014 5.778-1.387 7.655-3.767l.492-.624.275.748c1.153 3.144 4.292 3.612 6.059 3.612 6.003 0 8.596-4.117 10.832-10.762.556-1.65 1.185-4.118 1.292-6.1.08-1.493-.122-3.588-1.535-5.078-1.125-1.186-2.843-1.788-5.108-1.788-2.86 0-5.166 1.012-6.852 3.01l-.446.525-.296-.622a3.677 3.677 0 0 0-.675-1.008c-1.153-1.307-3.087-1.968-5.746-1.968-2.436 0-4.638.731-6.198 2.058l-.394.335-.273-.44c-.737-1.2-2.574-1.973-4.679-1.973z" fill="#CACACA"/><path d="M102.753 25.527v-.437h.297c.218 0 .333.076.333.217 0 .112-.072.22-.294.22h-.336zm-7.698 7.398c-.067 1.647-2.48 8.233-3.337 9.686-.371.631-.79 1.151-1.544 1.15-.66 0-.952-.467-.97-1-.049-1.486 2.68-8.936 3.612-10.149.414-.638.877-.741 1.406-.734.774.01.851.568.833 1.047m4.397 2.69c-.548 2.729-1.78 5.958-3.12 8.364-2.184 3.926-4.836 4.476-7.15 4.448-2.313-.028-4.927-.882-4.945-4.454-.015-2.565 1.092-6.185 2.032-8.557 1.636-4.303 3.309-7.81 8.597-7.747 6.167.073 5.068 5.558 4.586 7.945zm-19.58-3.826c-.894 0-1.477.565-1.912 1.175-.955 1.342-3.027 6.721-3.35 8.93-.218 1.515.434 1.822 1.15 1.822 1.146 0 2.43-1.212 2.868-3.213 0 0-2.182-.054-1.58-1.988.583-1.878 1.693-2.283 3.53-2.36 3.622-.147 3.263 2.527 2.974 3.952-.94 4.63-4.235 8.35-8.897 8.35-3.192 0-5.171-1.768-5.171-5.02 0-2.318 1.15-5.958 2.06-8.087 1.941-4.534 3.977-7.708 9.162-7.708 3.11 0 5.565 1.118 5.204 4.032-.263 2.14-1.333 3.396-3.277 3.548-.544.042-2.77-.015-2.032-2.121.257-.735.364-1.312-.73-1.312zm-16.223 8.017a33.299 33.299 0 0 0-.944 3.07c1.058-.263 1.852-.45 3.212-.415 1.55.037 2.542.682 2.542 1.962 0 3.107-3.434 4.02-5.817 4.02-2.616 0-4.913-1.49-4.913-4.35 0-3.355 1.817-8.438 3.523-11.825 2.095-4.16 4.237-4.713 7.923-4.713 1.62 0 3.486.692 3.486 2.22 0 2.122-1.796 2.93-3.578 3.034-.76.042-1.93.085-2.63.035 0 0-.593.905-1.224 2.513 3.3-.464 4.698.285 4.141 2.193-.752 2.576-2.987 2.746-5.721 2.256zm-10.506 2.98c3.227-.56 4.038.608 3.936 1.685-.303 3.234-3.27 3.956-5.846 3.897-1.868-.044-3.548-.899-3.595-3.068-.081-3.794 3.788-12.57 5.611-15.48.84-1.382 1.865-2.063 3.5-2.063 1.548 0 1.933.794 1.91 1.747-.06 2.54-4.168 10.265-5.516 13.283zM94.63 25.744c-3.331 0-5.633 1.322-7.192 3.165a4.111 4.111 0 0 0-.746-1.112c-1.275-1.442-3.327-2.116-6.079-2.116-2.688 0-4.93.84-6.485 2.164-.81-1.314-2.735-2.186-5.058-2.186-3.036 0-6.342.431-8.305 3.592-.046-1.138-.15-1.74-.79-2.419-.778-.821-2.036-1.038-3.262-1.038-2.234 0-3.915.976-5.124 2.963-1.754 2.804-6.009 12.027-5.912 16.492.06 2.887 1.997 4.965 5.461 5.047 2.708.064 4.83-.66 6.181-2.021 1.211 1.314 3.06 2.087 5.272 2.087 2.463 0 4.944-.738 6.409-2.355 1.234 1.513 3.174 2.394 5.67 2.383 3.264-.015 6.129-1.562 8.002-3.935 1.025 2.796 3.63 3.907 6.477 3.907 6.236 0 8.973-4.286 11.254-11.066.515-1.529 1.2-4.077 1.315-6.218.188-3.564-1.32-7.334-7.088-7.334z" fill="#8E8E8E"/></g></g><g transform="translate(31 81.037)"><mask id="h" fill="#fff"><use xlink:href="#g"/></mask><use fill="#FFF" xlink:href="#g"/><g mask="url(#h)"><path d="m77.885 22.035 3.062 4.572-4.391 2.36c2.013.042 3.83.89 5.084 2.434l.43.529.592-3.622h5.172l.138-.807h4.915l1.11 7.037a6.721 6.721 0 0 1 1.5-.807c1.612-.607 3.325-.535 4.702.196l.032.018.084-.743-1.114-.248-.055-4.109 7.393 1.627.552 2.73.597-2.463 6.291 1.526-6.043 18.207-4.636-1.459-.036-1.824-4.45-.623.27-2.395a6.768 6.768 0 0 1-.651.288 6.07 6.07 0 0 1-2.811.37l.355 2.249-6.687-1.18-.343-2.977-.94 1.814-1.54-2.847-.326 2.125-5.895-.93.459-2.807c-.915.546-1.942.947-3.148 1.237-.45.109-.898.18-1.34.216v5.234l-10.935-5.409.007 4.695-5.232.77-.226-2.424a7.036 7.036 0 0 1-2.169 1.46c-1.635.693-3.405.692-4.855-.005-1.342-.645-2.31-1.813-2.726-3.29a5.563 5.563 0 0 1-.158-2.17c-.392.376-.818.734-1.274 1.07l1.586 6.096.347 1.33-1.31.419-2.989.956-1.236.395-.531-1.185-5.521-12.328-.168.082-1.204.588c-.003.002-.685-1.151-.685-1.151l-2.222-3.754-.716-1.21 1.186-.754a21.401 21.401 0 0 1 3.095-1.614c3.034-1.29 6.116-1.752 8.681-1.302 1.046.117 2.045.466 2.883 1.023a6.348 6.348 0 0 1 2.721 3.001c.469 1.081.536 2.295.257 3.526.41-.297.856-.553 1.332-.758 1.608-.681 3.34-.696 4.781-.05l-.187-2.018-1.263.329-.19-3.989 7.421-2.368-.064 3.055 1.662-3.18 4.745 4.208a7.213 7.213 0 0 1 2.246-1.429l-.956-1.166 5.535-6.377zm-31.174 7.623c-2.21-.388-4.967-.023-7.861 1.208-1.031.439-1.998.94-2.884 1.503l2.221 3.754.43-.21c.43-.21.838-.408 1.087-.54l6.137 13.705 2.99-.955-1.845-7.089c3.531-2.18 5.316-5.74 4.248-8.204-.44-1.015-1.199-1.811-2.194-2.37-.72-.48-1.55-.712-2.329-.802zm53.747.898-.071 1.323 1.055.283-.234 2.475c.712.65 1.213 1.5 1.447 2.48.53 2.208-.441 4.644-2.27 6.188l-.199 2.101 2.8.445 1.291-7.295.224 9.456 2.565.767 5.166-15.645-3.67-.812-1.66 6.893-1.622-7.69-4.822-.969zm-33.658-1.6-3.322 4.667-.275-4.65-4.51 1.343.056 1.208 1.262-.33.403 4.781a5.078 5.078 0 0 1 1.33 2.264c.454 1.603.137 3.355-.732 4.84l.198 2.347 2.807-.384-.02-5.686 10.853 5.427v-3.061a6.839 6.839 0 0 1-2.962-.97 5.845 5.845 0 0 1-2.117-2.234l-4.262-1.687 4.537-4.784-3.246-3.09zm24.966-.092h-2.502l-.983 5.542-.873-4.78h-3.503l-1.157 6.907 1.088.98-1.122 1.157a9.92 9.92 0 0 1-.388.381l-.486 2.898 3.467.603.825-5.199h.021l2.083 4.489 1.39-3.593.98 6.51 3.695.565-.134-.871a4.938 4.938 0 0 1-.394-.188c-1.263-.671-2.147-1.83-2.488-3.264-.442-1.854.197-3.878 1.521-5.385l-1.04-6.752zM59.06 36.3c-1.155-.784-2.765-.944-4.368-.265-2.515 1.081-4.077 3.913-3.405 6.298.692 2.46 3.285 3.561 5.88 2.46a6.003 6.003 0 0 0 2.496-2.01c.647-.898 1.036-1.952 1.071-3.003a4.476 4.476 0 0 0-.161-1.36 3.76 3.76 0 0 0-1.513-2.12zm41.023-1.03c-1.067-.764-2.572-.964-4.102-.388a5.66 5.66 0 0 0-1.758 1.083 5.823 5.823 0 0 0-1.146 1.413c-.602 1.044-.846 2.246-.579 3.367.223.937.738 1.683 1.434 2.183.435.313.94.53 1.49.638.795.156 1.68.085 2.577-.252.45-.171.872-.4 1.256-.675.51-.364.956-.808 1.317-1.303.85-1.165 1.237-2.61.914-3.957a3.708 3.708 0 0 0-.437-1.07 3.536 3.536 0 0 0-.966-1.04zM56.43 36.69c.153 0 .302.014.447.039-.74.062-1.32.617-1.32 1.292 0 .717.653 1.298 1.46 1.298.805 0 1.458-.58 1.458-1.298 0-.118-.018-.232-.051-.34.248.345.392.757.392 1.196 0 1.266-1.06 2.263-2.407 2.263-1.326 0-2.386-.997-2.386-2.263 0-1.19 1.06-2.187 2.407-2.187zm24.133-4.4c-1.278-1.57-3.367-2.296-5.741-1.724-1.051.254-1.98.729-2.708 1.376a5.12 5.12 0 0 0-.78.869c-.772 1.093-1.084 2.488-.716 4.051.056.24.133.472.228.694.795 1.853 2.882 3 5.371 2.757a7.33 7.33 0 0 0 1.007-.17c1.57-.379 2.758-.94 3.797-1.8.255-.21.5-.44.741-.687l-.548-.494-1.807-1.626c-.527.625-1.131 1.195-2.209 1.454-.359.087-.846.167-1.153.113zm16.635 3.212.167.002c.152.006.3.026.443.057-.742.033-1.342.563-1.369 1.238-.029.716.6 1.324 1.405 1.356.805.033 1.481-.522 1.51-1.238a1.165 1.165 0 0 0-.038-.344c.235.356.363.774.345 1.213-.051 1.265-1.152 2.218-2.497 2.164-1.325-.054-2.344-1.094-2.293-2.358.048-1.189 1.149-2.143 2.494-2.088zm-52.333-1.58c1.89-1.014 3.781-.2 4.044 1.252.364 2.012-1.064 3.092-2.48 3.993l-.341-1.122-.748-2.46zm2.425.791c-.316-.152-.7-.188-1.1-.117l.192.673.646 2.124c.673-.596.96-1.19.81-2.025-.068-.372-.373-.57-.548-.655zm26.476-1.644a2.582 2.582 0 0 1 3.829.013l-3.383 3.85a2.667 2.667 0 0 1-.275-.216 2.582 2.582 0 0 1-.171-3.647zm-4.658 1.905-1.403 1.363 1.507.585a6.722 6.722 0 0 1-.104-1.948zm7.164-1.722a1.666 1.666 0 0 0-2.056 2.359zm5.604-.138-.31.33-1.03 1.098.964.868.376-2.296zm-4.227-9.047-3.33 4.009.32.484 4.63-2.294-1.62-2.2z" fill="#8E8E8E"/></g></g><g transform="translate(179.22 81.037)"><mask id="j" fill="#fff"><use xlink:href="#i"/></mask><use fill="#FFF" xlink:href="#i"/><g mask="url(#j)" fill="#969696"><path d="M73.611 26.782c.552.026 1.08.237 1.497.599.57.539.719 1.437.45 2.156-1.048 2.156-3.538 3.596-5.24 4.072-1.019.24-2.306.24-3.234-.12-.45.27-.829 1.14-1.378.779-.794-.62-.106-1.592-.565-2.28-.095-.143-.333-.153-.452-.385-.63-1.378.15-2.695 1.017-3.743 1.448-1.615 5.6-3.414 7.905-1.078zm-4.82 1.078c-.81.15-1.722.501-2.216 1.078-.494.576-.808 1.138-.509 1.736 1.048-.778 1.557-1.856 2.725-2.514 0-.12.18-.21 0-.3zm4.88.3c-2.066-.18-3.623 1.377-5.09 2.874-.09.24-.629.509-.21.778 1.977.18 3.863-.389 5.3-1.707.42-.389.719-.898.51-1.437a1.059 1.059 0 0 0-.51-.508zm17.905 8.922c.959 2.336 1.767 6.018 0 8.264-.479.539-1.317 1.036-1.856.629-1.976-1.587-2.814-3.863-4.042-5.899-.18-.09-.18.15-.27.24-.448 2.066.39 4.76-1.017 6.377-.539.09-1.043-.187-1.228-.718-.689-2.126.03-4.342.209-6.468.42-1.078.6-2.335 1.528-3.144 1.497.599 2.215 2.276 3.083 3.504.63.928 1.138 1.976 1.856 2.814.629-.27.32-1.09.3-1.587-.24-1.946-.78-3.742-1.288-5.599-.03-.479-.299-1.287.209-1.587 1.35.6 1.917 2.006 2.516 3.174zm-9.042-.719c0 .45-.36 1.011-.66 1.078-2.874.45-6.077.18-8.772 1.078-.09.33.3.39.509.479 2.305.36 4.73.449 6.977 1.018 1.187.302 1.617 1.707 1.707 2.875.055.92-.3 2.036-1.198 2.665-2.215 1.407-5.599 1.347-7.845.06-.859-.481-1.677-1.257-1.737-2.215.006-.761.33-1.36.869-1.647 2.156-.869 4.82-.389 6.677.718.12.6-.529.567-.839.779-2.066 1.198-3.623-1.347-5.54-.42-.269.18-.463.681-.149.839 2.365 1.048 5 .3 7.336-.36.27-.09.599-.359.628-.628-.09-.958-1.167-1.167-1.856-1.437-2.036-.509-4.281-.509-6.467-.718-.42-.09-.954-.382-1.078-.719-.24-.718-.24-1.706.3-2.305 2.784-2.456 7.005-2.246 10.538-1.587.24.088.51.178.6.447zM69.45 37.501c.269 2.874.419 5.54.359 8.564-.06.388-.51.479-.809.628-.478.09-1.098-.012-1.287-.27-.689-1.108-.45-2.604-.509-3.951.09-2.126.06-4.431.659-6.408.115-.287.449-.539.718-.36.719.36.839 1.079.869 1.797zm33.266-.419c.144.242.294.616 0 .778-1.348.6-3.174.33-4.731.51-.42.359-.749.957-.6 1.497.151.09.285.226.45.209.958.06 2.395-.45 3.025.449.153.267-.02 1.265-.45 1.287-1.167.15-3.088-.146-3.653.15-.718.48-.659 1.408-.928 2.157.509.33 1.042-.008 1.646-.09 1.11-.18 2.337-.51 3.444-.27.21.39.51.809.3 1.288-1.888 1.497-4.323 3.032-6.917 1.946-.973-.436-1.407-1.916-1.078-3.173.21-.898 1.138-1.766.57-2.725-.09-.42.15-.778.508-.868.988 0 .778-1.228 1.288-1.797-.569-.628-2.006-.599-1.856-1.856.689-.36 1.527-.24 2.305-.36 1.766-.36 3.742-.569 5.54-.36.358.073.837.78 1.137 1.228zm-42.758-6.827c2.763 2.259 6.347 6.109 5.898 10.54-.539 3.504-4.252 6.138-7.395 6.977-3.055.898-6.887.808-10.002.09-.21.569-.419 1.257-1.077 1.497-.42.15-.959.06-1.288-.21-.928-.868-.18-2.545-1.527-3.083-2.635-1.108-5.48-3.295-6.827-5.99-.18-.538.03-1.077.36-1.496 2.066-1.647 4.67-2.305 7.276-2.815.15.06.09-.15.21-.209.149-1.797.209-3.624.777-5.24.13-.227.45-.3.66-.15 1.646 1.257.867 3.623 1.586 5.33 3.144.15 6.288.3 8.773 2.066.839.688 1.043 2.004.779 2.755-.265.75-1.138 1.287-1.947 1.347-.539 0-1.557.052-1.497-.36.06-.411 1.832-1.085 1.288-1.647-.782-.807-4.696-1.287-7.121-1.587-.3-.06-.574.03-.574.36-.06 2.275-.24 4.79.15 6.977.03.15.209.33.359.358 4.281.69 8.803.3 12.156-2.155 1.557-1.257 2.067-3.025 1.797-4.97-1.348-5.42-7.006-8.684-11.648-10.78a32.751 32.751 0 0 0-14.881-2.725c-.853.063-2.206.357-2.216.66-.01.301 1.532.206 1.347.778-.184.57-1.751.232-2.215.09-.464-.143-.42-.81-.3-1.228 1.168-2.066 4.427-2.233 5.9-2.306 8.143-.21 16.019 2.892 21.199 7.126zM45.286 38.28c-2.067.03-4.252.24-6.168.958-.39.15-.869.569-.57 1.078.779 1.048 1.892 1.908 2.935 2.515 1.043.606 2.425 1.377 3.683 1.557.3-1.946.3-3.862.27-5.869-.12-.06 0-.18-.15-.239zm61.89-2.725c-.09 2.605-2.515 4.222-2.515 6.827.09.09.15.21.27.15 1.946-2.126 3.862-5.15 6.707-6.048.75-.06 1.427.591 1.707 1.078.988 1.976.75 4.761-.628 6.557-1.422 1.764-3.894 3.534-6.707 3.234a38.407 38.407 0 0 0-2.426 9.043c-.24.628-.808.06-1.168-.06-2.425-1.916-.433-6.99-.269-7.637.164-.645.813-2.168 1.288-3.443-1.138-2.035-.42-4.491.509-6.378.718-1.257 1.707-2.515 2.875-3.473.148 0 .268.03.357.15zm4.822 3.234c-.359-.06-.51.42-.808.51-1.377 1.556-2.755 3.113-3.444 4.97.929.12 1.707-.48 2.516-.809 1.377-.868 2.245-2.305 2.156-3.952-.06-.27-.3-.48-.42-.72z"/></g></g></g></g></svg>