<svg width="360" height="163" xmlns="http://www.w3.org/2000/svg" xmlns:xlink="http://www.w3.org/1999/xlink"><defs><path d="M0 0h360v159a4 4 0 0 1-4 4H4a4 4 0 0 1-4-4V0z" id="a"/><path id="c" d="M0 0h148.221v75.963H0z"/><path id="e" d="M0 0h148.221v75.963H0z"/><path id="g" d="M0 0h148.221v75.963H0z"/><path id="i" d="M0 0h148.221v75.963H0z"/></defs><g fill="none" fill-rule="evenodd"><mask id="b" fill="#fff"><use xlink:href="#a"/></mask><use fill="#FFF" xlink:href="#a"/><g mask="url(#b)"><g transform="translate(179.22 6)"><mask id="d" fill="#fff"><use xlink:href="#c"/></mask><use fill="#FFF" xlink:href="#c"/><g mask="url(#d)" fill="#969696" fill-rule="nonzero"><path d="M30.785 32.547v1.556h2.552l4.995 9.368h6.147l4.995-9.383 2.552-.016.005-1.525h-7.635v1.53h2.033l-3.527 6.66-3.815-6.637 2.783-.012-.005-1.541h-11.08zm49.261 0v1.556h2.552l4.996 9.368h6.146l4.995-9.383 2.553-.016.004-1.525h-7.635v1.53h2.033l-3.527 6.66-3.815-6.637 2.782-.012-.004-1.541h-11.08zm-12.559 0v1.556h2.553l.003 7.648h-2.69v1.706l2.692.014h12.743v-5.085h-1.66c-.09 2.692-2.426 3.369-3.41 3.369-.901 0-2.648-.004-2.648-.004v-7.65l2.514-.013-.004-1.541H67.487zm-8.592-.313c-4.338 0-7.854 2.583-7.854 5.768 0 3.185 3.516 5.768 7.854 5.768s7.855-2.583 7.855-5.768c0-3.185-3.517-5.768-7.855-5.768zm-.112 9.838c-1.53 0-2.769-1.832-2.769-4.093s1.24-4.094 2.769-4.094c1.528 0 2.768 1.833 2.768 4.094s-1.24 4.093-2.768 4.093zm49.374-10.028c-4.338 0-7.854 2.624-7.854 5.862 0 3.237 3.516 5.862 7.854 5.862s7.855-2.625 7.855-5.862-3.517-5.862-7.855-5.862zm-.113 9.999c-1.528 0-2.768-1.862-2.768-4.16s1.24-4.16 2.768-4.16c1.53 0 2.768 1.862 2.768 4.16s-1.238 4.16-2.768 4.16z"/></g></g><g transform="translate(179.22 81.037)"><mask id="f" fill="#fff"><use xlink:href="#e"/></mask><use fill="#FFF" xlink:href="#e"/><path d="M64.571 29.71c2.187 0 5.459 1.2 5.392 6.082-.06 4.403-5.34 8.728-9.226 10.664a.8.8 0 0 1-.357.103.8.8 0 0 1-.358-.103c-3.885-1.936-9.167-6.261-9.227-10.664-.066-4.883 3.206-6.082 5.393-6.082 2.246 0 3.265 1.319 4.192 2.277.926-.959 1.945-2.277 4.191-2.277zm8.879-.054c.618.047 1.24.119 1.86.119.679 0 1.354-.017 2.03-.017 1.139 0 1.587.691 2.041 1.722l4.642 10.543V33.09c0-.4-.163-.707-.289-.832-.127-.125-.324-.19-.581-.188l-1.061.007c-.777.005-1.442-.332-1.428-1.058.021-1.185 1.111-1.378 2.083-1.34.94.038 1.956.293 2.884.263.878-.028 1.758-.254 2.64-.21 1.136.058 1.557.49 1.537 1.151-.033 1.076-.682 1.318-1.673 1.318 0-.016-1.612-.182-1.612.664V43.47c0 1.279-.618 2.489-1.974 2.489-.874 0-1.829-.45-2.19-1.29L77.297 32.91l-.024 9.207c-.002.747.195 1.168.943 1.146l.923-.026c.827-.024 1.397.427 1.373 1.287-.026.953-.74 1.156-1.55 1.156-.971 0-1.898-.309-2.856-.263-1.016.049-2.002.191-3.021.191-.878 0-1.543-.273-1.543-1.294 0-.853.533-1.023 1.282-1.039l1.017-.022c.607-.012.98-.26.98-.778v-9.733c0-.497-.194-.747-.868-.723l-.872.031c-1.028.036-1.423-.166-1.396-1.191.024-.899.628-1.29 1.765-1.203zm33.755 12.925c.437 0 .826.156 1.162.467.354.328.53.724.53 1.187 0 .562-.198.995-.597 1.3a1.678 1.678 0 0 1-1.042.355h-.083c-.396 0-.76-.165-1.09-.496-.33-.331-.496-.706-.496-1.124v-.07c0-.457.157-.841.472-1.153.316-.31.696-.467 1.144-.467zm-9.933-12.847c.526.015.9.133 1.16.263.362.18.593.457.58.925-.012.451-.19.852-.449 1.043-.195.144-.728.164-1.143.164-.757-.018-.727.431-.489.65l2.762 4.416 2.89-4.527c.06-.232.362-.631-.45-.538-.252.029-.283.034-.584.025-.434-.013-.73-.097-.893-.214-.531-.384-.465-.755-.372-1.31.067-.4.389-.582.74-.686.366-.109.747-.103 1.131-.106.436-.003.876.044 1.299.107a7.17 7.17 0 0 0 2.127.026c.544-.065 1.185-.197 1.797-.192.418.003.824.022 1.176.217a1 1 0 0 1 .541.95c-.01.438-.14.757-.315.946-.343.372-1.222.42-1.688.336a2.898 2.898 0 0 0-.654-.054c-.611.054-.945.44-1.278.966l-4.09 6.472-.06 2.65c-.013.606.113 1.136.814 1.104l1.13-.053c.68-.032 1.32.405 1.34 1.13.025.93-.713 1.337-1.555 1.29a11.302 11.302 0 0 1-1.444-.188c-.928-.169-1.568-.11-2.496 0-.862.103-1.528.17-1.992.158-.747-.018-1.468-.39-1.54-1.166-.07-.748.51-1.257 1.255-1.198l.985.078c.38.03.88-.16.89-.604l.06-2.977-4.258-6.847c-.232-.373-.6-.606-.954-.74-.455-.17-.926-.182-1.406-.121-.39.05-.457.004-.557 0-.854-.037-1.222-.413-1.178-1.208.055-.987.608-1.137 1.551-1.137.163 0 .548.002 1.318.112.564.082 1.028.04 1.392.027.96-.033 1.96-.215 2.907-.189zm9.972 13.086c-.32 0-.621.11-.9.33-.35.276-.525.65-.525 1.12 0 .36.141.687.425.98.284.294.604.44.96.44h.06c.356 0 .678-.145.965-.435.287-.29.43-.63.43-1.02a1.35 1.35 0 0 0-.425-.994 1.363 1.363 0 0 0-.99-.421zM47.156 29.7c.866 0 1.633.222 1.684 1.274.03.64-.645 1.106-1.37 1.094l-.85-.014c-.644-.01-1.026.457-1.02.986l.116 9.246c.011.883.48 1.13 1.186 1.123l.83-.01c.623-.007 1.222.307 1.189 1.068-.046 1.057-.884 1.103-1.712 1.103-.844 0-1.696-.153-2.544-.153-.944 0-1.887.067-2.829.156-1.08.104-1.845-.134-1.803-1.13.027-.671.412-1.11 1.228-1.11l1.097.002c.59.001.821-.62.82-1.072l-.038-9.184c-.002-.496-.167-.97-.756-.958l-1.249.025c-.824.016-1.309-.524-1.3-1.267.01-.934.762-1.165 1.526-1.141.267.008.838.017 1.191.053.603.062 1.234.056 1.84.056.934 0 1.846-.147 2.764-.147zm60.277 13.581c.199 0 .356.056.473.166a.484.484 0 0 1 .007.708c-.099.1-.237.149-.411.149l-.069-.005.555.856h-.277l-.536-.818h-.38v.818h-.237V43.28h.875zm-.03.2h-.607v.657h.57a.479.479 0 0 0 .318-.097.3.3 0 0 0 .01-.463.41.41 0 0 0-.29-.096z" fill="#969696" fill-rule="nonzero" mask="url(#f)"/></g><g transform="translate(31 81.037)"><mask id="h" fill="#fff"><use xlink:href="#g"/></mask><use fill="#FFF" xlink:href="#g"/><g mask="url(#h)" fill="#969696" fill-rule="nonzero"><path d="M57.213 43.36c-5.474 0-7.924-2.114-7.924-5.246 0-3.035 2.45-5.17 7.924-5.17 5.452 0 7.902 2.124 7.902 5.17 0 3.133-2.44 5.247-7.902 5.247zm35.843-.384-9.713-.007.004-1.275s.985-.115 1.385-.168c.4-.053.558-.393.556-.77-.001-.377.004-4.725.004-5.166 0-.44-.201-.696-.634-.758-.432-.062-1.325-.152-1.325-.152v-1.362h9.723c4.411 0 6.32 2.146 6.32 4.705 0 2.84-1.909 4.953-6.32 4.953zm-27.51.035v-1.324s1.162-.13 1.344-.16c.438-.077.596-.369.596-.826v-5.059c0-.493-.217-.766-.687-.818l-1.252-.145v-1.363s6.742-.005 6.845-.004c.367.002.618.177.81.424.04.05 5.113 6.754 5.113 6.754s.002-4.335 0-4.792c-.001-.458-.16-.797-.625-.854l-1.314-.155v-1.373h6.205v1.36s-1.088.118-1.315.154c-.533.083-.621.444-.624.828-.002.385 0 7.353 0 7.353h-4.866c-.322 0-.643-.147-.817-.371a9125.81 9125.81 0 0 1-5.146-6.803s-.002 4.488 0 4.932c.003.445.22.72.613.766.394.048 1.326.152 1.326.152v1.324h-6.205zm-34.264-.002-.004-1.294s.794-.093 1.285-.153c.49-.06.658-.376.658-.93v-4.92c.001-.494-.122-.839-.644-.918a85.899 85.899 0 0 0-1.294-.15v-1.33h7.755l-.007 1.321s-1.157.13-1.31.153c-.396.055-.619.311-.622.867v1.537h5.978v-1.503c0-.481-.142-.843-.592-.903-.45-.06-1.35-.162-1.35-.162l.003-1.31h7.756l-.007 1.322s-.926.109-1.335.16c-.409.05-.599.366-.598.885 0 .091-.003 4.49 0 5.047.003.557.314.764.569.798.255.032 1.374.158 1.374.158l-.004 1.325h-7.755l.007-1.33s1.181-.13 1.332-.16c.53-.107.602-.467.6-.907-.002-.44 0-1.481 0-1.481H37.1s-.004.9 0 1.552c.005.654.312.838.608.88.376.049 1.33.154 1.33.154l.001 1.292h-7.756zm63.638-4.856c0-2.439-.986-2.982-3.35-2.982h-2.48v5.932h2.482c2.363 0 3.349-.49 3.349-2.95zm-34.26-.006c0-2.515-1.257-3.341-3.457-3.341-2.201 0-3.458.826-3.458 3.34 0 2.549 1.257 3.36 3.458 3.36 2.2 0 3.457-.811 3.457-3.36zm44.156 4.866H98.61V41.69s.856-.116 1.319-.175c.462-.06.647-.429.7-.513.053-.082 3.026-4.898 3.285-5.33.259-.431-.014-.76-.353-.821-.237-.043-1.717-.195-1.717-.195l-.001-1.34h7.57c.475.013.767.546.767.546l4.35 6.654c.352.536.62.93 1.05.994.431.063 1.355.17 1.355.17l.006 1.33h-8.383l.008-1.314 1.056-.139c.506-.065.93-.284.512-.9-.419-.614-.409-.608-.409-.608l-5.942.013s-.185.278-.473.725c-.288.445.016.727.442.78l1.064.132-.001 1.314zm.05-4.702 3.743.019-1.893-2.993-1.85 2.974z"/></g></g><g transform="translate(31 6)"><mask id="j" fill="#fff"><use xlink:href="#i"/></mask><use fill="#FFF" xlink:href="#i"/><g mask="url(#j)" fill="#969696" fill-rule="nonzero"><path d="m103.254 36.705 2.298-2.454c.133-.18.2-.306.2-.414 0-.18-.155-.252-.643-.252h-.58v-1.549h6.276v1.549h-.825c-.952 0-1.129.144-2.457 1.819l-3.635 3.925v2.396c0 .612.31.828 1.195.828h1.372v1.494h-8.789v-1.494h1.373c.885 0 1.195-.216 1.195-.828v-2.396l-4.281-4.736c-.708-.828-.61-1.008-2.58-1.008v-1.549h7.949v1.549h-.566c-.576 0-.82.108-.82.324 0 .18.177.324.288.468l2.166 2.36c.257.268.571.303.864-.032zm-53.33-4.67h1.917v4.322h-1.77c-.157-.863-.698-1.2-1.191-1.653-.89-.817-2.816-1.498-4.436-1.498-2.091 0-3.856.649-3.856 1.603 0 2.647 11.96.54 11.96 5.546 0 2.611-2.562 4.07-7.163 4.07-1.593 0-4.003-.494-5.425-1.25-.445-.257-.635.244-.718.872h-1.966v-4.466h1.778c.392 1.135.933 1.368 1.43 1.819.862.792 2.915 1.369 4.797 1.35 2.838-.028 3.814-.648 3.814-1.548s-.965-1.117-4.075-1.603l-2.64-.432c-2.98-.45-5.15-1.117-5.15-3.494 0-2.467 2.744-4.016 7.084-4.016 1.828 0 3.358.245 4.827 1.075.407.264.788.296.783-.696zm37.419 7.237.038-4.804c0-.63-.328-.846-1.265-.846h-1.1v-1.495h7.003v1.495h-.913c-.938 0-1.266.216-1.266.846v9.67l-2.74-.021-8.878-8.406v6.105c0 .612.328.846 1.265.846h1.219v1.476h-7.274v-1.476h1.205c.937 0 1.265-.234 1.265-.846v-7.348c0-.63-.328-.846-1.265-.846h-1.205v-1.495h6.289l7.622 7.145zm-23.46-7.705c-5.58 0-9.074 2.467-9.074 6.428 0 3.89 3.445 6.34 8.905 6.34 5.799 0 9.172-2.413 9.172-6.537 0-3.71-3.64-6.231-9.002-6.231zm-.126 11.201c-3.09 0-4.865-1.783-4.865-4.862 0-3.008 1.853-4.79 5.02-4.79 3.037 0 4.813 1.819 4.813 4.916 0 3.025-1.802 4.736-4.968 4.736z"/></g></g></g></g></svg>