<svg width="276" height="151" viewBox="0 0 276 151" fill="none" xmlns="http://www.w3.org/2000/svg">
<rect x="0.814453" y="0.5" width="273.713" height="149.649" rx="10.5" fill="white" stroke="#ECECEC"/>
<path d="M121.566 81.5703V84.5781C119.561 85.6719 117.246 86.2188 114.621 86.2188C112.488 86.2188 110.679 85.7904 109.193 84.9336C107.708 84.0768 106.532 82.8965 105.666 81.3926C104.8 79.8887 104.367 78.2617 104.367 76.5117C104.367 73.7318 105.356 71.3939 107.334 69.498C109.321 67.6022 111.768 66.6543 114.676 66.6543C116.681 66.6543 118.91 67.1784 121.361 68.2266V71.166C119.128 69.89 116.945 69.252 114.812 69.252C112.625 69.252 110.807 69.9447 109.357 71.3301C107.917 72.7064 107.197 74.4336 107.197 76.5117C107.197 78.6081 107.908 80.3307 109.33 81.6797C110.752 83.0286 112.57 83.7031 114.785 83.7031C117.1 83.7031 119.361 82.9922 121.566 81.5703ZM124.643 66.9004H127.131V86H124.643V66.9004ZM141.459 79.9297H132.613C132.677 81.1328 133.078 82.0898 133.816 82.8008C134.564 83.5117 135.525 83.8672 136.701 83.8672C138.342 83.8672 139.855 83.3568 141.24 82.3359V84.7695C140.475 85.2799 139.714 85.6445 138.957 85.8633C138.21 86.082 137.33 86.1914 136.318 86.1914C134.933 86.1914 133.812 85.9043 132.955 85.3301C132.098 84.7559 131.41 83.9857 130.891 83.0195C130.38 82.0443 130.125 80.9186 130.125 79.6426C130.125 77.7285 130.667 76.1745 131.752 74.9805C132.837 73.7773 134.245 73.1758 135.977 73.1758C137.645 73.1758 138.975 73.7591 139.969 74.9258C140.962 76.0924 141.459 77.6556 141.459 79.6152V79.9297ZM132.668 78.4395H138.998C138.934 77.446 138.638 76.6803 138.109 76.1426C137.581 75.6048 136.87 75.3359 135.977 75.3359C135.083 75.3359 134.35 75.6048 133.775 76.1426C133.21 76.6803 132.841 77.446 132.668 78.4395ZM152.068 78.4395V83.7852C152.068 84.2135 152.214 84.4277 152.506 84.4277C152.807 84.4277 153.276 84.2044 153.914 83.7578V85.2754C153.349 85.64 152.893 85.8861 152.547 86.0137C152.21 86.1504 151.854 86.2188 151.48 86.2188C150.414 86.2188 149.785 85.7995 149.594 84.9609C148.536 85.7812 147.411 86.1914 146.217 86.1914C145.342 86.1914 144.613 85.9043 144.029 85.3301C143.446 84.7467 143.154 84.0176 143.154 83.1426C143.154 82.3496 143.437 81.6432 144.002 81.0234C144.576 80.3945 145.387 79.8978 146.436 79.5332L149.621 78.4395V77.7695C149.621 76.2565 148.865 75.5 147.352 75.5C145.993 75.5 144.672 76.2018 143.387 77.6055V74.8848C144.353 73.7454 145.743 73.1758 147.557 73.1758C148.915 73.1758 150.004 73.5312 150.824 74.2422C151.098 74.4701 151.344 74.7754 151.562 75.1582C151.781 75.5319 151.918 75.9102 151.973 76.293C152.036 76.6667 152.068 77.3822 152.068 78.4395ZM149.621 83.5117V79.7793L147.953 80.4219C147.105 80.7591 146.504 81.1009 146.148 81.4473C145.802 81.7845 145.629 82.2083 145.629 82.7188C145.629 83.2383 145.793 83.6621 146.121 83.9902C146.458 84.3184 146.891 84.4824 147.42 84.4824C148.213 84.4824 148.947 84.1589 149.621 83.5117ZM158.604 73.4219V75.0215C159.715 73.791 160.978 73.1758 162.391 73.1758C163.174 73.1758 163.904 73.3809 164.578 73.791C165.253 74.1921 165.763 74.748 166.109 75.459C166.465 76.1608 166.643 77.2773 166.643 78.8086V86H164.154V78.8359C164.154 77.5508 163.958 76.6348 163.566 76.0879C163.174 75.5319 162.518 75.2539 161.598 75.2539C160.422 75.2539 159.424 75.8418 158.604 77.0176V86H156.061V73.4219H158.604Z" fill="black"/>
</svg>
