<svg width="276" height="151" viewBox="0 0 276 151" fill="none" xmlns="http://www.w3.org/2000/svg">
<rect x="1.47266" y="0.851257" width="273.713" height="149.649" rx="10.5" fill="white" stroke="#ECECEC"/>
<path d="M106.056 83.832C105.885 83.832 105.672 83.768 105.416 83.64C105.181 83.512 104.936 83.2773 104.68 82.936C104.296 82.4453 104.029 81.848 103.88 81.144C103.752 80.44 103.688 79.7467 103.688 79.064C103.688 78.168 103.752 77.3787 103.88 76.696C104.008 76.0133 104.072 75.672 104.072 75.672C103.795 75.3947 103.507 75.1707 103.208 75C102.931 74.8293 102.867 74.616 103.016 74.36C103.165 74.0613 103.411 73.8693 103.752 73.784C104.093 73.6987 104.499 73.6133 104.968 73.528C105.245 72.8667 105.597 71.9707 106.024 70.84C106.472 69.7093 107.176 68.4613 108.136 67.096C108.285 66.8827 108.616 66.648 109.128 66.392C109.661 66.136 110.205 65.9227 110.76 65.752C110.291 65.6667 109.832 65.6027 109.384 65.56C108.957 65.5173 108.531 65.496 108.104 65.496C107.059 65.496 106.024 65.6667 105 66.008C103.976 66.328 102.941 66.9147 101.896 67.768C101.683 67.96 101.576 68.1413 101.576 68.312C101.576 68.4827 101.64 68.6533 101.768 68.824C101.896 68.9733 101.96 69.112 101.96 69.24C101.96 69.3467 101.875 69.4427 101.704 69.528C101.491 69.6347 101.309 69.688 101.16 69.688C100.776 69.688 100.445 69.5173 100.168 69.176C99.912 68.8347 99.6987 68.472 99.528 68.088C99.3147 67.64 99.208 67.2027 99.208 66.776C99.208 66.0507 99.4853 65.4427 100.04 64.952C100.595 64.4613 101.267 64.0773 102.056 63.8C102.845 63.5013 103.581 63.2987 104.264 63.192C104.733 63.1067 105.192 63.0533 105.64 63.032C106.109 62.9893 106.557 62.968 106.984 62.968C108.477 62.968 109.896 63.1173 111.24 63.416C112.605 63.7147 113.864 64.088 115.016 64.536C116.189 64.9627 117.245 65.3893 118.184 65.816C119.144 66.2427 119.955 66.5947 120.616 66.872C121.299 67.1493 121.811 67.2667 122.152 67.224C122.429 67.224 122.621 67.1493 122.728 67C122.835 66.8293 122.92 66.68 122.984 66.552C123.069 66.4027 123.165 66.36 123.272 66.424C123.485 66.5733 123.592 66.712 123.592 66.84C123.592 66.9893 123.496 67.1387 123.304 67.288C123.133 67.416 122.984 67.5333 122.856 67.64C122.451 67.96 121.875 68.12 121.128 68.12C120.445 68.12 119.656 68.0133 118.76 67.8C117.885 67.5867 116.968 67.3413 116.008 67.064C115.069 66.7653 114.141 66.5093 113.224 66.296C113.139 66.296 113.053 66.2853 112.968 66.264C112.904 66.2213 112.829 66.2 112.744 66.2L112.52 66.456C111.603 67.5013 110.888 68.3867 110.376 69.112C109.864 69.8373 109.469 70.4667 109.192 71C108.915 71.512 108.68 71.9707 108.488 72.376C108.317 72.7813 108.115 73.1973 107.88 73.624H112.104C112.872 73.624 113.256 73.6987 113.256 73.848C113.256 73.8907 113.192 73.976 113.064 74.104C112.936 74.2107 112.68 74.3067 112.296 74.392C111.912 74.4773 111.325 74.52 110.536 74.52C109.469 74.52 108.691 74.5947 108.2 74.744C107.731 74.872 107.368 75.064 107.112 75.32C106.643 76.1947 106.291 77.144 106.056 78.168C105.821 79.192 105.704 80.1093 105.704 80.92C105.704 81.5387 105.768 82.072 105.896 82.52C106.045 82.9467 106.259 83.2347 106.536 83.384C106.6 83.4053 106.632 83.448 106.632 83.512C106.632 83.576 106.579 83.64 106.472 83.704C106.365 83.7893 106.227 83.832 106.056 83.832ZM116.944 83.192C116.432 83.192 115.995 82.9893 115.632 82.584C115.291 82.1787 115.12 81.6453 115.12 80.984C115.12 80.344 115.227 79.6293 115.44 78.84C115.653 78.0293 115.899 77.2507 116.176 76.504C116.453 75.736 116.688 75.0853 116.88 74.552C116.987 74.2533 117.307 74.008 117.84 73.816C118.395 73.624 118.907 73.528 119.376 73.528C119.653 73.528 119.877 73.56 120.048 73.624C120.24 73.688 120.336 73.8053 120.336 73.976C120.336 74.0187 120.315 74.0827 120.272 74.168C120.251 74.2533 120.187 74.392 120.08 74.584C119.376 75.7573 118.875 76.8027 118.576 77.72C118.299 78.616 118.16 79.3627 118.16 79.96C118.16 80.4933 118.245 80.92 118.416 81.24C118.608 81.5387 118.811 81.688 119.024 81.688C119.259 81.688 119.6 81.528 120.048 81.208C120.496 80.888 121.008 80.472 121.584 79.96C122.16 79.448 122.747 78.904 123.344 78.328C123.963 77.752 124.549 77.1973 125.104 76.664C125.68 76.1307 126.181 75.6827 126.608 75.32C126.971 75.0213 127.301 74.872 127.6 74.872C127.899 74.872 128.133 74.9787 128.304 75.192C128.475 75.384 128.528 75.544 128.464 75.672C128.123 76.312 127.813 77.0373 127.536 77.848C127.259 78.6587 127.12 79.4053 127.12 80.088C127.12 80.6 127.227 81.048 127.44 81.432C127.653 81.7947 128.048 82.0613 128.624 82.232C128.837 82.2747 128.976 82.3493 129.04 82.456C129.125 82.5413 129.168 82.616 129.168 82.68C129.168 82.8293 129.04 82.904 128.784 82.904C128.635 82.904 128.432 82.872 128.176 82.808C127.771 82.68 127.397 82.5413 127.056 82.392C126.715 82.2427 126.416 82.0293 126.16 81.752C125.947 81.5173 125.765 81.208 125.616 80.824C125.467 80.44 125.392 80.0027 125.392 79.512C125.392 79.128 125.52 78.6907 125.776 78.2C126.032 77.688 126.224 77.304 126.352 77.048C126.416 76.92 126.448 76.8347 126.448 76.792C126.448 76.7493 126.363 76.8027 126.192 76.952C125.765 77.3573 125.349 77.7947 124.944 78.264C124.539 78.712 124.027 79.224 123.408 79.8C122.811 80.3547 122 81.0053 120.976 81.752C120.443 82.136 119.792 82.4773 119.024 82.776C118.256 83.0533 117.563 83.192 116.944 83.192ZM131.716 83.192C131.63 83.192 131.481 83.128 131.268 83C131.054 82.8933 130.852 82.744 130.66 82.552C130.489 82.3387 130.404 82.1253 130.404 81.912C130.404 81.3147 130.5 80.5787 130.692 79.704C130.905 78.808 131.182 77.8693 131.524 76.888C131.865 75.8853 132.228 74.9573 132.612 74.104C132.782 73.7413 133.017 73.496 133.316 73.368C133.614 73.2187 133.934 73.144 134.276 73.144C134.766 73.144 135.225 73.272 135.652 73.528C136.078 73.784 136.292 74.1147 136.292 74.52C136.292 74.7333 136.217 74.9467 136.068 75.16C135.961 75.3093 135.833 75.5227 135.684 75.8C135.534 76.056 135.406 76.2907 135.3 76.504C135.172 76.76 135.14 76.888 135.204 76.888C135.225 76.888 135.332 76.792 135.524 76.6C135.95 76.1947 136.526 75.7787 137.252 75.352C137.998 74.904 138.766 74.5307 139.556 74.232C140.345 73.912 141.028 73.752 141.604 73.752C142.457 73.752 143.15 73.9973 143.684 74.488C144.238 74.9573 144.644 75.5653 144.9 76.312C145.156 77.0587 145.284 77.8267 145.284 78.616C145.284 80.024 144.964 81.144 144.324 81.976C144.238 82.104 144.068 82.2853 143.812 82.52C143.556 82.7547 143.364 82.872 143.236 82.872C143.172 82.872 143.14 82.8293 143.14 82.744C143.14 82.7013 143.14 82.6587 143.14 82.616C143.161 82.5733 143.182 82.52 143.204 82.456C143.374 81.9867 143.502 81.4747 143.588 80.92C143.694 80.3653 143.748 79.8107 143.748 79.256C143.748 78.552 143.641 77.8907 143.428 77.272C143.236 76.6533 142.894 76.152 142.404 75.768C141.934 75.384 141.284 75.192 140.452 75.192C139.15 75.192 138.02 75.5973 137.06 76.408C136.121 77.2187 135.182 78.3493 134.244 79.8C133.518 80.9093 132.974 81.752 132.612 82.328C132.249 82.904 131.95 83.192 131.716 83.192ZM150.772 83.416C150.495 83.416 150.207 83.1707 149.908 82.68C149.631 82.1893 149.492 81.6453 149.492 81.048C149.492 80.92 149.503 80.632 149.524 80.184C149.546 79.7147 149.567 79.2133 149.588 78.68C149.631 78.1253 149.674 77.624 149.716 77.176C149.78 76.728 149.834 76.4507 149.876 76.344C149.962 76.1733 149.887 76.056 149.652 75.992C149.439 75.9067 149.226 75.8213 149.012 75.736C148.799 75.6507 148.724 75.5227 148.788 75.352C148.852 75.2027 148.948 75.1067 149.076 75.064C149.204 75.0213 149.343 75 149.492 75C149.642 75 149.748 75.0107 149.812 75.032C149.898 75.032 149.972 75.0213 150.036 75C150.143 74.7227 150.324 74.264 150.58 73.624C150.836 72.984 151.135 72.248 151.476 71.416C151.839 70.584 152.234 69.7307 152.66 68.856C153.108 67.9813 153.578 67.16 154.068 66.392C154.367 65.9013 154.794 65.5707 155.348 65.4C155.903 65.208 156.436 65.112 156.948 65.112C157.46 65.112 157.876 65.1867 158.196 65.336C158.516 65.464 158.602 65.6133 158.452 65.784C157.578 66.872 156.799 67.9493 156.116 69.016C155.434 70.0827 154.858 71.064 154.388 71.96C153.919 72.8347 153.546 73.56 153.268 74.136C153.012 74.712 152.863 75.0533 152.82 75.16C153.034 74.9893 153.684 74.68 154.772 74.232C155.86 73.7627 157.258 73.336 158.964 72.952C159.284 72.8667 159.604 72.824 159.924 72.824C160.5 72.824 160.788 72.92 160.788 73.112C160.788 73.1973 160.66 73.304 160.404 73.432C160.17 73.5387 159.775 73.6347 159.22 73.72C158.602 73.8053 157.951 73.9973 157.268 74.296C156.607 74.5733 156.02 74.872 155.508 75.192C155.018 75.4907 154.708 75.7147 154.58 75.864C154.623 75.992 154.804 76.248 155.124 76.632C155.466 77.016 155.871 77.464 156.34 77.976C156.831 78.488 157.322 79 157.812 79.512C158.324 80.024 158.772 80.472 159.156 80.856C159.54 81.24 159.796 81.496 159.924 81.624C160.308 81.9653 160.575 82.2427 160.724 82.456C160.895 82.6693 160.98 82.8293 160.98 82.936C160.98 83.064 160.884 83.128 160.692 83.128C160.479 83.128 160.191 83.064 159.828 82.936C159.466 82.7867 159.103 82.6053 158.74 82.392C158.122 82.0293 157.45 81.5707 156.724 81.016C156.02 80.4613 155.338 79.9067 154.676 79.352C154.036 78.776 153.482 78.2853 153.012 77.88C152.564 77.4533 152.287 77.1973 152.18 77.112C151.668 78.0933 151.316 78.9573 151.124 79.704C150.954 80.4293 150.868 81.0693 150.868 81.624C150.868 81.9013 150.89 82.168 150.932 82.424C150.975 82.68 151.018 82.9253 151.06 83.16V83.192C151.06 83.3413 150.964 83.416 150.772 83.416ZM165.388 88.696C165.238 88.696 165.164 88.6213 165.164 88.472C165.164 88.344 165.217 88.152 165.324 87.896C165.43 87.6613 165.558 87.384 165.708 87.064C166.198 86.104 166.678 85.208 167.148 84.376C167.638 83.544 168.129 82.744 168.62 81.976C167.638 81.4 166.764 80.7387 165.996 79.992C165.249 79.2453 164.609 78.52 164.076 77.816C163.564 77.112 163.169 76.5147 162.892 76.024C162.636 75.5333 162.508 75.2667 162.508 75.224C162.508 75.1173 162.604 75.032 162.796 74.968C163.009 74.904 163.244 74.8613 163.5 74.84C163.777 74.8187 164.012 74.808 164.204 74.808C164.417 74.808 164.524 74.808 164.524 74.808C164.886 76.4293 165.505 77.7947 166.38 78.904C167.276 79.992 168.172 80.792 169.068 81.304C169.964 79.896 170.71 78.4667 171.308 77.016C171.926 75.544 172.534 73.88 173.132 72.024C173.132 71.96 173.217 71.928 173.388 71.928C173.601 71.928 173.9 71.9813 174.284 72.088C174.689 72.1947 175.084 72.344 175.468 72.536C175.873 72.7067 176.193 72.9093 176.428 73.144C176.684 73.3573 176.78 73.5707 176.716 73.784C176.332 74.8933 175.788 76.088 175.084 77.368C174.38 78.6267 173.59 79.8747 172.716 81.112C171.862 82.328 170.998 83.4587 170.124 84.504C169.249 85.5493 168.449 86.424 167.724 87.128C167.02 87.832 166.465 88.28 166.06 88.472C165.761 88.6213 165.537 88.696 165.388 88.696Z" fill="black"/>
</svg>
