<svg width="275" height="151" viewBox="0 0 275 151" fill="none" xmlns="http://www.w3.org/2000/svg">
<rect x="0.786621" y="0.5" width="273.713" height="149.649" rx="10.5" fill="white" stroke="#ECECEC"/>
<path d="M108.336 74.608H100.888L99.6 82H94.532L98.088 61.84H112.144L111.36 66.208H102.344L101.644 70.24H109.092L108.336 74.608ZM124.436 77.688C124.436 78.1733 124.679 78.416 125.164 78.416C125.668 78.416 126.088 78.3227 126.424 78.136L126.284 81.3C125.388 82.028 124.38 82.392 123.26 82.392C121.151 82.392 120.003 81.58 119.816 79.956C118.696 81.58 117.184 82.392 115.28 82.392C113.395 82.392 112.172 81.9627 111.612 81.104C111.239 80.5627 111.052 79.9467 111.052 79.256C111.052 78.5653 111.108 77.9307 111.22 77.352L112.788 68.532H117.548L116.232 75.98C116.176 76.316 116.148 76.652 116.148 76.988C116.148 77.884 116.652 78.332 117.66 78.332C118.5 78.332 119.172 78.0427 119.676 77.464L121.272 68.532H126.032L124.464 77.352C124.446 77.464 124.436 77.576 124.436 77.688ZM137.183 73.404C137.183 72.6013 136.791 72.2 136.007 72.2C135.241 72.2 134.607 72.4893 134.103 73.068L132.535 82H127.775L130.155 68.532H134.579L134.271 70.184C135.372 68.8213 136.763 68.14 138.443 68.14C140.123 68.14 141.215 68.5507 141.719 69.372C142.036 69.8947 142.195 70.492 142.195 71.164C142.195 71.836 142.148 72.4613 142.055 73.04L141.299 77.352C141.28 77.464 141.271 77.5667 141.271 77.66C141.271 78.164 141.551 78.416 142.111 78.416C142.54 78.416 142.923 78.3227 143.259 78.136L143.119 81.3C142.241 82.028 141.243 82.392 140.123 82.392C137.584 82.392 136.315 81.328 136.315 79.2C136.315 78.8267 136.352 78.4253 136.427 77.996L137.099 74.272C137.155 73.936 137.183 73.6467 137.183 73.404ZM153.917 73.404C153.917 72.6013 153.525 72.2 152.741 72.2C151.976 72.2 151.341 72.4893 150.837 73.068L149.269 82H144.509L146.889 68.532H151.313L151.005 70.184C152.106 68.8213 153.497 68.14 155.177 68.14C156.857 68.14 157.949 68.5507 158.453 69.372C158.77 69.8947 158.929 70.492 158.929 71.164C158.929 71.836 158.882 72.4613 158.789 73.04L158.033 77.352C158.014 77.464 158.005 77.5667 158.005 77.66C158.005 78.164 158.285 78.416 158.845 78.416C159.274 78.416 159.657 78.3227 159.993 78.136L159.853 81.3C158.976 82.028 157.977 82.392 156.857 82.392C154.318 82.392 153.049 81.328 153.049 79.2C153.049 78.8267 153.086 78.4253 153.161 77.996L153.833 74.272C153.889 73.936 153.917 73.6467 153.917 73.404ZM166.984 75.98C166.928 76.316 166.9 76.652 166.9 76.988C166.9 77.884 167.404 78.332 168.412 78.332C169.233 78.332 169.914 78.0427 170.456 77.464L172.024 68.532H176.784L174.32 82.448C173.909 84.8187 172.966 86.6947 171.492 88.076C170.036 89.4573 168.365 90.148 166.48 90.148C164.594 90.148 163.232 89.8027 162.392 89.112C161.57 88.4213 161.16 87.516 161.16 86.396C161.16 84.8093 162.14 83.4 164.1 82.168C163.036 81.9067 162.364 81.3747 162.084 80.572C161.916 80.124 161.832 79.62 161.832 79.06C161.832 78.5 161.878 77.9307 161.972 77.352L163.54 68.532H168.3L166.984 75.98ZM167.124 86.144C168.337 86.144 169.13 85.0427 169.504 82.84L169.784 81.216C167.189 82.4293 165.892 83.652 165.892 84.884C165.892 85.2573 165.994 85.556 166.2 85.78C166.424 86.0227 166.732 86.144 167.124 86.144Z" fill="black"/>
</svg>
