<svg width="276" height="151" viewBox="0 0 276 151" fill="none" xmlns="http://www.w3.org/2000/svg">
<rect x="0.986328" y="0.851257" width="273.713" height="149.649" rx="10.5" fill="white" stroke="#ECECEC"/>
<path d="M95.0703 65.8848H87.7148V70.957H94.8105V73.9512H87.7148V84H84.5293V62.8906H95.0703V65.8848ZM100.99 70.6836V78.3262C100.99 80.5319 101.861 81.6348 103.602 81.6348C105.342 81.6348 106.213 80.5319 106.213 78.3262V70.6836H109.289V78.3945C109.289 79.4609 109.157 80.3815 108.893 81.1562C108.637 81.849 108.195 82.4733 107.566 83.0293C106.527 83.9316 105.206 84.3828 103.602 84.3828C102.007 84.3828 100.689 83.9316 99.6504 83.0293C99.0124 82.4733 98.5612 81.849 98.2969 81.1562C98.0417 80.5365 97.9141 79.6159 97.9141 78.3945V70.6836H100.99ZM116.344 73.5547V84H113.268V73.5547H111.955V70.6836H113.268V65.8027H116.344V70.6836H118.736V73.5547H116.344ZM123.904 70.6836V78.3262C123.904 80.5319 124.775 81.6348 126.516 81.6348C128.257 81.6348 129.127 80.5319 129.127 78.3262V70.6836H132.203V78.3945C132.203 79.4609 132.071 80.3815 131.807 81.1562C131.551 81.849 131.109 82.4733 130.48 83.0293C129.441 83.9316 128.12 84.3828 126.516 84.3828C124.921 84.3828 123.604 83.9316 122.564 83.0293C121.926 82.4733 121.475 81.849 121.211 81.1562C120.956 80.5365 120.828 79.6159 120.828 78.3945V70.6836H123.904ZM136.086 70.6836H139.162V71.873C139.727 71.2806 140.229 70.875 140.666 70.6562C141.113 70.4284 141.641 70.3145 142.252 70.3145C143.063 70.3145 143.911 70.5788 144.795 71.1074L143.387 73.9238C142.803 73.5046 142.234 73.2949 141.678 73.2949C140.001 73.2949 139.162 74.5618 139.162 77.0957V84H136.086V70.6836ZM150.072 70.6836V84H146.996V70.6836H150.072ZM146.531 65.1465C146.531 64.6087 146.727 64.1439 147.119 63.752C147.511 63.36 147.98 63.1641 148.527 63.1641C149.083 63.1641 149.557 63.36 149.949 63.752C150.341 64.1348 150.537 64.6042 150.537 65.1602C150.537 65.7161 150.341 66.1901 149.949 66.582C149.566 66.974 149.097 67.1699 148.541 67.1699C147.985 67.1699 147.511 66.974 147.119 66.582C146.727 66.1901 146.531 65.7116 146.531 65.1465ZM161.707 72.9531L159.164 74.3066C158.763 73.4863 158.266 73.0762 157.674 73.0762C157.391 73.0762 157.15 73.1719 156.949 73.3633C156.749 73.5456 156.648 73.7826 156.648 74.0742C156.648 74.5846 157.241 75.0905 158.426 75.5918C160.057 76.2936 161.156 76.9408 161.721 77.5332C162.286 78.1257 162.568 78.9232 162.568 79.9258C162.568 81.2109 162.094 82.2865 161.146 83.1523C160.226 83.9727 159.114 84.3828 157.811 84.3828C155.577 84.3828 153.996 83.2936 153.066 81.1152L155.691 79.8984C156.056 80.5365 156.334 80.9421 156.525 81.1152C156.899 81.4616 157.346 81.6348 157.865 81.6348C158.904 81.6348 159.424 81.1608 159.424 80.2129C159.424 79.666 159.023 79.1556 158.221 78.6816C157.911 78.5267 157.601 78.3763 157.291 78.2305C156.981 78.0846 156.667 77.9342 156.348 77.7793C155.454 77.3418 154.826 76.9043 154.461 76.4668C153.996 75.9108 153.764 75.1953 153.764 74.3203C153.764 73.1628 154.16 72.2057 154.953 71.4492C155.764 70.6927 156.749 70.3145 157.906 70.3145C159.611 70.3145 160.878 71.194 161.707 72.9531ZM168.516 73.5547V84H165.439V73.5547H164.127V70.6836H165.439V65.8027H168.516V70.6836H170.908V73.5547H168.516ZM176.076 70.6836V84H173V70.6836H176.076ZM172.535 65.1465C172.535 64.6087 172.731 64.1439 173.123 63.752C173.515 63.36 173.984 63.1641 174.531 63.1641C175.087 63.1641 175.561 63.36 175.953 63.752C176.345 64.1348 176.541 64.6042 176.541 65.1602C176.541 65.7161 176.345 66.1901 175.953 66.582C175.57 66.974 175.101 67.1699 174.545 67.1699C173.989 67.1699 173.515 66.974 173.123 66.582C172.731 66.1901 172.535 65.7116 172.535 65.1465ZM190.336 71.2578V75.3457C189.634 74.4889 189.005 73.901 188.449 73.582C187.902 73.2539 187.26 73.0898 186.521 73.0898C185.364 73.0898 184.402 73.4954 183.637 74.3066C182.871 75.1178 182.488 76.1341 182.488 77.3555C182.488 78.6042 182.857 79.6296 183.596 80.4316C184.343 81.2337 185.296 81.6348 186.453 81.6348C187.191 81.6348 187.843 81.4753 188.408 81.1562C188.955 80.8464 189.598 80.2448 190.336 79.3516V83.4121C189.087 84.0592 187.839 84.3828 186.59 84.3828C184.53 84.3828 182.807 83.7174 181.422 82.3867C180.036 81.0469 179.344 79.3835 179.344 77.3965C179.344 75.4095 180.046 73.7324 181.449 72.3652C182.853 70.998 184.576 70.3145 186.617 70.3145C187.93 70.3145 189.169 70.6289 190.336 71.2578Z" fill="black"/>
</svg>
