<svg width="281" height="157" viewBox="0 0 281 157" fill="none" xmlns="http://www.w3.org/2000/svg">
<rect x="1.78662" y="1.67563" width="277.713" height="153.649" rx="12.5" fill="white" stroke="#81DE9A" stroke-width="3"/>
<path d="M80.472 88.14C79.1467 88.14 77.9147 87.86 76.776 87.3C75.6373 86.7213 74.648 85.9467 73.808 84.976C72.968 84.0053 72.3147 82.9227 71.848 81.728C71.4 80.5333 71.176 79.3013 71.176 78.032C71.176 76.688 71.4 75.4187 71.848 74.224C72.3147 73.0107 72.9587 71.9373 73.78 71.004C74.6013 70.0707 75.572 69.3333 76.692 68.792C77.812 68.2507 79.0347 67.98 80.36 67.98C82.32 67.98 83.916 68.3813 85.148 69.184C86.38 69.9867 87.3133 71.032 87.948 72.32L86.436 73.328C85.8013 72.096 84.952 71.1907 83.888 70.612C82.824 70.0333 81.6387 69.744 80.332 69.744C79.2307 69.744 78.232 69.9773 77.336 70.444C76.4587 70.9107 75.7027 71.536 75.068 72.32C74.4333 73.104 73.948 73.9907 73.612 74.98C73.2947 75.9693 73.136 76.996 73.136 78.06C73.136 79.18 73.3227 80.244 73.696 81.252C74.0693 82.2413 74.6013 83.128 75.292 83.912C75.9827 84.6773 76.776 85.284 77.672 85.732C78.5867 86.1613 79.5667 86.376 80.612 86.376C81.8253 86.376 82.9733 86.0773 84.056 85.48C85.1387 84.864 86.1747 83.9213 87.164 82.652V84.724C85.2787 87.0013 83.048 88.14 80.472 88.14ZM86.856 79.74H82.432V78.228H88.508V88H86.856V79.74ZM98.443 88.28C97.3976 88.28 96.427 88.084 95.531 87.692C94.635 87.2813 93.8603 86.7307 93.207 86.04C92.5536 85.3307 92.0403 84.5187 91.667 83.604C91.3123 82.6893 91.135 81.7093 91.135 80.664C91.135 79.3013 91.443 78.0507 92.059 76.912C92.6936 75.7733 93.5616 74.868 94.663 74.196C95.7643 73.5053 97.015 73.16 98.415 73.16C99.8523 73.16 101.103 73.5053 102.167 74.196C103.25 74.8867 104.099 75.8013 104.715 76.94C105.331 78.06 105.639 79.292 105.639 80.636C105.639 80.7853 105.639 80.9347 105.639 81.084C105.639 81.2147 105.63 81.3173 105.611 81.392H93.123C93.2163 82.4373 93.5056 83.3707 93.991 84.192C94.495 84.9947 95.139 85.6387 95.923 86.124C96.7256 86.5907 97.5936 86.824 98.527 86.824C99.479 86.824 100.375 86.5813 101.215 86.096C102.074 85.6107 102.671 84.976 103.007 84.192L104.659 84.64C104.36 85.3307 103.903 85.956 103.287 86.516C102.671 87.076 101.943 87.5147 101.103 87.832C100.282 88.1307 99.395 88.28 98.443 88.28ZM93.067 80.02H103.847C103.772 78.956 103.483 78.0227 102.979 77.22C102.494 76.4173 101.85 75.792 101.047 75.344C100.263 74.8773 99.395 74.644 98.443 74.644C97.491 74.644 96.623 74.8773 95.839 75.344C95.055 75.792 94.411 76.4267 93.907 77.248C93.4216 78.0507 93.1416 78.9747 93.067 80.02ZM114.793 88.28C113.747 88.28 112.777 88.084 111.881 87.692C111.003 87.2813 110.238 86.7307 109.585 86.04C108.95 85.3307 108.455 84.528 108.101 83.632C107.746 82.7173 107.569 81.756 107.569 80.748C107.569 79.7027 107.746 78.732 108.101 77.836C108.455 76.9213 108.959 76.1187 109.613 75.428C110.266 74.7187 111.031 74.168 111.909 73.776C112.805 73.3653 113.775 73.16 114.821 73.16C115.866 73.16 116.827 73.3653 117.705 73.776C118.582 74.168 119.347 74.7187 120.001 75.428C120.654 76.1187 121.158 76.9213 121.513 77.836C121.867 78.732 122.045 79.7027 122.045 80.748C122.045 81.756 121.867 82.7173 121.513 83.632C121.158 84.528 120.654 85.3307 120.001 86.04C119.366 86.7307 118.601 87.2813 117.705 87.692C116.827 88.084 115.857 88.28 114.793 88.28ZM109.501 80.776C109.501 81.8587 109.734 82.848 110.201 83.744C110.686 84.6213 111.33 85.3213 112.133 85.844C112.935 86.348 113.822 86.6 114.793 86.6C115.763 86.6 116.65 86.3387 117.453 85.816C118.255 85.2933 118.899 84.584 119.385 83.688C119.87 82.7733 120.113 81.784 120.113 80.72C120.113 79.6373 119.87 78.648 119.385 77.752C118.899 76.856 118.255 76.1467 117.453 75.624C116.65 75.1013 115.763 74.84 114.793 74.84C113.822 74.84 112.935 75.1107 112.133 75.652C111.349 76.1933 110.714 76.912 110.229 77.808C109.743 78.6853 109.501 79.6747 109.501 80.776ZM146.929 88H145.025V79.852C145.025 78.1533 144.754 76.9027 144.213 76.1C143.672 75.2973 142.869 74.896 141.805 74.896C140.704 74.896 139.714 75.288 138.837 76.072C137.978 76.856 137.372 77.864 137.017 79.096V88H135.113V79.852C135.113 78.1347 134.852 76.884 134.329 76.1C133.806 75.2973 133.004 74.896 131.921 74.896C130.838 74.896 129.858 75.2787 128.981 76.044C128.104 76.8093 127.488 77.8173 127.133 79.068V88H125.229V73.412H126.965V76.716C127.581 75.5773 128.365 74.7 129.317 74.084C130.288 73.468 131.361 73.16 132.537 73.16C133.75 73.16 134.73 73.5053 135.477 74.196C136.224 74.8867 136.681 75.792 136.849 76.912C137.521 75.68 138.324 74.7467 139.257 74.112C140.209 73.4773 141.282 73.16 142.477 73.16C143.298 73.16 143.989 73.3093 144.549 73.608C145.128 73.9067 145.585 74.336 145.921 74.896C146.276 75.4373 146.528 76.1 146.677 76.884C146.845 77.6493 146.929 78.508 146.929 79.46V88ZM157.259 88.28C156.214 88.28 155.243 88.084 154.347 87.692C153.451 87.2813 152.677 86.7307 152.023 86.04C151.37 85.3307 150.857 84.5187 150.483 83.604C150.129 82.6893 149.951 81.7093 149.951 80.664C149.951 79.3013 150.259 78.0507 150.875 76.912C151.51 75.7733 152.378 74.868 153.479 74.196C154.581 73.5053 155.831 73.16 157.231 73.16C158.669 73.16 159.919 73.5053 160.983 74.196C162.066 74.8867 162.915 75.8013 163.531 76.94C164.147 78.06 164.455 79.292 164.455 80.636C164.455 80.7853 164.455 80.9347 164.455 81.084C164.455 81.2147 164.446 81.3173 164.427 81.392H151.939C152.033 82.4373 152.322 83.3707 152.807 84.192C153.311 84.9947 153.955 85.6387 154.739 86.124C155.542 86.5907 156.41 86.824 157.343 86.824C158.295 86.824 159.191 86.5813 160.031 86.096C160.89 85.6107 161.487 84.976 161.823 84.192L163.475 84.64C163.177 85.3307 162.719 85.956 162.103 86.516C161.487 87.076 160.759 87.5147 159.919 87.832C159.098 88.1307 158.211 88.28 157.259 88.28ZM151.883 80.02H162.663C162.589 78.956 162.299 78.0227 161.795 77.22C161.31 76.4173 160.666 75.792 159.863 75.344C159.079 74.8773 158.211 74.644 157.259 74.644C156.307 74.644 155.439 74.8773 154.655 75.344C153.871 75.792 153.227 76.4267 152.723 77.248C152.238 78.0507 151.958 78.9747 151.883 80.02ZM174.256 87.3C174.107 87.356 173.874 87.4587 173.556 87.608C173.239 87.7573 172.856 87.888 172.408 88C171.96 88.112 171.475 88.168 170.952 88.168C170.411 88.168 169.898 88.0653 169.412 87.86C168.946 87.6547 168.572 87.3467 168.292 86.936C168.012 86.5067 167.872 85.984 167.872 85.368V74.924H165.856V73.412H167.872V68.484H169.776V73.412H173.136V74.924H169.776V84.836C169.814 85.3587 170 85.7507 170.336 86.012C170.691 86.2733 171.092 86.404 171.54 86.404C172.063 86.404 172.539 86.32 172.968 86.152C173.398 85.9653 173.659 85.8347 173.752 85.76L174.256 87.3ZM183.915 75.092C182.646 75.1293 181.526 75.484 180.555 76.156C179.603 76.828 178.931 77.752 178.539 78.928V88H176.635V73.412H178.427V76.912C178.931 75.8853 179.594 75.0547 180.415 74.42C181.255 73.7853 182.142 73.4307 183.075 73.356C183.262 73.3373 183.42 73.328 183.551 73.328C183.7 73.328 183.822 73.3373 183.915 73.356V75.092ZM186.452 88V73.412H188.356V88H186.452ZM186.452 70.36V67.56H188.356V70.36H186.452ZM198.877 88.28C197.813 88.28 196.833 88.084 195.937 87.692C195.06 87.2813 194.285 86.7213 193.613 86.012C192.96 85.3027 192.447 84.4907 192.073 83.576C191.719 82.6613 191.541 81.6907 191.541 80.664C191.541 79.2827 191.849 78.0227 192.465 76.884C193.081 75.7453 193.94 74.84 195.041 74.168C196.143 73.496 197.412 73.16 198.849 73.16C200.212 73.16 201.416 73.4773 202.461 74.112C203.507 74.728 204.281 75.568 204.785 76.632L202.937 77.22C202.527 76.4733 201.948 75.8947 201.201 75.484C200.473 75.0547 199.661 74.84 198.765 74.84C197.795 74.84 196.908 75.092 196.105 75.596C195.303 76.1 194.659 76.7907 194.173 77.668C193.707 78.5453 193.473 79.544 193.473 80.664C193.473 81.7653 193.716 82.764 194.201 83.66C194.687 84.556 195.331 85.2747 196.133 85.816C196.936 86.3387 197.823 86.6 198.793 86.6C199.428 86.6 200.035 86.488 200.613 86.264C201.211 86.04 201.724 85.7413 202.153 85.368C202.601 84.976 202.9 84.556 203.049 84.108L204.925 84.668C204.664 85.3587 204.225 85.984 203.609 86.544C203.012 87.0853 202.303 87.5147 201.481 87.832C200.679 88.1307 199.811 88.28 198.877 88.28Z" fill="black"/>
</svg>
