<svg width="276" height="151" viewBox="0 0 276 151" fill="none" xmlns="http://www.w3.org/2000/svg">
<rect x="1.30078" y="0.675629" width="273.713" height="149.649" rx="10.5" fill="white" stroke="#ECECEC"/>
<path d="M94.68 85.008C95.2987 85.008 95.9493 84.3147 96.632 82.928C97.336 81.5627 97.944 79.888 98.456 77.904C95.832 81.5307 94.52 83.8027 94.52 84.72C94.52 84.8693 94.5733 84.9653 94.68 85.008ZM98.2 70.96C98.2 73.136 98.4133 74.928 98.84 76.336C99.3307 74.1387 99.576 72.3573 99.576 70.992C99.576 69.6053 99.3307 68.912 98.84 68.912C98.4133 68.912 98.2 69.5947 98.2 70.96ZM88.952 81.648L89.4 81.392C89.464 81.392 89.496 81.424 89.496 81.488C89.496 81.6587 89.2293 81.936 88.696 82.32C88.1627 82.704 87.7467 82.896 87.448 82.896C87.1493 82.896 87 82.7467 87 82.448C87 81.3173 88.5467 78.6613 91.64 74.48C94.7547 70.2987 97.3787 67.056 99.512 64.752L99.576 64.624C99.576 64.5813 99.544 64.56 99.48 64.56C98.648 65.1147 96.9093 65.9787 94.264 67.152C91.6187 68.304 89.72 68.88 88.568 68.88C87.928 68.88 87.608 68.6667 87.608 68.24C87.608 68.112 87.6933 67.9413 87.864 67.728C88.056 67.4933 88.184 67.376 88.248 67.376C88.3333 67.376 88.4507 67.4507 88.6 67.6C88.7493 67.728 89.208 67.792 89.976 67.792C90.7653 67.792 92.088 67.4507 93.944 66.768C95.8 66.064 97.7307 65.136 99.736 63.984C100.419 63.5787 100.984 63.1733 101.432 62.768C101.88 62.3627 102.392 61.8507 102.968 61.232C103.565 60.6133 103.949 60.2187 104.12 60.048C104.312 59.856 104.653 59.4933 105.144 58.96C105.656 58.4053 106.061 57.9787 106.36 57.68C107.192 56.8907 107.875 56.496 108.408 56.496C108.579 56.496 108.664 56.5707 108.664 56.72C108.664 57.5733 107.288 59.0027 104.536 61.008C103.491 61.7973 102.883 62.288 102.712 62.48C100.301 65.1253 97.4 68.6987 94.008 73.2C90.616 77.68 88.9093 80.464 88.888 81.552C88.888 81.616 88.9093 81.648 88.952 81.648ZM105.272 77.2L102.968 78.608C102.157 79.12 101.432 79.376 100.792 79.376C100.173 79.376 99.6187 79.152 99.128 78.704C98.5307 80.6027 97.8053 82.192 96.952 83.472C96.12 84.752 95.2987 85.392 94.488 85.392C94.2107 85.392 94.072 85.264 94.072 85.008C94.072 83.664 95.4587 81.072 98.232 77.232C97.6773 75.888 97.4 73.9893 97.4 71.536C97.4 70.704 97.528 70.0107 97.784 69.456C98.04 68.9013 98.392 68.624 98.84 68.624C99.864 68.624 100.376 69.6907 100.376 71.824C100.376 72.72 100.28 73.68 100.088 74.704C103.053 70.8427 106.435 66.8213 110.232 62.64C114.029 58.4587 116.568 55.8987 117.848 54.96C118.147 54.768 118.509 54.672 118.936 54.672C119.363 54.672 119.576 54.7467 119.576 54.896C119.576 55.0027 119.533 55.0987 119.448 55.184C119.341 55.2907 119.171 55.4507 118.936 55.664C118.701 55.8773 118.499 56.0693 118.328 56.24C110.861 63.7067 104.824 70.1813 100.216 75.664L99.832 76.144C99.8107 76.208 99.7573 76.4427 99.672 76.848C99.5867 77.232 99.512 77.52 99.448 77.712C99.896 78.48 100.472 78.864 101.176 78.864C101.581 78.864 101.976 78.7573 102.36 78.544C103 78.1813 103.757 77.712 104.632 77.136C104.781 77.0507 104.941 77.008 105.112 77.008C105.283 77.008 105.368 77.0293 105.368 77.072C105.368 77.1147 105.336 77.1573 105.272 77.2ZM113.403 78.192L113.435 78.608C110 80.8907 107.91 82.032 107.163 82.032C107.035 82.032 106.971 81.9573 106.971 81.808C106.971 81.36 107.142 80.72 107.483 79.888L107.643 79.44C107.643 79.3973 107.6 79.376 107.515 79.376C107.451 79.376 106.832 79.8027 105.659 80.656C104.507 81.5093 103.75 81.936 103.387 81.936C103.046 81.936 102.875 81.616 102.875 80.976C102.875 79.2053 103.878 77.4773 105.883 75.792C107.91 74.1067 110.342 73.264 113.179 73.264C113.435 73.264 113.563 73.3707 113.563 73.584C113.563 73.7973 112.56 75.0453 110.555 77.328C108.55 79.5893 107.547 80.9547 107.547 81.424C107.547 81.5093 107.611 81.552 107.739 81.552C107.867 81.552 108.411 81.2747 109.371 80.72C110.331 80.1653 111.238 79.6107 112.091 79.056L113.403 78.192ZM108.315 78.224C108.678 77.9467 109.382 77.2107 110.427 76.016C111.472 74.8213 111.995 74.128 111.995 73.936C111.995 73.8507 111.91 73.808 111.739 73.808C110.758 73.808 109.616 74.2667 108.315 75.184C107.014 76.08 105.904 77.104 104.987 78.256C104.091 79.408 103.643 80.336 103.643 81.04C103.643 81.168 103.707 81.232 103.835 81.232C103.963 81.232 104.166 81.1573 104.443 81.008C104.742 80.8373 105.094 80.6133 105.499 80.336C105.926 80.0373 106.288 79.7813 106.587 79.568C107.611 78.8 108.187 78.352 108.315 78.224ZM113.048 78.864L112.952 78.48L114.008 77.808C115.608 76.7413 116.61 75.9947 117.016 75.568C117.421 75.12 117.666 74.8427 117.752 74.736C118.306 74.032 118.616 73.6373 118.68 73.552C118.936 73.6373 119.064 73.8933 119.064 74.32C118.637 74.9387 118.061 75.6853 117.336 76.56C116.61 77.4133 116.013 78.128 115.544 78.704C115.074 79.2587 114.84 79.5787 114.84 79.664C114.84 79.7493 114.85 79.792 114.872 79.792C114.914 79.792 115.074 79.6853 115.352 79.472C115.65 79.2373 116.44 78.672 117.72 77.776C120.301 75.984 121.944 74.8533 122.648 74.384C123.352 73.8933 123.8 73.648 123.992 73.648C124.205 73.648 124.312 73.8613 124.312 74.288C124.312 74.6933 123.992 75.312 123.352 76.144C122.712 76.976 122.008 77.744 121.24 78.448C119.192 80.3253 118.168 81.36 118.168 81.552C118.168 81.5733 118.21 81.584 118.296 81.584C118.552 81.584 119.992 80.7413 122.616 79.056L123.928 78.192L123.96 78.608C120.525 80.8907 118.434 82.032 117.688 82.032C117.56 82.032 117.496 81.968 117.496 81.84C117.496 81.0507 117.986 80.1227 118.968 79.056C119.97 77.968 120.962 76.9973 121.944 76.144C122.925 75.2693 123.416 74.6933 123.416 74.416C123.416 74.3733 123.394 74.352 123.352 74.352C122.733 74.6507 121.293 75.6 119.032 77.2C116.792 78.7787 115.48 79.7067 115.096 79.984C114.093 80.7307 113.56 81.1253 113.496 81.168C113.453 81.1893 113.346 81.296 113.176 81.488C112.792 81.8933 112.44 82.096 112.12 82.096C111.608 82.0533 111.341 82.0213 111.32 82C111.298 81.9787 111.288 81.9573 111.288 81.936C111.288 81.9147 111.469 81.712 111.832 81.328C112.173 80.9653 112.514 80.6027 112.856 80.24C113.986 78.9813 114.765 78.0853 115.192 77.552L113.048 78.864ZM123.518 81.456C124.094 81.456 125.513 80.624 127.774 78.96C130.035 77.2747 131.657 75.664 132.638 74.128C132.638 73.9787 132.51 73.904 132.254 73.904C131.657 73.904 130.643 74.352 129.214 75.248C127.785 76.144 126.451 77.2 125.214 78.416C123.998 79.6107 123.39 80.5707 123.39 81.296C123.39 81.4027 123.433 81.456 123.518 81.456ZM127.934 82.192C127.678 82.192 127.55 82.0533 127.55 81.776C127.55 81.4773 127.614 81.1787 127.742 80.88C127.891 80.5813 128.105 80.208 128.382 79.76C128.745 79.184 128.979 78.7467 129.086 78.448L129.054 78.416C125.833 80.7627 123.849 81.936 123.102 81.936C122.867 81.936 122.75 81.7227 122.75 81.296C122.75 80.1867 123.145 79.12 123.934 78.096C124.745 77.072 125.715 76.24 126.846 75.6C127.977 74.9387 129.107 74.416 130.238 74.032C131.369 73.648 132.318 73.456 133.086 73.456C137.374 68.7413 140.723 64.8267 143.134 61.712C143.625 61.072 144.179 60.7413 144.798 60.72C144.99 60.72 145.086 60.8053 145.086 60.976C145.086 61.1467 143.667 62.8427 140.83 66.064C137.993 69.2853 135.155 72.5707 132.318 75.92C129.481 79.2693 128.062 81.1893 128.062 81.68C128.062 81.7653 128.115 81.808 128.222 81.808C128.329 81.808 128.755 81.6267 129.502 81.264C130.249 80.9013 130.921 80.5387 131.518 80.176L134.654 78.192L134.686 78.608C131.145 80.9973 128.894 82.192 127.934 82.192ZM149.467 72.656C149.297 72.656 148.87 73.0613 148.187 73.872C147.505 74.6827 146.854 75.5573 146.235 76.496C148.454 74.4267 149.563 73.1787 149.563 72.752C149.563 72.688 149.531 72.656 149.467 72.656ZM139.035 73.36C139.569 73.36 139.835 73.4453 139.835 73.616C139.835 73.68 139.771 73.7973 139.643 73.968C139.515 74.1173 138.939 74.7573 137.915 75.888C135.078 79.024 133.659 80.784 133.659 81.168C133.659 81.1893 133.681 81.2 133.723 81.2C134.043 81.2 134.95 80.6773 136.443 79.632C137.937 78.5867 138.961 77.8293 139.515 77.36C140.091 76.8693 140.806 76.176 141.659 75.28C142.534 74.3627 143.014 73.8507 143.099 73.744C143.206 73.616 143.281 73.52 143.323 73.456C143.473 73.2853 143.739 73.1787 144.123 73.136C144.721 73.2 145.019 73.328 145.019 73.52C145.019 73.6267 144.923 73.7973 144.731 74.032C143.899 74.864 142.641 76.2187 140.955 78.096C139.27 79.9733 138.427 81.1253 138.427 81.552C138.427 81.6373 138.481 81.68 138.587 81.68C139.739 81.68 141.862 80.336 144.955 77.648C145.595 76.4747 146.449 75.248 147.515 73.968C148.603 72.688 149.339 72.048 149.723 72.048C149.958 72.048 150.075 72.144 150.075 72.336C150.075 72.72 149.638 73.4133 148.763 74.416C147.91 75.3973 146.843 76.4533 145.563 77.584C145.115 78.3093 144.891 78.7893 144.891 79.024C144.891 79.2587 144.998 79.376 145.211 79.376C145.787 79.376 146.598 78.9707 147.643 78.16L147.803 78.448C146.459 79.4507 145.489 79.952 144.891 79.952C144.529 79.952 144.347 79.7493 144.347 79.344C144.347 79.1307 144.433 78.8213 144.603 78.416C143.281 79.504 142.033 80.4107 140.859 81.136C139.686 81.84 138.79 82.2027 138.171 82.224C137.745 82.224 137.531 82.0427 137.531 81.68C137.531 81.296 137.83 80.6027 138.427 79.6C139.046 78.5973 139.355 78.0747 139.355 78.032C139.355 77.9893 139.345 77.968 139.323 77.968C139.259 77.968 139.089 78.0853 138.811 78.32C138.534 78.5547 137.702 79.1627 136.315 80.144C134.95 81.1253 134.118 81.6693 133.819 81.776C133.521 81.8613 133.318 81.904 133.211 81.904C132.891 81.904 132.731 81.68 132.731 81.232C132.731 80.784 133.211 79.8987 134.171 78.576C135.153 77.2533 136.134 76.0587 137.115 74.992C138.118 73.904 138.683 73.36 138.811 73.36H139.035ZM157.254 77.232L157.51 77.52C156.528 78.1173 155.728 78.6187 155.11 79.024C154.491 79.4293 154.022 79.632 153.702 79.632C153.232 79.632 152.998 79.4293 152.998 79.024C152.998 78.7253 153.158 78.1387 153.478 77.264C153.819 76.368 154.054 75.7387 154.182 75.376L154.086 75.28C154 75.28 153.904 75.3227 153.798 75.408C151.643 77.136 150.246 78.2987 149.606 78.896C148.987 79.4933 148.379 80.1333 147.782 80.816C147.206 81.4987 146.886 81.872 146.822 81.936C146.779 82 146.747 82.0427 146.726 82.064C146.662 82.128 146.448 82.16 146.085 82.16C145.701 82.16 145.509 82.128 145.509 82.064C145.552 82 145.819 81.7013 146.309 81.168C147.504 79.8667 148.582 78.6187 149.542 77.424L148.614 77.968C147.632 78.5653 146.918 79.0133 146.47 79.312L146.341 78.96L148.358 77.68C149.083 77.2107 149.702 76.72 150.214 76.208C150.747 75.696 151.11 75.28 151.302 74.96C151.494 74.64 151.664 74.3733 151.814 74.16C151.963 73.9467 152.102 73.84 152.23 73.84C152.358 73.84 152.56 73.9147 152.838 74.064C152.838 74.2773 152.667 74.6507 152.326 75.184C151.984 75.7173 151.643 76.1973 151.302 76.624L150.79 77.232C150.79 77.2747 150.8 77.296 150.822 77.296C150.886 77.296 150.96 77.264 151.046 77.2C151.131 77.1147 151.483 76.816 152.102 76.304C152.742 75.7707 153.296 75.3227 153.766 74.96C154.235 74.576 154.768 74.2133 155.366 73.872C155.984 73.5307 156.432 73.36 156.71 73.36C156.987 73.36 157.126 73.424 157.126 73.552C157.126 73.7227 156.603 74.0853 155.558 74.64C155.323 74.768 154.96 75.3867 154.47 76.496C154 77.584 153.766 78.384 153.766 78.896C153.766 79.0027 153.862 79.056 154.054 79.056C154.267 79.056 154.672 78.864 155.27 78.48L157.254 77.232ZM162.594 71.344C162.231 71.344 162.05 71.184 162.05 70.864C162.05 70.5227 162.21 70.2027 162.53 69.904C162.85 69.6053 163.116 69.456 163.33 69.456C163.564 69.456 163.735 69.52 163.842 69.648C163.97 69.776 164.034 69.9253 164.034 70.096C164.034 70.2667 163.884 70.5227 163.586 70.864C163.287 71.184 162.956 71.344 162.594 71.344ZM154.498 81.456C154.732 80.9227 155.671 79.7067 157.314 77.808C158.978 75.9093 160.236 74.5333 161.09 73.68C161.218 73.5093 161.282 73.392 161.282 73.328C161.282 73.2427 161.196 73.1893 161.026 73.168L160.29 73.104C160.119 73.104 159.959 73.1893 159.81 73.36C158.359 74.832 156.983 76.4427 155.682 78.192C154.402 79.92 153.762 80.9973 153.762 81.424C153.762 81.8293 153.89 82.032 154.146 82.032C154.487 82.032 155.18 81.7547 156.226 81.2C157.271 80.624 158.231 80.048 159.106 79.472L160.418 78.608L160.386 78.192C156.951 80.4533 155.042 81.584 154.658 81.584C154.551 81.584 154.498 81.5413 154.498 81.456ZM165.136 78.576C161.786 80.8587 159.653 82 158.736 82C158.501 82 158.384 81.9253 158.384 81.776C158.384 81.1787 159.152 79.824 160.688 77.712C162.224 75.6 163.994 73.36 166 70.992C163.952 70.9493 162.693 70.928 162.224 70.928C161.754 70.928 161.52 70.8107 161.52 70.576C161.52 70.4907 161.616 70.448 161.808 70.448L166.384 70.544C168.986 67.4933 170.426 65.968 170.704 65.968C171.28 65.968 171.568 66.064 171.568 66.256C171.568 66.4267 170.384 67.8667 168.016 70.576L173.392 70.672C173.669 70.672 173.808 70.7147 173.808 70.8C173.808 70.864 173.765 70.9067 173.68 70.928C173.552 70.992 172.496 71.024 170.512 71.024H167.632C166.245 72.6027 165.232 73.7547 164.592 74.48C163.952 75.184 163.12 76.1333 162.096 77.328C160.197 79.5467 159.248 80.8693 159.248 81.296C159.248 81.3813 159.322 81.424 159.472 81.424C159.642 81.424 160.186 81.1787 161.104 80.688C162.021 80.176 162.714 79.7493 163.184 79.408L165.104 78.224L165.136 78.576ZM169.761 78.576C166.411 80.8587 164.278 82 163.361 82C163.126 82 163.009 81.9253 163.009 81.776C163.009 81.1787 163.777 79.824 165.313 77.712C166.849 75.6 168.619 73.36 170.625 70.992C168.577 70.9493 167.318 70.928 166.849 70.928C166.379 70.928 166.145 70.8107 166.145 70.576C166.145 70.4907 166.241 70.448 166.433 70.448L171.009 70.544C173.611 67.4933 175.051 65.968 175.329 65.968C175.905 65.968 176.193 66.064 176.193 66.256C176.193 66.4267 175.009 67.8667 172.641 70.576L178.017 70.672C178.294 70.672 178.433 70.7147 178.433 70.8C178.433 70.864 178.39 70.9067 178.305 70.928C178.177 70.992 177.121 71.024 175.137 71.024H172.257C170.87 72.6027 169.857 73.7547 169.217 74.48C168.577 75.184 167.745 76.1333 166.721 77.328C164.822 79.5467 163.873 80.8693 163.873 81.296C163.873 81.3813 163.947 81.424 164.097 81.424C164.267 81.424 164.811 81.1787 165.729 80.688C166.646 80.176 167.339 79.7493 167.809 79.408L169.729 78.224L169.761 78.576ZM176.658 73.776C176.658 73.712 176.615 73.68 176.53 73.68C175.954 73.68 175.058 74.1813 173.842 75.184C172.626 76.1867 171.57 77.2853 170.674 78.48C171.74 78.1387 172.999 77.3707 174.45 76.176C175.922 74.9813 176.658 74.1813 176.658 73.776ZM169.266 81.328C169.266 81.6053 169.372 81.744 169.586 81.744C169.842 81.744 170.418 81.5733 171.314 81.232C172.21 80.8693 172.946 80.5173 173.522 80.176L176.658 78.192L176.69 78.608C174.45 80.1013 172.775 81.0507 171.666 81.456C170.578 81.8613 169.852 82.064 169.49 82.064C168.892 82.064 168.594 81.6907 168.594 80.944C168.594 79.9413 168.956 78.9387 169.682 77.936C170.407 76.9333 171.25 76.112 172.21 75.472C173.191 74.832 174.13 74.3093 175.026 73.904C175.943 73.4987 176.636 73.296 177.106 73.296C177.575 73.296 177.81 73.456 177.81 73.776C177.81 74.5653 176.871 75.5253 174.994 76.656C173.138 77.7867 171.591 78.5333 170.354 78.896C169.628 79.9413 169.266 80.752 169.266 81.328ZM176.298 78.864L176.202 78.48L177.258 77.808C178.858 76.7413 179.86 75.9947 180.266 75.568C180.671 75.12 180.916 74.8427 181.002 74.736C181.556 74.032 181.866 73.6373 181.93 73.552C182.186 73.6373 182.314 73.8933 182.314 74.32C181.887 74.9387 181.311 75.6853 180.586 76.56C179.86 77.4133 179.263 78.128 178.794 78.704C178.324 79.2587 178.09 79.5787 178.09 79.664C178.09 79.7493 178.1 79.792 178.122 79.792C178.164 79.792 178.324 79.6853 178.602 79.472C178.9 79.2373 179.69 78.672 180.97 77.776C183.551 75.984 185.194 74.8533 185.898 74.384C186.602 73.8933 187.05 73.648 187.242 73.648C187.455 73.648 187.562 73.8613 187.562 74.288C187.562 74.6933 187.242 75.312 186.602 76.144C185.962 76.976 185.258 77.744 184.49 78.448C182.442 80.3253 181.418 81.36 181.418 81.552C181.418 81.5733 181.46 81.584 181.546 81.584C181.802 81.584 183.242 80.7413 185.866 79.056L187.178 78.192L187.21 78.608C183.775 80.8907 181.684 82.032 180.938 82.032C180.81 82.032 180.746 81.968 180.746 81.84C180.746 81.0507 181.236 80.1227 182.218 79.056C183.22 77.968 184.212 76.9973 185.194 76.144C186.175 75.2693 186.666 74.6933 186.666 74.416C186.666 74.3733 186.644 74.352 186.602 74.352C185.983 74.6507 184.543 75.6 182.282 77.2C180.042 78.7787 178.73 79.7067 178.346 79.984C177.343 80.7307 176.81 81.1253 176.746 81.168C176.703 81.1893 176.596 81.296 176.426 81.488C176.042 81.8933 175.69 82.096 175.37 82.096C174.858 82.0533 174.591 82.0213 174.57 82C174.548 81.9787 174.538 81.9573 174.538 81.936C174.538 81.9147 174.719 81.712 175.082 81.328C175.423 80.9653 175.764 80.6027 176.106 80.24C177.236 78.9813 178.015 78.0853 178.442 77.552L176.298 78.864Z" fill="black"/>
</svg>
