<svg width="276" height="151" viewBox="0 0 276 151" fill="none" xmlns="http://www.w3.org/2000/svg">
<rect x="0.814453" y="0.675629" width="273.713" height="149.649" rx="10.5" fill="white" stroke="#ECECEC"/>
<path d="M118.824 86.816C117.544 86.816 116.264 86.6347 114.984 86.272C113.704 85.9307 112.435 85.4933 111.176 84.96C109.917 84.448 108.68 83.9467 107.464 83.456C106.547 83.9253 105.555 84.3413 104.488 84.704C103.421 85.088 102.312 85.3013 101.16 85.344C99.752 85.344 98.7173 85.088 98.056 84.576C97.3947 84.064 97.064 83.456 97.064 82.752C97.064 82.048 97.3947 81.3973 98.056 80.8C98.7173 80.2027 99.6347 79.904 100.808 79.904C101.832 79.904 102.899 80.1387 104.008 80.608C105.117 81.0773 106.269 81.6213 107.464 82.24C108.275 81.5573 109.075 80.7893 109.864 79.936C110.675 79.0613 111.475 78.1333 112.264 77.152C111.688 77.1093 111.069 77.0027 110.408 76.832C109.768 76.64 109.16 76.3947 108.584 76.096C108.008 75.776 107.528 75.392 107.144 74.944C106.781 74.4747 106.6 73.9307 106.6 73.312C106.6 72.608 106.803 72.0107 107.208 71.52C107.613 71.008 108.136 70.592 108.776 70.272C109.437 69.952 110.141 69.7173 110.888 69.568C111.656 69.3973 112.392 69.312 113.096 69.312C113.928 69.312 114.717 69.3867 115.464 69.536C116.211 69.664 116.893 69.8453 117.512 70.08C118.28 69.1413 119.091 68.2773 119.944 67.488C120.797 66.6773 121.683 66.0267 122.6 65.536C123.539 65.0453 124.509 64.8 125.512 64.8C126.344 64.8 126.952 65.024 127.336 65.472C127.741 65.8987 127.944 66.4533 127.944 67.136C127.944 67.9893 127.645 68.9493 127.048 70.016C126.472 71.0827 125.608 72.128 124.456 73.152C123.304 74.176 121.885 75.0507 120.2 75.776C118.536 76.5013 116.627 76.9493 114.472 77.12C113.619 78.2293 112.701 79.2747 111.72 80.256C110.76 81.2373 109.693 82.0907 108.52 82.816C109.565 83.3493 110.621 83.872 111.688 84.384C112.776 84.9173 113.885 85.344 115.016 85.664C116.168 86.0053 117.341 86.176 118.536 86.176C119.219 86.176 119.901 86.08 120.584 85.888C121.267 85.7173 121.843 85.3973 122.312 84.928C122.781 84.48 123.016 83.8613 123.016 83.072C123.016 82.3253 122.728 81.792 122.152 81.472C121.597 81.152 120.915 80.992 120.104 80.992C119.549 80.992 118.941 81.088 118.28 81.28C117.64 81.4507 117.085 81.7067 116.616 82.048C116.531 82.112 116.456 82.144 116.392 82.144C116.328 82.144 116.296 82.1227 116.296 82.08C116.296 81.8667 116.531 81.6427 117 81.408C117.469 81.152 118.024 80.9387 118.664 80.768C119.325 80.576 119.901 80.48 120.392 80.48C120.861 80.48 121.405 80.5653 122.024 80.736C122.643 80.8853 123.187 81.152 123.656 81.536C124.125 81.92 124.36 82.4533 124.36 83.136C124.36 83.9893 124.072 84.6827 123.496 85.216C122.92 85.7707 122.205 86.176 121.352 86.432C120.52 86.688 119.677 86.816 118.824 86.816ZM114.92 76.544C116.84 76.3307 118.547 75.8507 120.04 75.104C121.555 74.3573 122.845 73.4933 123.912 72.512C124.979 71.5093 125.789 70.5067 126.344 69.504C126.899 68.5013 127.176 67.6373 127.176 66.912C127.176 66.4213 127.037 66.0267 126.76 65.728C126.504 65.4293 126.099 65.28 125.544 65.28C125.011 65.28 124.456 65.44 123.88 65.76C123.304 66.0587 122.739 66.4427 122.184 66.912C121.651 67.3813 121.16 67.8613 120.712 68.352C120.285 68.8213 119.955 69.2267 119.72 69.568L118.856 70.784C119.475 71.2107 119.997 71.7013 120.424 72.256C120.509 72.3627 120.552 72.512 120.552 72.704C120.552 72.832 120.531 72.896 120.488 72.896C120.467 72.896 120.435 72.864 120.392 72.8C119.901 72.1813 119.293 71.648 118.568 71.2C117.992 72.0533 117.405 72.9387 116.808 73.856C116.211 74.752 115.581 75.648 114.92 76.544ZM112.648 76.64C113.267 75.8933 113.949 74.9653 114.696 73.856C115.443 72.7467 116.264 71.6373 117.16 70.528C115.88 70.0373 114.472 69.792 112.936 69.792C112.467 69.792 111.933 69.8773 111.336 70.048C110.76 70.1973 110.205 70.432 109.672 70.752C109.16 71.0507 108.733 71.424 108.392 71.872C108.051 72.32 107.88 72.8427 107.88 73.44C107.88 74.1227 108.136 74.6987 108.648 75.168C109.16 75.6373 109.789 75.9893 110.536 76.224C111.283 76.4587 111.987 76.5973 112.648 76.64ZM101.16 84.832C102.12 84.832 103.037 84.6613 103.912 84.32C104.787 84 105.629 83.5627 106.44 83.008C105.331 82.56 104.253 82.1867 103.208 81.888C102.184 81.568 101.203 81.408 100.264 81.408C99.3893 81.408 98.76 81.536 98.376 81.792C97.992 82.048 97.8 82.3573 97.8 82.72C97.8 83.1893 98.1093 83.6587 98.728 84.128C99.3467 84.5973 100.157 84.832 101.16 84.832ZM126.86 84C126.348 84 125.986 83.8827 125.772 83.648C125.559 83.4133 125.452 83.1147 125.452 82.752C125.452 82.3893 125.538 81.9947 125.708 81.568C125.858 81.12 126.05 80.6827 126.284 80.256C126.69 79.5733 127.148 78.8907 127.66 78.208C128.194 77.504 128.727 76.8533 129.26 76.256C129.815 75.6587 130.306 75.1467 130.732 74.72C131.138 74.3147 131.554 74.016 131.98 73.824C132.407 73.632 132.77 73.504 133.068 73.44C133.388 73.3547 133.548 73.312 133.548 73.312C133.079 73.8453 132.439 74.6027 131.628 75.584C130.839 76.5653 130.039 77.6107 129.228 78.72C129.143 78.8267 128.983 79.0507 128.748 79.392C128.535 79.7333 128.3 80.1173 128.044 80.544C127.788 80.9493 127.564 81.3547 127.372 81.76C127.202 82.144 127.116 82.4533 127.116 82.688C127.116 82.9227 127.244 83.0293 127.5 83.008C127.778 82.9867 128.14 82.784 128.588 82.4C129.036 82.016 129.516 81.5467 130.028 80.992C130.54 80.4373 131.02 79.8933 131.468 79.36C131.938 78.8053 132.322 78.3467 132.62 77.984C132.855 77.7067 133.143 77.3653 133.484 76.96C133.826 76.5333 134.178 76.096 134.54 75.648C134.903 75.2 135.234 74.8053 135.532 74.464C135.874 74.08 136.236 73.8133 136.62 73.664C137.004 73.4933 137.335 73.3973 137.612 73.376C137.911 73.3333 138.06 73.312 138.06 73.312C137.89 73.5253 137.548 73.9413 137.036 74.56C136.546 75.1787 135.991 75.9147 135.372 76.768C134.754 77.6 134.167 78.4747 133.612 79.392C133.058 80.288 132.631 81.1413 132.332 81.952C132.183 82.3147 132.108 82.6133 132.108 82.848C132.108 83.0613 132.162 83.2107 132.268 83.296C132.375 83.36 132.492 83.392 132.62 83.392C132.919 83.392 133.25 83.264 133.612 83.008C133.996 82.752 134.359 82.4533 134.7 82.112C135.063 81.7493 135.383 81.408 135.66 81.088C135.938 80.768 136.119 80.5547 136.204 80.448C136.29 80.448 136.332 80.512 136.332 80.64C136.332 80.832 136.29 80.9813 136.204 81.088C135.884 81.472 135.49 81.888 135.02 82.336C134.572 82.784 134.092 83.1787 133.58 83.52C133.09 83.84 132.599 84 132.108 84C131.575 84 131.202 83.872 130.988 83.616C130.775 83.36 130.668 83.04 130.668 82.656C130.668 82.2933 130.743 81.8987 130.892 81.472C131.042 81.024 131.223 80.608 131.436 80.224C131.18 80.48 130.871 80.8213 130.508 81.248C130.167 81.6533 129.783 82.0693 129.356 82.496C128.93 82.9227 128.503 83.2853 128.076 83.584C127.65 83.8613 127.244 84 126.86 84ZM135.899 84.512C135.643 84.512 135.44 84.4373 135.291 84.288C135.12 84.1387 135.035 83.968 135.035 83.776C135.035 83.5413 135.131 83.3493 135.323 83.2C135.429 83.3067 135.632 83.36 135.931 83.36C136.208 83.36 136.507 83.3173 136.827 83.232C137.147 83.1253 137.424 82.9973 137.659 82.848C138.363 82.336 139.067 81.632 139.771 80.736C140.496 79.8187 141.104 78.944 141.595 78.112C141.979 77.3013 142.288 76.6293 142.523 76.096C142.779 75.5413 142.907 75.1253 142.907 74.848C142.907 74.656 142.832 74.528 142.683 74.464C142.555 74.4213 142.459 74.4 142.395 74.4C142.075 74.4 141.723 74.56 141.339 74.88C140.955 75.1787 140.549 75.5733 140.123 76.064C139.717 76.5547 139.323 77.056 138.939 77.568L136.219 81.152C135.899 81.4933 135.525 81.888 135.099 82.336C134.672 82.784 134.213 83.1787 133.723 83.52C133.211 83.84 132.677 84 132.123 84C132.08 84 132.059 83.9893 132.059 83.968C132.059 83.968 132.091 83.9467 132.155 83.904C132.219 83.8613 132.315 83.808 132.443 83.744C133.189 83.3813 133.872 82.912 134.491 82.336C135.109 81.76 135.685 81.1307 136.219 80.448C137.221 79.168 138.149 77.9307 139.003 76.736C139.856 75.5413 140.741 74.6027 141.659 73.92C142.192 73.536 142.736 73.344 143.291 73.344C143.632 73.344 143.92 73.44 144.155 73.632C144.389 73.8027 144.507 74.0907 144.507 74.496C144.507 74.9653 144.325 75.552 143.963 76.256C143.899 76.3413 143.835 76.448 143.771 76.576C143.728 76.6827 143.675 76.7893 143.611 76.896C144.08 76.384 144.624 75.84 145.243 75.264C145.883 74.6667 146.523 74.1547 147.163 73.728C147.803 73.3013 148.357 73.088 148.827 73.088C149.061 73.088 149.232 73.1627 149.339 73.312C149.467 73.44 149.531 73.5893 149.531 73.76C149.531 73.888 149.499 74.016 149.435 74.144C149.371 74.272 149.253 74.368 149.083 74.432C148.933 74.2827 148.731 74.208 148.475 74.208C148.261 74.208 148.016 74.2613 147.739 74.368C147.483 74.4533 147.216 74.56 146.939 74.688C146.213 75.072 145.488 75.6267 144.763 76.352C144.059 77.056 143.429 77.7813 142.875 78.528C142.597 79.1893 142.341 79.8613 142.107 80.544C141.893 81.2267 141.787 81.8347 141.787 82.368C141.787 83.0293 142.064 83.36 142.619 83.36C142.917 83.36 143.269 83.2533 143.675 83.04C144.208 82.7413 144.699 82.3573 145.147 81.888C145.616 81.4187 146.064 80.9387 146.491 80.448C146.576 80.448 146.619 80.512 146.619 80.64C146.619 80.832 146.576 80.9813 146.491 81.088C145.552 82.176 144.741 82.944 144.059 83.392C143.397 83.8187 142.683 84.032 141.915 84.032C141.573 84.032 141.211 83.8933 140.827 83.616C140.464 83.3387 140.283 82.848 140.283 82.144C140.283 81.9093 140.304 81.664 140.347 81.408C140.389 81.152 140.464 80.864 140.571 80.544C140.101 81.2053 139.568 81.8667 138.971 82.528C138.395 83.168 137.84 83.6693 137.307 84.032C136.837 84.352 136.368 84.512 135.899 84.512ZM147.204 84C146.692 84 146.329 83.8827 146.116 83.648C145.903 83.4133 145.796 83.1147 145.796 82.752C145.796 82.3893 145.881 81.9947 146.052 81.568C146.201 81.12 146.393 80.6827 146.628 80.256C147.033 79.5733 147.492 78.8907 148.004 78.208C148.537 77.504 149.071 76.8533 149.604 76.256C150.159 75.6587 150.649 75.1467 151.076 74.72C151.481 74.3147 151.897 74.016 152.324 73.824C152.751 73.632 153.113 73.504 153.412 73.44C153.732 73.3547 153.892 73.312 153.892 73.312C153.423 73.8453 152.783 74.6027 151.972 75.584C151.183 76.5653 150.383 77.6107 149.572 78.72C149.487 78.8267 149.327 79.0507 149.092 79.392C148.879 79.7333 148.644 80.1173 148.388 80.544C148.132 80.9493 147.908 81.3547 147.716 81.76C147.545 82.144 147.46 82.4533 147.46 82.688C147.46 82.9227 147.588 83.0293 147.844 83.008C148.121 82.9867 148.484 82.784 148.932 82.4C149.38 82.016 149.86 81.5467 150.372 80.992C150.884 80.4373 151.364 79.8933 151.812 79.36C152.281 78.8053 152.665 78.3467 152.964 77.984C153.199 77.7067 153.487 77.3653 153.828 76.96C154.169 76.5333 154.521 76.096 154.884 75.648C155.247 75.2 155.577 74.8053 155.876 74.464C156.217 74.08 156.58 73.8133 156.964 73.664C157.348 73.4933 157.679 73.3973 157.956 73.376C158.255 73.3333 158.404 73.312 158.404 73.312C158.233 73.5253 157.892 73.9413 157.38 74.56C156.889 75.1787 156.335 75.9147 155.716 76.768C155.097 77.6 154.511 78.4747 153.956 79.392C153.401 80.288 152.975 81.1413 152.676 81.952C152.527 82.3147 152.452 82.6133 152.452 82.848C152.452 83.0613 152.505 83.2107 152.612 83.296C152.719 83.36 152.836 83.392 152.964 83.392C153.263 83.392 153.593 83.264 153.956 83.008C154.34 82.752 154.703 82.4533 155.044 82.112C155.407 81.7493 155.727 81.408 156.004 81.088C156.281 80.768 156.463 80.5547 156.548 80.448C156.633 80.448 156.676 80.512 156.676 80.64C156.676 80.832 156.633 80.9813 156.548 81.088C156.228 81.472 155.833 81.888 155.364 82.336C154.916 82.784 154.436 83.1787 153.924 83.52C153.433 83.84 152.943 84 152.452 84C151.919 84 151.545 83.872 151.332 83.616C151.119 83.36 151.012 83.04 151.012 82.656C151.012 82.2933 151.087 81.8987 151.236 81.472C151.385 81.024 151.567 80.608 151.78 80.224C151.524 80.48 151.215 80.8213 150.852 81.248C150.511 81.6533 150.127 82.0693 149.7 82.496C149.273 82.9227 148.847 83.2853 148.42 83.584C147.993 83.8613 147.588 84 147.204 84ZM160.403 84.064C159.869 84.064 159.485 83.9253 159.251 83.648C159.037 83.3707 158.931 83.0293 158.931 82.624C158.931 82.368 158.963 82.112 159.027 81.856C159.155 81.216 159.475 80.544 159.987 79.84C160.499 79.136 161.107 78.432 161.811 77.728C162.515 77.024 163.229 76.384 163.955 75.808C164.701 75.232 165.363 74.752 165.939 74.368C165.683 74.4107 165.352 74.432 164.947 74.432C164.477 74.432 163.987 74.4107 163.475 74.368C162.963 74.304 162.611 74.208 162.419 74.08C162.333 74.2293 162.12 74.5173 161.779 74.944C161.459 75.3493 161.053 75.84 160.562 76.416C160.093 76.992 159.603 77.5787 159.091 78.176C158.579 78.7733 158.099 79.3387 157.651 79.872C157.203 80.384 156.84 80.7893 156.562 81.088C156.285 81.408 155.912 81.792 155.442 82.24C154.952 82.6667 154.472 83.0507 154.002 83.392C153.512 83.7333 153.106 83.904 152.786 83.904C152.637 83.904 152.552 83.872 152.53 83.808C152.488 83.744 152.466 83.7013 152.466 83.68C152.808 83.68 153.32 83.4453 154.002 82.976C154.664 82.4853 155.517 81.6427 156.562 80.448C157.821 78.9973 159.005 77.44 160.115 75.776C161.245 74.0907 162.259 72.3413 163.155 70.528H163.187C163.464 70.528 163.603 70.7947 163.603 71.328C163.603 71.8187 163.432 72.3947 163.091 73.056C163.005 73.2053 162.877 73.408 162.707 73.664C163.133 73.7493 163.56 73.8133 163.987 73.856C164.413 73.8773 164.808 73.888 165.171 73.888C165.469 73.888 165.747 73.8773 166.003 73.856C166.259 73.8347 166.461 73.8027 166.611 73.76C166.803 73.76 166.899 73.8027 166.899 73.888C166.92 73.952 166.909 74.0053 166.867 74.048C166.781 74.1333 166.6 74.3253 166.323 74.624C166.067 74.9227 165.768 75.2533 165.427 75.616C165.107 75.9573 164.808 76.288 164.531 76.608C164.253 76.9067 164.051 77.1307 163.923 77.28C163.261 78.0693 162.6 78.9333 161.939 79.872C161.299 80.8107 160.851 81.6533 160.595 82.4C160.509 82.592 160.467 82.7733 160.467 82.944C160.467 83.2427 160.605 83.392 160.883 83.392C161.181 83.392 161.555 83.2213 162.003 82.88C162.451 82.5173 162.899 82.1013 163.347 81.632C163.816 81.1627 164.189 80.768 164.467 80.448C164.552 80.448 164.595 80.512 164.595 80.64C164.595 80.832 164.552 80.9813 164.467 81.088C163.485 82.24 162.685 83.0293 162.067 83.456C161.469 83.8613 160.915 84.064 160.403 84.064ZM160.437 91.872C159.818 91.872 159.391 91.8187 159.157 91.712C158.901 91.6267 158.773 91.552 158.773 91.488C158.773 91.4027 158.847 91.36 158.997 91.36C159.103 91.36 159.21 91.36 159.317 91.36C159.423 91.3813 159.53 91.392 159.637 91.392C160.405 91.392 161.173 91.1573 161.941 90.688C162.709 90.2187 163.455 89.5893 164.181 88.8C164.906 88.032 165.599 87.1787 166.261 86.24C166.922 85.3013 167.519 84.3733 168.053 83.456L170.517 79.2C170.239 79.52 169.877 79.9467 169.429 80.48C169.002 81.0133 168.533 81.5467 168.021 82.08C167.509 82.6133 167.007 83.072 166.517 83.456C166.026 83.8187 165.567 84 165.141 84C164.629 84 164.266 83.8827 164.053 83.648C163.839 83.4133 163.733 83.1147 163.733 82.752C163.733 82.3893 163.818 81.9947 163.989 81.568C164.138 81.1413 164.33 80.7147 164.565 80.288C164.97 79.6053 165.429 78.9227 165.941 78.24C166.474 77.536 167.007 76.8853 167.541 76.288C168.095 75.6693 168.586 75.1467 169.013 74.72C169.418 74.3147 169.834 74.016 170.261 73.824C170.687 73.632 171.05 73.504 171.349 73.44C171.669 73.3547 171.829 73.312 171.829 73.312C171.359 73.8453 170.719 74.6027 169.909 75.584C169.119 76.5653 168.319 77.6107 167.509 78.72C167.423 78.8267 167.263 79.0507 167.029 79.392C166.815 79.7333 166.581 80.1173 166.325 80.544C166.069 80.9493 165.845 81.3547 165.653 81.76C165.482 82.144 165.397 82.4533 165.397 82.688C165.397 82.9227 165.525 83.0293 165.781 83.008C166.058 82.9867 166.421 82.784 166.869 82.4C167.317 82.016 167.797 81.5467 168.309 80.992C168.821 80.4373 169.301 79.8933 169.749 79.36C170.218 78.8053 170.602 78.3467 170.901 77.984C171.199 77.6427 171.551 77.216 171.957 76.704C172.362 76.192 172.799 75.68 173.269 75.168C173.738 74.6347 174.229 74.1973 174.741 73.856C175.274 73.4933 175.807 73.312 176.341 73.312C176.533 73.312 176.65 73.3333 176.693 73.376C175.925 73.7387 175.21 74.3253 174.549 75.136C173.887 75.9467 173.258 76.896 172.661 77.984C172.063 79.072 171.455 80.224 170.837 81.44C170.239 82.6347 169.599 83.808 168.917 84.96C168.234 86.1333 167.487 87.1893 166.677 88.128C165.717 89.2373 164.693 90.1333 163.605 90.816C162.495 91.52 161.439 91.872 160.437 91.872Z" fill="black"/>
</svg>
