<svg width="276" height="151" viewBox="0 0 276 151" fill="none" xmlns="http://www.w3.org/2000/svg">
<rect x="1.30078" y="0.5" width="273.713" height="149.649" rx="10.5" fill="white" stroke="#ECECEC"/>
<path d="M82.52 84V69.776L82.24 67.536H86.496L92.824 78.736L99.376 67.536H103.156V84H99.46V73.556H99.152L98.06 75.992L94.532 82.32H91.144L87.616 75.992L86.496 73.556H86.216V84H82.52ZM110.498 84C109.248 84 108.314 83.748 107.698 83.244C107.101 82.74 106.802 81.9187 106.802 80.78V75.04C106.802 74.76 106.821 74.424 106.858 74.032C106.914 73.6213 107.045 73.22 107.25 72.828C107.474 72.436 107.838 72.1093 108.342 71.848C108.865 71.5867 109.584 71.456 110.498 71.456H118.226C119.16 71.456 119.878 71.5867 120.382 71.848C120.886 72.1093 121.241 72.436 121.446 72.828C121.67 73.22 121.801 73.6213 121.838 74.032C121.894 74.424 121.922 74.76 121.922 75.04V80.416C121.922 80.752 121.894 81.1253 121.838 81.536C121.801 81.9467 121.67 82.3387 121.446 82.712C121.222 83.0853 120.858 83.3933 120.354 83.636C119.85 83.8787 119.141 84 118.226 84H110.498ZM111.562 81.592H117.162C118.077 81.592 118.534 81.2187 118.534 80.472V74.984C118.534 74.2373 118.077 73.864 117.162 73.864H111.562C110.666 73.864 110.218 74.2373 110.218 74.984V80.472C110.218 81.2187 110.666 81.592 111.562 81.592ZM128.409 84C127.475 84 126.757 83.8787 126.253 83.636C125.749 83.3933 125.385 83.0853 125.16 82.712C124.955 82.3387 124.825 81.9467 124.769 81.536C124.731 81.1253 124.713 80.752 124.713 80.416V75.04C124.713 74.76 124.731 74.424 124.769 74.032C124.825 73.6213 124.955 73.22 125.16 72.828C125.385 72.436 125.749 72.1093 126.253 71.848C126.775 71.5867 127.494 71.456 128.409 71.456H129.837C131.554 71.456 132.935 71.4933 133.981 71.568C135.045 71.624 135.857 71.6893 136.417 71.764V66.248H139.833V84H137.537L136.445 83.44C135.661 83.5707 134.718 83.7013 133.617 83.832C132.515 83.944 131.246 84 129.809 84H128.409ZM129.473 81.592H135.549C135.941 81.592 136.183 81.5453 136.277 81.452C136.37 81.3587 136.417 81.1253 136.417 80.752V74.06C135.782 74.0227 134.979 73.9853 134.009 73.948C133.038 73.892 132.002 73.864 130.901 73.864H129.473C128.577 73.864 128.129 74.2373 128.129 74.984V80.472C128.129 81.2187 128.577 81.592 129.473 81.592ZM146.893 84C145.96 84 145.241 83.8787 144.737 83.636C144.233 83.3933 143.869 83.0853 143.645 82.712C143.44 82.3387 143.309 81.9467 143.253 81.536C143.216 81.1253 143.197 80.752 143.197 80.416V75.04C143.197 74.76 143.216 74.424 143.253 74.032C143.309 73.6213 143.44 73.22 143.645 72.828C143.869 72.436 144.233 72.1093 144.737 71.848C145.26 71.5867 145.978 71.456 146.893 71.456H152.913C154.145 71.456 155.106 71.5773 155.797 71.82C156.506 72.044 157.001 72.4173 157.281 72.94C157.58 73.4627 157.729 74.1627 157.729 75.04V79.184H152.829C151.149 79.184 149.777 79.1467 148.713 79.072C147.668 78.9973 146.968 78.9507 146.613 78.932V80.472C146.594 81.2187 147.042 81.592 147.957 81.592H149.385C150.393 81.592 151.373 81.5827 152.325 81.564C153.296 81.5267 154.182 81.4893 154.985 81.452C155.788 81.396 156.432 81.3493 156.917 81.312L158.037 83.132C158.037 83.7107 156.198 84 152.521 84H146.893ZM146.613 76.776H154.313V74.984C154.313 74.6107 154.266 74.3493 154.173 74.2C154.098 74.0507 153.856 73.9573 153.445 73.92C153.034 73.8827 152.334 73.864 151.345 73.864H147.957C147.061 73.864 146.613 74.2373 146.613 74.984V76.776ZM160.84 84V71.456H163.136L164.2 72.016C164.685 71.7547 165.208 71.5493 165.768 71.4C166.328 71.2507 167.037 71.176 167.896 71.176C169.259 71.176 170.36 71.3253 171.2 71.624C172.059 71.9227 172.628 72.1467 172.908 72.296L171.928 74.732C171.704 74.62 171.331 74.48 170.808 74.312C170.304 74.1253 169.707 73.9573 169.016 73.808C168.325 73.6587 167.569 73.584 166.748 73.584H166.44C165.544 73.584 164.956 73.7613 164.676 74.116C164.415 74.4707 164.275 75.0587 164.256 75.88V84H160.84ZM174.868 84V71.456H177.164L178.284 72.016C179.068 71.8667 180.01 71.736 181.112 71.624C182.213 71.512 183.473 71.456 184.892 71.456H186.292C187.225 71.456 187.944 71.5867 188.448 71.848C188.952 72.1093 189.306 72.436 189.512 72.828C189.736 73.22 189.866 73.6213 189.904 74.032C189.96 74.424 189.988 74.76 189.988 75.04V84H186.572V74.984C186.572 74.2373 186.124 73.864 185.228 73.864H179.124C178.769 73.864 178.536 73.9013 178.424 73.976C178.33 74.032 178.284 74.2 178.284 74.48V84H174.868Z" fill="black"/>
</svg>
