<svg width="275" height="151" viewBox="0 0 275 151" fill="none" xmlns="http://www.w3.org/2000/svg">
<rect x="0.5" y="0.851257" width="273.713" height="149.649" rx="10.5" fill="white" stroke="#ECECEC"/>
<path d="M84.076 69.752V75.828C84.076 75.9773 84.16 76.052 84.328 76.052H85.728C89.0507 76.052 90.712 74.8667 90.712 72.496C90.712 70.3867 89.172 69.332 86.092 69.332C85.532 69.332 84.944 69.3787 84.328 69.472C84.16 69.5093 84.076 69.6027 84.076 69.752ZM81.808 87C81.3787 87 81.0053 86.8413 80.688 86.524C80.3707 86.2067 80.212 85.8333 80.212 85.404V68.296C80.212 67.848 80.3613 67.4467 80.66 67.092C80.9587 66.7373 81.332 66.5413 81.78 66.504C83.3667 66.3547 84.8973 66.28 86.372 66.28C89.116 66.28 91.1693 66.7933 92.532 67.82C93.8947 68.828 94.576 70.256 94.576 72.104C94.576 73.4293 94.212 74.596 93.484 75.604C92.7747 76.612 91.8133 77.3213 90.6 77.732C90.5813 77.732 90.572 77.7413 90.572 77.76C90.572 77.7973 90.5813 77.816 90.6 77.816C91.496 78.376 92.2613 79.4773 92.896 81.12L94.576 85.516C94.7067 85.8707 94.66 86.2067 94.436 86.524C94.2307 86.8413 93.9413 87 93.568 87H92.7C92.2147 87 91.776 86.8693 91.384 86.608C90.992 86.328 90.712 85.964 90.544 85.516L88.976 81.204C88.64 80.308 88.2573 79.72 87.828 79.44C87.3987 79.16 86.6613 79.02 85.616 79.02H84.328C84.16 79.02 84.076 79.104 84.076 79.272V85.404C84.076 85.8333 83.9173 86.2067 83.6 86.524C83.3013 86.8413 82.9373 87 82.508 87H81.808ZM105.699 76.052C105.158 75.268 104.337 74.876 103.235 74.876C102.134 74.876 101.303 75.268 100.743 76.052C100.202 76.8173 99.9312 78.04 99.9312 79.72C99.9312 81.4 100.202 82.632 100.743 83.416C101.303 84.1813 102.134 84.564 103.235 84.564C104.337 84.564 105.158 84.1813 105.699 83.416C106.259 82.632 106.539 81.4 106.539 79.72C106.539 78.04 106.259 76.8173 105.699 76.052ZM108.443 85.32C107.211 86.6267 105.475 87.28 103.235 87.28C100.995 87.28 99.2499 86.6267 97.9992 85.32C96.7672 83.9947 96.1512 82.128 96.1512 79.72C96.1512 77.312 96.7672 75.4547 97.9992 74.148C99.2499 72.8227 100.995 72.16 103.235 72.16C105.475 72.16 107.211 72.8227 108.443 74.148C109.694 75.4547 110.319 77.312 110.319 79.72C110.319 82.128 109.694 83.9947 108.443 85.32ZM117.773 87.28C116.131 87.28 114.936 86.832 114.189 85.936C113.443 85.0213 113.069 83.4813 113.069 81.316V74.036C113.069 73.6067 113.228 73.2333 113.545 72.916C113.863 72.5987 114.236 72.44 114.665 72.44H115.113C115.543 72.44 115.916 72.5987 116.233 72.916C116.551 73.2333 116.709 73.6067 116.709 74.036V80.924C116.709 82.2307 116.887 83.136 117.241 83.64C117.596 84.144 118.193 84.396 119.033 84.396C119.799 84.396 120.508 84.0693 121.161 83.416C121.833 82.7627 122.169 82.0627 122.169 81.316V74.036C122.169 73.6067 122.328 73.2333 122.645 72.916C122.963 72.5987 123.336 72.44 123.765 72.44H124.325C124.755 72.44 125.119 72.5987 125.417 72.916C125.735 73.2333 125.893 73.6067 125.893 74.036V85.404C125.893 85.8333 125.735 86.2067 125.417 86.524C125.119 86.8413 124.755 87 124.325 87H123.961C123.513 87 123.131 86.8507 122.813 86.552C122.515 86.2347 122.356 85.852 122.337 85.404L122.309 85.208C122.309 85.1893 122.3 85.18 122.281 85.18C122.263 85.18 122.244 85.1893 122.225 85.208C120.956 86.5893 119.472 87.28 117.773 87.28ZM131.348 87C130.919 87 130.546 86.8413 130.228 86.524C129.911 86.2067 129.752 85.8333 129.752 85.404V74.036C129.752 73.6067 129.911 73.2333 130.228 72.916C130.546 72.5987 130.919 72.44 131.348 72.44H131.712C132.16 72.44 132.534 72.5987 132.832 72.916C133.15 73.2147 133.318 73.588 133.336 74.036V74.232C133.336 74.2507 133.346 74.26 133.364 74.26C133.383 74.26 133.402 74.2507 133.42 74.232C134.69 72.8507 136.174 72.16 137.872 72.16C139.571 72.16 140.803 72.6453 141.568 73.616C142.352 74.568 142.744 76.164 142.744 78.404V85.404C142.744 85.8333 142.586 86.2067 142.268 86.524C141.951 86.8413 141.578 87 141.148 87H140.672C140.243 87 139.87 86.8413 139.552 86.524C139.254 86.2067 139.104 85.8333 139.104 85.404V78.684C139.104 77.284 138.918 76.332 138.544 75.828C138.19 75.3053 137.546 75.044 136.612 75.044C135.847 75.044 135.138 75.3707 134.484 76.024C133.831 76.6773 133.504 77.3773 133.504 78.124V85.404C133.504 85.8333 133.346 86.2067 133.028 86.524C132.711 86.8413 132.338 87 131.908 87H131.348ZM152.535 74.96C150.389 74.96 149.315 76.5467 149.315 79.72C149.315 81.3067 149.605 82.5013 150.183 83.304C150.762 84.088 151.546 84.48 152.535 84.48C153.413 84.48 154.169 84.1907 154.803 83.612C155.438 83.0333 155.755 82.3707 155.755 81.624V77.816C155.755 77.0693 155.438 76.4067 154.803 75.828C154.169 75.2493 153.413 74.96 152.535 74.96ZM151.415 87.28C149.754 87.28 148.373 86.608 147.271 85.264C146.17 83.9013 145.619 82.0533 145.619 79.72C145.619 77.312 146.142 75.4547 147.187 74.148C148.251 72.8227 149.661 72.16 151.415 72.16C153.002 72.16 154.402 72.7387 155.615 73.896C155.634 73.9147 155.653 73.924 155.671 73.924C155.69 73.924 155.699 73.9147 155.699 73.896V67.596C155.699 67.1667 155.858 66.7933 156.175 66.476C156.493 66.1587 156.866 66 157.295 66H157.855C158.285 66 158.658 66.1587 158.975 66.476C159.293 66.7933 159.451 67.1667 159.451 67.596V85.404C159.451 85.8333 159.293 86.2067 158.975 86.524C158.658 86.8413 158.285 87 157.855 87H157.547C157.099 87 156.717 86.8507 156.399 86.552C156.101 86.2347 155.942 85.852 155.923 85.404L155.895 85.208C155.895 85.1893 155.886 85.18 155.867 85.18C155.849 85.18 155.83 85.1893 155.811 85.208C154.579 86.5893 153.114 87.28 151.415 87.28ZM169.403 74.764C168.451 74.764 167.714 75.0347 167.191 75.576C166.687 76.0987 166.37 76.948 166.239 78.124C166.239 78.2733 166.314 78.348 166.463 78.348H171.951C172.1 78.348 172.175 78.2733 172.175 78.124C172.1 75.884 171.176 74.764 169.403 74.764ZM170.103 87.28C167.658 87.28 165.772 86.6453 164.447 85.376C163.14 84.088 162.487 82.2027 162.487 79.72C162.487 77.256 163.075 75.38 164.251 74.092C165.427 72.804 167.126 72.16 169.347 72.16C173.491 72.16 175.619 74.512 175.731 79.216C175.75 79.664 175.591 80.0373 175.255 80.336C174.919 80.6347 174.527 80.784 174.079 80.784H166.435C166.267 80.784 166.202 80.868 166.239 81.036C166.37 82.2867 166.78 83.2013 167.471 83.78C168.18 84.34 169.207 84.62 170.551 84.62C171.391 84.62 172.324 84.48 173.351 84.2C173.687 84.1067 173.995 84.1627 174.275 84.368C174.574 84.5733 174.723 84.8533 174.723 85.208C174.723 85.6373 174.592 86.02 174.331 86.356C174.088 86.6733 173.762 86.8693 173.351 86.944C172.306 87.168 171.223 87.28 170.103 87.28ZM185.102 74.96C182.955 74.96 181.882 76.5467 181.882 79.72C181.882 81.3067 182.171 82.5013 182.75 83.304C183.328 84.088 184.112 84.48 185.102 84.48C185.979 84.48 186.735 84.1907 187.37 83.612C188.004 83.0333 188.322 82.3707 188.322 81.624V77.816C188.322 77.0693 188.004 76.4067 187.37 75.828C186.735 75.2493 185.979 74.96 185.102 74.96ZM183.982 87.28C182.32 87.28 180.939 86.608 179.838 85.264C178.736 83.9013 178.186 82.0533 178.186 79.72C178.186 77.312 178.708 75.4547 179.754 74.148C180.818 72.8227 182.227 72.16 183.982 72.16C185.568 72.16 186.968 72.7387 188.182 73.896C188.2 73.9147 188.219 73.924 188.238 73.924C188.256 73.924 188.266 73.9147 188.266 73.896V67.596C188.266 67.1667 188.424 66.7933 188.742 66.476C189.059 66.1587 189.432 66 189.862 66H190.422C190.851 66 191.224 66.1587 191.542 66.476C191.859 66.7933 192.018 67.1667 192.018 67.596V85.404C192.018 85.8333 191.859 86.2067 191.542 86.524C191.224 86.8413 190.851 87 190.422 87H190.114C189.666 87 189.283 86.8507 188.966 86.552C188.667 86.2347 188.508 85.852 188.49 85.404L188.462 85.208C188.462 85.1893 188.452 85.18 188.434 85.18C188.415 85.18 188.396 85.1893 188.378 85.208C187.146 86.5893 185.68 87.28 183.982 87.28Z" fill="black"/>
</svg>
