<svg width="224" height="286" viewBox="0 0 224 286" fill="none" xmlns="http://www.w3.org/2000/svg">
<rect x="0.5" y="0.5" width="223" height="285" rx="10.5" fill="white" stroke="#ECECEC"/>
<path d="M39.8528 228.82C40.3595 228.9 40.8195 229.107 41.2328 229.44C41.6595 229.773 41.9928 230.187 42.2328 230.68C42.4861 231.173 42.6128 231.7 42.6128 232.26C42.6128 232.967 42.4328 233.607 42.0728 234.18C41.7128 234.74 41.1861 235.187 40.4928 235.52C39.8128 235.84 39.0061 236 38.0728 236H32.8728V222.06H37.8728C38.8195 222.06 39.6261 222.22 40.2928 222.54C40.9595 222.847 41.4595 223.267 41.7928 223.8C42.1261 224.333 42.2928 224.933 42.2928 225.6C42.2928 226.427 42.0661 227.113 41.6128 227.66C41.1728 228.193 40.5861 228.58 39.8528 228.82ZM34.6928 228.08H37.7528C38.6061 228.08 39.2661 227.88 39.7328 227.48C40.1995 227.08 40.4328 226.527 40.4328 225.82C40.4328 225.113 40.1995 224.56 39.7328 224.16C39.2661 223.76 38.5928 223.56 37.7128 223.56H34.6928V228.08ZM37.9128 234.5C38.8195 234.5 39.5261 234.287 40.0328 233.86C40.5395 233.433 40.7928 232.84 40.7928 232.08C40.7928 231.307 40.5261 230.7 39.9928 230.26C39.4595 229.807 38.7461 229.58 37.8528 229.58H34.6928V234.5H37.9128ZM49.5184 236.18C48.4918 236.18 47.5584 235.947 46.7184 235.48C45.8918 235.013 45.2384 234.353 44.7584 233.5C44.2918 232.633 44.0584 231.633 44.0584 230.5C44.0584 229.38 44.2984 228.393 44.7784 227.54C45.2718 226.673 45.9384 226.013 46.7784 225.56C47.6184 225.093 48.5584 224.86 49.5984 224.86C50.6384 224.86 51.5784 225.093 52.4184 225.56C53.2584 226.013 53.9184 226.667 54.3984 227.52C54.8918 228.373 55.1384 229.367 55.1384 230.5C55.1384 231.633 54.8851 232.633 54.3784 233.5C53.8851 234.353 53.2118 235.013 52.3584 235.48C51.5051 235.947 50.5584 236.18 49.5184 236.18ZM49.5184 234.58C50.1718 234.58 50.7851 234.427 51.3584 234.12C51.9318 233.813 52.3918 233.353 52.7384 232.74C53.0984 232.127 53.2784 231.38 53.2784 230.5C53.2784 229.62 53.1051 228.873 52.7584 228.26C52.4118 227.647 51.9584 227.193 51.3984 226.9C50.8384 226.593 50.2318 226.44 49.5784 226.44C48.9118 226.44 48.2984 226.593 47.7384 226.9C47.1918 227.193 46.7518 227.647 46.4184 228.26C46.0851 228.873 45.9184 229.62 45.9184 230.5C45.9184 231.393 46.0784 232.147 46.3984 232.76C46.7318 233.373 47.1718 233.833 47.7184 234.14C48.2651 234.433 48.8651 234.58 49.5184 234.58ZM58.9514 221.2V236H57.1314V221.2H58.9514ZM60.9733 230.48C60.9733 229.36 61.1999 228.38 61.6533 227.54C62.1066 226.687 62.7266 226.027 63.5133 225.56C64.3133 225.093 65.2066 224.86 66.1933 224.86C67.0466 224.86 67.8399 225.06 68.5733 225.46C69.3066 225.847 69.8666 226.36 70.2533 227V221.2H72.0933V236H70.2533V233.94C69.8933 234.593 69.3599 235.133 68.6533 235.56C67.9466 235.973 67.1199 236.18 66.1733 236.18C65.1999 236.18 64.3133 235.94 63.5133 235.46C62.7266 234.98 62.1066 234.307 61.6533 233.44C61.1999 232.573 60.9733 231.587 60.9733 230.48ZM70.2533 230.5C70.2533 229.673 70.0866 228.953 69.7533 228.34C69.4199 227.727 68.9666 227.26 68.3933 226.94C67.8333 226.607 67.2133 226.44 66.5333 226.44C65.8533 226.44 65.2333 226.6 64.6733 226.92C64.1133 227.24 63.6666 227.707 63.3333 228.32C62.9999 228.933 62.8333 229.653 62.8333 230.48C62.8333 231.32 62.9999 232.053 63.3333 232.68C63.6666 233.293 64.1133 233.767 64.6733 234.1C65.2333 234.42 65.8533 234.58 66.5333 234.58C67.2133 234.58 67.8333 234.42 68.3933 234.1C68.9666 233.767 69.4199 233.293 69.7533 232.68C70.0866 232.053 70.2533 231.327 70.2533 230.5ZM76.6489 233.48L74.4089 238.86H73.1889L74.6489 233.48H76.6489ZM85.0858 223.54V228.2H90.1658V229.7H85.0858V234.5H90.7658V236H83.2658V222.04H90.7658V223.54H85.0858ZM98.4597 224.84C99.793 224.84 100.873 225.247 101.7 226.06C102.526 226.86 102.94 228.02 102.94 229.54V236H101.14V229.8C101.14 228.707 100.866 227.873 100.32 227.3C99.773 226.713 99.0263 226.42 98.0797 226.42C97.1197 226.42 96.353 226.72 95.7797 227.32C95.2197 227.92 94.9397 228.793 94.9397 229.94V236H93.1197V225.04H94.9397V226.6C95.2997 226.04 95.7863 225.607 96.3997 225.3C97.0263 224.993 97.713 224.84 98.4597 224.84ZM110.033 224.86C110.979 224.86 111.806 225.067 112.513 225.48C113.233 225.893 113.766 226.413 114.113 227.04V225.04H115.953V236.24C115.953 237.24 115.739 238.127 115.313 238.9C114.886 239.687 114.273 240.3 113.473 240.74C112.686 241.18 111.766 241.4 110.713 241.4C109.273 241.4 108.073 241.06 107.113 240.38C106.153 239.7 105.586 238.773 105.413 237.6H107.213C107.413 238.267 107.826 238.8 108.453 239.2C109.079 239.613 109.833 239.82 110.713 239.82C111.713 239.82 112.526 239.507 113.153 238.88C113.793 238.253 114.113 237.373 114.113 236.24V233.94C113.753 234.58 113.219 235.113 112.513 235.54C111.806 235.967 110.979 236.18 110.033 236.18C109.059 236.18 108.173 235.94 107.373 235.46C106.586 234.98 105.966 234.307 105.513 233.44C105.059 232.573 104.833 231.587 104.833 230.48C104.833 229.36 105.059 228.38 105.513 227.54C105.966 226.687 106.586 226.027 107.373 225.56C108.173 225.093 109.059 224.86 110.033 224.86ZM114.113 230.5C114.113 229.673 113.946 228.953 113.613 228.34C113.279 227.727 112.826 227.26 112.253 226.94C111.693 226.607 111.073 226.44 110.393 226.44C109.713 226.44 109.093 226.6 108.533 226.92C107.973 227.24 107.526 227.707 107.193 228.32C106.859 228.933 106.693 229.653 106.693 230.48C106.693 231.32 106.859 232.053 107.193 232.68C107.526 233.293 107.973 233.767 108.533 234.1C109.093 234.42 109.713 234.58 110.393 234.58C111.073 234.58 111.693 234.42 112.253 234.1C112.826 233.767 113.279 233.293 113.613 232.68C113.946 232.053 114.113 231.327 114.113 230.5ZM117.948 230.48C117.948 229.36 118.175 228.38 118.628 227.54C119.082 226.687 119.702 226.027 120.488 225.56C121.288 225.093 122.175 224.86 123.148 224.86C124.108 224.86 124.942 225.067 125.648 225.48C126.355 225.893 126.882 226.413 127.228 227.04V225.04H129.068V236H127.228V233.96C126.868 234.6 126.328 235.133 125.608 235.56C124.902 235.973 124.075 236.18 123.128 236.18C122.155 236.18 121.275 235.94 120.488 235.46C119.702 234.98 119.082 234.307 118.628 233.44C118.175 232.573 117.948 231.587 117.948 230.48ZM127.228 230.5C127.228 229.673 127.062 228.953 126.728 228.34C126.395 227.727 125.942 227.26 125.368 226.94C124.808 226.607 124.188 226.44 123.508 226.44C122.828 226.44 122.208 226.6 121.648 226.92C121.088 227.24 120.642 227.707 120.308 228.32C119.975 228.933 119.808 229.653 119.808 230.48C119.808 231.32 119.975 232.053 120.308 232.68C120.642 233.293 121.088 233.767 121.648 234.1C122.208 234.42 122.828 234.58 123.508 234.58C124.188 234.58 124.808 234.42 125.368 234.1C125.942 233.767 126.395 233.293 126.728 232.68C127.062 232.053 127.228 231.327 127.228 230.5ZM136.264 224.86C137.211 224.86 138.037 225.067 138.744 225.48C139.464 225.893 139.997 226.413 140.344 227.04V225.04H142.184V236.24C142.184 237.24 141.971 238.127 141.544 238.9C141.117 239.687 140.504 240.3 139.704 240.74C138.917 241.18 137.997 241.4 136.944 241.4C135.504 241.4 134.304 241.06 133.344 240.38C132.384 239.7 131.817 238.773 131.644 237.6H133.444C133.644 238.267 134.057 238.8 134.684 239.2C135.311 239.613 136.064 239.82 136.944 239.82C137.944 239.82 138.757 239.507 139.384 238.88C140.024 238.253 140.344 237.373 140.344 236.24V233.94C139.984 234.58 139.451 235.113 138.744 235.54C138.037 235.967 137.211 236.18 136.264 236.18C135.291 236.18 134.404 235.94 133.604 235.46C132.817 234.98 132.197 234.307 131.744 233.44C131.291 232.573 131.064 231.587 131.064 230.48C131.064 229.36 131.291 228.38 131.744 227.54C132.197 226.687 132.817 226.027 133.604 225.56C134.404 225.093 135.291 224.86 136.264 224.86ZM140.344 230.5C140.344 229.673 140.177 228.953 139.844 228.34C139.511 227.727 139.057 227.26 138.484 226.94C137.924 226.607 137.304 226.44 136.624 226.44C135.944 226.44 135.324 226.6 134.764 226.92C134.204 227.24 133.757 227.707 133.424 228.32C133.091 228.933 132.924 229.653 132.924 230.48C132.924 231.32 133.091 232.053 133.424 232.68C133.757 233.293 134.204 233.767 134.764 234.1C135.324 234.42 135.944 234.58 136.624 234.58C137.304 234.58 137.924 234.42 138.484 234.1C139.057 233.767 139.511 233.293 139.844 232.68C140.177 232.053 140.344 231.327 140.344 230.5ZM145.8 223.26C145.453 223.26 145.16 223.14 144.92 222.9C144.68 222.66 144.56 222.367 144.56 222.02C144.56 221.673 144.68 221.38 144.92 221.14C145.16 220.9 145.453 220.78 145.8 220.78C146.133 220.78 146.413 220.9 146.64 221.14C146.88 221.38 147 221.673 147 222.02C147 222.367 146.88 222.66 146.64 222.9C146.413 223.14 146.133 223.26 145.8 223.26ZM146.68 225.04V236H144.86V225.04H146.68ZM154.721 224.84C156.055 224.84 157.135 225.247 157.961 226.06C158.788 226.86 159.201 228.02 159.201 229.54V236H157.401V229.8C157.401 228.707 157.128 227.873 156.581 227.3C156.035 226.713 155.288 226.42 154.341 226.42C153.381 226.42 152.615 226.72 152.041 227.32C151.481 227.92 151.201 228.793 151.201 229.94V236H149.381V225.04H151.201V226.6C151.561 226.04 152.048 225.607 152.661 225.3C153.288 224.993 153.975 224.84 154.721 224.84ZM166.294 224.86C167.241 224.86 168.068 225.067 168.774 225.48C169.494 225.893 170.028 226.413 170.374 227.04V225.04H172.214V236.24C172.214 237.24 172.001 238.127 171.574 238.9C171.148 239.687 170.534 240.3 169.734 240.74C168.948 241.18 168.028 241.4 166.974 241.4C165.534 241.4 164.334 241.06 163.374 240.38C162.414 239.7 161.848 238.773 161.674 237.6H163.474C163.674 238.267 164.088 238.8 164.714 239.2C165.341 239.613 166.094 239.82 166.974 239.82C167.974 239.82 168.788 239.507 169.414 238.88C170.054 238.253 170.374 237.373 170.374 236.24V233.94C170.014 234.58 169.481 235.113 168.774 235.54C168.068 235.967 167.241 236.18 166.294 236.18C165.321 236.18 164.434 235.94 163.634 235.46C162.848 234.98 162.228 234.307 161.774 233.44C161.321 232.573 161.094 231.587 161.094 230.48C161.094 229.36 161.321 228.38 161.774 227.54C162.228 226.687 162.848 226.027 163.634 225.56C164.434 225.093 165.321 224.86 166.294 224.86ZM170.374 230.5C170.374 229.673 170.208 228.953 169.874 228.34C169.541 227.727 169.088 227.26 168.514 226.94C167.954 226.607 167.334 226.44 166.654 226.44C165.974 226.44 165.354 226.6 164.794 226.92C164.234 227.24 163.788 227.707 163.454 228.32C163.121 228.933 162.954 229.653 162.954 230.48C162.954 231.32 163.121 232.053 163.454 232.68C163.788 233.293 164.234 233.767 164.794 234.1C165.354 234.42 165.974 234.58 166.654 234.58C167.334 234.58 167.954 234.42 168.514 234.1C169.088 233.767 169.541 233.293 169.874 232.68C170.208 232.053 170.374 231.327 170.374 230.5ZM190.522 236L188.702 234.16C188.022 234.867 187.295 235.393 186.522 235.74C185.749 236.073 184.875 236.24 183.902 236.24C182.942 236.24 182.089 236.067 181.342 235.72C180.609 235.373 180.035 234.88 179.622 234.24C179.222 233.6 179.022 232.853 179.022 232C179.022 231.027 179.295 230.173 179.842 229.44C180.402 228.693 181.222 228.107 182.302 227.68C181.875 227.173 181.569 226.707 181.382 226.28C181.195 225.853 181.102 225.387 181.102 224.88C181.102 224.293 181.249 223.767 181.542 223.3C181.849 222.82 182.282 222.447 182.842 222.18C183.402 221.913 184.049 221.78 184.782 221.78C185.502 221.78 186.129 221.92 186.662 222.2C187.195 222.48 187.595 222.873 187.862 223.38C188.129 223.873 188.249 224.427 188.222 225.04H186.402C186.415 224.493 186.262 224.067 185.942 223.76C185.622 223.44 185.209 223.28 184.702 223.28C184.169 223.28 183.735 223.433 183.402 223.74C183.082 224.033 182.922 224.413 182.922 224.88C182.922 225.28 183.029 225.667 183.242 226.04C183.469 226.413 183.842 226.873 184.362 227.42L188.522 231.6L188.882 231.04L190.242 228.76H192.202L190.562 231.6C190.335 232 190.069 232.42 189.762 232.86L192.902 236H190.522ZM183.902 234.68C184.622 234.68 185.269 234.54 185.842 234.26C186.429 233.98 186.982 233.547 187.502 232.96L183.402 228.84C181.695 229.493 180.842 230.527 180.842 231.94C180.842 232.727 181.122 233.38 181.682 233.9C182.255 234.42 182.995 234.68 183.902 234.68ZM89.7561 252.06L84.4961 266H82.3961L77.1361 252.06H79.0761L83.4561 264.08L87.8361 252.06H89.7561ZM92.2917 253.26C91.945 253.26 91.6517 253.14 91.4117 252.9C91.1717 252.66 91.0517 252.367 91.0517 252.02C91.0517 251.673 91.1717 251.38 91.4117 251.14C91.6517 250.9 91.945 250.78 92.2917 250.78C92.625 250.78 92.905 250.9 93.1317 251.14C93.3717 251.38 93.4917 251.673 93.4917 252.02C93.4917 252.367 93.3717 252.66 93.1317 252.9C92.905 253.14 92.625 253.26 92.2917 253.26ZM93.1717 255.04V266H91.3517V255.04H93.1717ZM97.6936 257.08C98.0669 256.427 98.6136 255.893 99.3336 255.48C100.054 255.067 100.874 254.86 101.794 254.86C102.78 254.86 103.667 255.093 104.454 255.56C105.24 256.027 105.86 256.687 106.314 257.54C106.767 258.38 106.994 259.36 106.994 260.48C106.994 261.587 106.767 262.573 106.314 263.44C105.86 264.307 105.234 264.98 104.434 265.46C103.647 265.94 102.767 266.18 101.794 266.18C100.847 266.18 100.014 265.973 99.2936 265.56C98.5869 265.147 98.0536 264.62 97.6936 263.98V266H95.8736V251.2H97.6936V257.08ZM105.134 260.48C105.134 259.653 104.967 258.933 104.634 258.32C104.3 257.707 103.847 257.24 103.274 256.92C102.714 256.6 102.094 256.44 101.414 256.44C100.747 256.44 100.127 256.607 99.5536 256.94C98.9936 257.26 98.5403 257.733 98.1936 258.36C97.8603 258.973 97.6936 259.687 97.6936 260.5C97.6936 261.327 97.8603 262.053 98.1936 262.68C98.5403 263.293 98.9936 263.767 99.5536 264.1C100.127 264.42 100.747 264.58 101.414 264.58C102.094 264.58 102.714 264.42 103.274 264.1C103.847 263.767 104.3 263.293 104.634 262.68C104.967 262.053 105.134 261.32 105.134 260.48ZM110.809 256.82C111.129 256.193 111.583 255.707 112.169 255.36C112.769 255.013 113.496 254.84 114.349 254.84V256.72H113.869C111.829 256.72 110.809 257.827 110.809 260.04V266H108.989V255.04H110.809V256.82ZM115.37 260.48C115.37 259.36 115.597 258.38 116.05 257.54C116.503 256.687 117.123 256.027 117.91 255.56C118.71 255.093 119.597 254.86 120.57 254.86C121.53 254.86 122.363 255.067 123.07 255.48C123.777 255.893 124.303 256.413 124.65 257.04V255.04H126.49V266H124.65V263.96C124.29 264.6 123.75 265.133 123.03 265.56C122.323 265.973 121.497 266.18 120.55 266.18C119.577 266.18 118.697 265.94 117.91 265.46C117.123 264.98 116.503 264.307 116.05 263.44C115.597 262.573 115.37 261.587 115.37 260.48ZM124.65 260.5C124.65 259.673 124.483 258.953 124.15 258.34C123.817 257.727 123.363 257.26 122.79 256.94C122.23 256.607 121.61 256.44 120.93 256.44C120.25 256.44 119.63 256.6 119.07 256.92C118.51 257.24 118.063 257.707 117.73 258.32C117.397 258.933 117.23 259.653 117.23 260.48C117.23 261.32 117.397 262.053 117.73 262.68C118.063 263.293 118.51 263.767 119.07 264.1C119.63 264.42 120.25 264.58 120.93 264.58C121.61 264.58 122.23 264.42 122.79 264.1C123.363 263.767 123.817 263.293 124.15 262.68C124.483 262.053 124.65 261.327 124.65 260.5ZM134.506 254.84C135.839 254.84 136.919 255.247 137.746 256.06C138.572 256.86 138.986 258.02 138.986 259.54V266H137.186V259.8C137.186 258.707 136.912 257.873 136.366 257.3C135.819 256.713 135.072 256.42 134.126 256.42C133.166 256.42 132.399 256.72 131.826 257.32C131.266 257.92 130.986 258.793 130.986 259.94V266H129.166V255.04H130.986V256.6C131.346 256.04 131.832 255.607 132.446 255.3C133.072 254.993 133.759 254.84 134.506 254.84ZM143.779 256.54V263C143.779 263.533 143.892 263.913 144.119 264.14C144.345 264.353 144.739 264.46 145.299 264.46H146.639V266H144.999C143.985 266 143.225 265.767 142.719 265.3C142.212 264.833 141.959 264.067 141.959 263V256.54H140.539V255.04H141.959V252.28H143.779V255.04H146.639V256.54H143.779Z" fill="#9296A0"/>
<rect x="14" y="13" width="196" height="47" fill="#7017F0"/>
<rect x="14" y="60" width="196" height="46" fill="#9B39F4"/>
<rect x="14" y="106" width="196" height="47" fill="#B769F6"/>
<rect x="14" y="153" width="196" height="47" fill="#F6ECFC"/>
</svg>
