<svg width="224" height="286" viewBox="0 0 224 286" fill="none" xmlns="http://www.w3.org/2000/svg">
<rect x="0.5" y="0.5" width="223" height="285" rx="10.5" fill="white" stroke="#ECECEC"/>
<path d="M23.0467 229.02C23.0467 227.66 23.3534 226.44 23.9667 225.36C24.5801 224.267 25.4134 223.413 26.4667 222.8C27.5334 222.187 28.7134 221.88 30.0067 221.88C31.5267 221.88 32.8534 222.247 33.9867 222.98C35.1201 223.713 35.9467 224.753 36.4667 226.1H34.2867C33.9001 225.26 33.3401 224.613 32.6067 224.16C31.8867 223.707 31.0201 223.48 30.0067 223.48C29.0334 223.48 28.1601 223.707 27.3867 224.16C26.6134 224.613 26.0067 225.26 25.5667 226.1C25.1267 226.927 24.9067 227.9 24.9067 229.02C24.9067 230.127 25.1267 231.1 25.5667 231.94C26.0067 232.767 26.6134 233.407 27.3867 233.86C28.1601 234.313 29.0334 234.54 30.0067 234.54C31.0201 234.54 31.8867 234.32 32.6067 233.88C33.3401 233.427 33.9001 232.78 34.2867 231.94H36.4667C35.9467 233.273 35.1201 234.307 33.9867 235.04C32.8534 235.76 31.5267 236.12 30.0067 236.12C28.7134 236.12 27.5334 235.82 26.4667 235.22C25.4134 234.607 24.5801 233.76 23.9667 232.68C23.3534 231.6 23.0467 230.38 23.0467 229.02ZM44.2159 224.84C45.0426 224.84 45.7893 225.02 46.4559 225.38C47.1226 225.727 47.6426 226.253 48.0159 226.96C48.4026 227.667 48.5959 228.527 48.5959 229.54V236H46.7959V229.8C46.7959 228.707 46.5226 227.873 45.9759 227.3C45.4293 226.713 44.6826 226.42 43.7359 226.42C42.7759 226.42 42.0093 226.72 41.4359 227.32C40.8759 227.92 40.5959 228.793 40.5959 229.94V236H38.7759V221.2H40.5959V226.6C40.9559 226.04 41.4493 225.607 42.0759 225.3C42.7159 224.993 43.4293 224.84 44.2159 224.84ZM61.1689 230.1C61.1689 230.447 61.1489 230.813 61.1089 231.2H52.3489C52.4156 232.28 52.7822 233.127 53.4489 233.74C54.1289 234.34 54.9489 234.64 55.9089 234.64C56.6956 234.64 57.3489 234.46 57.8689 234.1C58.4022 233.727 58.7756 233.233 58.9889 232.62H60.9489C60.6556 233.673 60.0689 234.533 59.1889 235.2C58.3089 235.853 57.2156 236.18 55.9089 236.18C54.8689 236.18 53.9356 235.947 53.1089 235.48C52.2956 235.013 51.6556 234.353 51.1889 233.5C50.7222 232.633 50.4889 231.633 50.4889 230.5C50.4889 229.367 50.7156 228.373 51.1689 227.52C51.6222 226.667 52.2556 226.013 53.0689 225.56C53.8956 225.093 54.8422 224.86 55.9089 224.86C56.9489 224.86 57.8689 225.087 58.6689 225.54C59.4689 225.993 60.0822 226.62 60.5089 227.42C60.9489 228.207 61.1689 229.1 61.1689 230.1ZM59.2889 229.72C59.2889 229.027 59.1356 228.433 58.8289 227.94C58.5222 227.433 58.1022 227.053 57.5689 226.8C57.0489 226.533 56.4689 226.4 55.8289 226.4C54.9089 226.4 54.1222 226.693 53.4689 227.28C52.8289 227.867 52.4622 228.68 52.3689 229.72H59.2889ZM73.1713 230.1C73.1713 230.447 73.1513 230.813 73.1113 231.2H64.3513C64.4179 232.28 64.7846 233.127 65.4513 233.74C66.1313 234.34 66.9513 234.64 67.9113 234.64C68.6979 234.64 69.3513 234.46 69.8713 234.1C70.4046 233.727 70.7779 233.233 70.9913 232.62H72.9513C72.6579 233.673 72.0713 234.533 71.1913 235.2C70.3113 235.853 69.2179 236.18 67.9113 236.18C66.8713 236.18 65.9379 235.947 65.1113 235.48C64.2979 235.013 63.6579 234.353 63.1913 233.5C62.7246 232.633 62.4913 231.633 62.4913 230.5C62.4913 229.367 62.7179 228.373 63.1713 227.52C63.6246 226.667 64.2579 226.013 65.0713 225.56C65.8979 225.093 66.8446 224.86 67.9113 224.86C68.9513 224.86 69.8713 225.087 70.6713 225.54C71.4713 225.993 72.0846 226.62 72.5113 227.42C72.9513 228.207 73.1713 229.1 73.1713 230.1ZM71.2913 229.72C71.2913 229.027 71.1379 228.433 70.8313 227.94C70.5246 227.433 70.1046 227.053 69.5713 226.8C69.0513 226.533 68.4713 226.4 67.8313 226.4C66.9113 226.4 66.1246 226.693 65.4713 227.28C64.8313 227.867 64.4646 228.68 64.3713 229.72H71.2913ZM76.9936 226.82C77.3136 226.193 77.7669 225.707 78.3536 225.36C78.9536 225.013 79.6803 224.84 80.5336 224.84V226.72H80.0536C78.0136 226.72 76.9936 227.827 76.9936 230.04V236H75.1736V225.04H76.9936V226.82ZM86.6945 226.54H84.3945V236H82.5745V226.54H81.1545V225.04H82.5745V224.26C82.5745 223.033 82.8879 222.14 83.5145 221.58C84.1545 221.007 85.1745 220.72 86.5745 220.72V222.24C85.7745 222.24 85.2079 222.4 84.8745 222.72C84.5545 223.027 84.3945 223.54 84.3945 224.26V225.04H86.6945V226.54ZM98.1366 225.04V236H96.3166V234.38C95.9699 234.94 95.4832 235.38 94.8566 235.7C94.2432 236.007 93.5632 236.16 92.8166 236.16C91.9632 236.16 91.1966 235.987 90.5166 235.64C89.8366 235.28 89.2966 234.747 88.8966 234.04C88.5099 233.333 88.3166 232.473 88.3166 231.46V225.04H90.1166V231.22C90.1166 232.3 90.3899 233.133 90.9366 233.72C91.4832 234.293 92.2299 234.58 93.1766 234.58C94.1499 234.58 94.9166 234.28 95.4766 233.68C96.0366 233.08 96.3166 232.207 96.3166 231.06V225.04H98.1366ZM102.63 221.2V236H100.81V221.2H102.63ZM107.211 233.48L104.971 238.86H103.751L105.211 233.48H107.211ZM125.348 222.06L120.088 236H117.988L112.728 222.06H114.668L119.048 234.08L123.428 222.06H125.348ZM127.884 223.26C127.537 223.26 127.244 223.14 127.004 222.9C126.764 222.66 126.644 222.367 126.644 222.02C126.644 221.673 126.764 221.38 127.004 221.14C127.244 220.9 127.537 220.78 127.884 220.78C128.217 220.78 128.497 220.9 128.724 221.14C128.964 221.38 129.084 221.673 129.084 222.02C129.084 222.367 128.964 222.66 128.724 222.9C128.497 223.14 128.217 223.26 127.884 223.26ZM128.764 225.04V236H126.944V225.04H128.764ZM133.286 227.08C133.659 226.427 134.206 225.893 134.926 225.48C135.646 225.067 136.466 224.86 137.386 224.86C138.372 224.86 139.259 225.093 140.046 225.56C140.832 226.027 141.452 226.687 141.906 227.54C142.359 228.38 142.586 229.36 142.586 230.48C142.586 231.587 142.359 232.573 141.906 233.44C141.452 234.307 140.826 234.98 140.026 235.46C139.239 235.94 138.359 236.18 137.386 236.18C136.439 236.18 135.606 235.973 134.886 235.56C134.179 235.147 133.646 234.62 133.286 233.98V236H131.466V221.2H133.286V227.08ZM140.726 230.48C140.726 229.653 140.559 228.933 140.226 228.32C139.892 227.707 139.439 227.24 138.866 226.92C138.306 226.6 137.686 226.44 137.006 226.44C136.339 226.44 135.719 226.607 135.146 226.94C134.586 227.26 134.132 227.733 133.786 228.36C133.452 228.973 133.286 229.687 133.286 230.5C133.286 231.327 133.452 232.053 133.786 232.68C134.132 233.293 134.586 233.767 135.146 234.1C135.719 234.42 136.339 234.58 137.006 234.58C137.686 234.58 138.306 234.42 138.866 234.1C139.439 233.767 139.892 233.293 140.226 232.68C140.559 232.053 140.726 231.32 140.726 230.48ZM146.401 226.82C146.721 226.193 147.175 225.707 147.761 225.36C148.361 225.013 149.088 224.84 149.941 224.84V226.72H149.461C147.421 226.72 146.401 227.827 146.401 230.04V236H144.581V225.04H146.401V226.82ZM150.962 230.48C150.962 229.36 151.189 228.38 151.642 227.54C152.096 226.687 152.716 226.027 153.502 225.56C154.302 225.093 155.189 224.86 156.162 224.86C157.122 224.86 157.956 225.067 158.662 225.48C159.369 225.893 159.896 226.413 160.242 227.04V225.04H162.082V236H160.242V233.96C159.882 234.6 159.342 235.133 158.622 235.56C157.916 235.973 157.089 236.18 156.142 236.18C155.169 236.18 154.289 235.94 153.502 235.46C152.716 234.98 152.096 234.307 151.642 233.44C151.189 232.573 150.962 231.587 150.962 230.48ZM160.242 230.5C160.242 229.673 160.076 228.953 159.742 228.34C159.409 227.727 158.956 227.26 158.382 226.94C157.822 226.607 157.202 226.44 156.522 226.44C155.842 226.44 155.222 226.6 154.662 226.92C154.102 227.24 153.656 227.707 153.322 228.32C152.989 228.933 152.822 229.653 152.822 230.48C152.822 231.32 152.989 232.053 153.322 232.68C153.656 233.293 154.102 233.767 154.662 234.1C155.222 234.42 155.842 234.58 156.522 234.58C157.202 234.58 157.822 234.42 158.382 234.1C158.956 233.767 159.409 233.293 159.742 232.68C160.076 232.053 160.242 231.327 160.242 230.5ZM170.098 224.84C171.431 224.84 172.511 225.247 173.338 226.06C174.165 226.86 174.578 228.02 174.578 229.54V236H172.778V229.8C172.778 228.707 172.505 227.873 171.958 227.3C171.411 226.713 170.665 226.42 169.718 226.42C168.758 226.42 167.991 226.72 167.418 227.32C166.858 227.92 166.578 228.793 166.578 229.94V236H164.758V225.04H166.578V226.6C166.938 226.04 167.425 225.607 168.038 225.3C168.665 224.993 169.351 224.84 170.098 224.84ZM179.371 226.54V233C179.371 233.533 179.484 233.913 179.711 234.14C179.938 234.353 180.331 234.46 180.891 234.46H182.231V236H180.591C179.578 236 178.818 235.767 178.311 235.3C177.804 234.833 177.551 234.067 177.551 233V226.54H176.131V225.04H177.551V222.28H179.371V225.04H182.231V226.54H179.371ZM199.668 236L197.848 234.16C197.168 234.867 196.441 235.393 195.668 235.74C194.895 236.073 194.021 236.24 193.048 236.24C192.088 236.24 191.235 236.067 190.488 235.72C189.755 235.373 189.181 234.88 188.768 234.24C188.368 233.6 188.168 232.853 188.168 232C188.168 231.027 188.441 230.173 188.988 229.44C189.548 228.693 190.368 228.107 191.448 227.68C191.021 227.173 190.715 226.707 190.528 226.28C190.341 225.853 190.248 225.387 190.248 224.88C190.248 224.293 190.395 223.767 190.688 223.3C190.995 222.82 191.428 222.447 191.988 222.18C192.548 221.913 193.195 221.78 193.928 221.78C194.648 221.78 195.275 221.92 195.808 222.2C196.341 222.48 196.741 222.873 197.008 223.38C197.275 223.873 197.395 224.427 197.368 225.04H195.548C195.561 224.493 195.408 224.067 195.088 223.76C194.768 223.44 194.355 223.28 193.848 223.28C193.315 223.28 192.881 223.433 192.548 223.74C192.228 224.033 192.068 224.413 192.068 224.88C192.068 225.28 192.175 225.667 192.388 226.04C192.615 226.413 192.988 226.873 193.508 227.42L197.668 231.6L198.028 231.04L199.388 228.76H201.348L199.708 231.6C199.481 232 199.215 232.42 198.908 232.86L202.048 236H199.668ZM193.048 234.68C193.768 234.68 194.415 234.54 194.988 234.26C195.575 233.98 196.128 233.547 196.648 232.96L192.548 228.84C190.841 229.493 189.988 230.527 189.988 231.94C189.988 232.727 190.268 233.38 190.828 233.9C191.401 234.42 192.141 234.68 193.048 234.68ZM92.248 252.06V266H90.428V259.68H83.328V266H81.508V252.06H83.328V258.18H90.428V252.06H92.248ZM94.2756 260.48C94.2756 259.36 94.5023 258.38 94.9556 257.54C95.409 256.687 96.029 256.027 96.8156 255.56C97.6156 255.093 98.5023 254.86 99.4756 254.86C100.436 254.86 101.269 255.067 101.976 255.48C102.682 255.893 103.209 256.413 103.556 257.04V255.04H105.396V266H103.556V263.96C103.196 264.6 102.656 265.133 101.936 265.56C101.229 265.973 100.402 266.18 99.4556 266.18C98.4823 266.18 97.6023 265.94 96.8156 265.46C96.029 264.98 95.409 264.307 94.9556 263.44C94.5023 262.573 94.2756 261.587 94.2756 260.48ZM103.556 260.5C103.556 259.673 103.389 258.953 103.056 258.34C102.722 257.727 102.269 257.26 101.696 256.94C101.136 256.607 100.516 256.44 99.8356 256.44C99.1556 256.44 98.5356 256.6 97.9756 256.92C97.4156 257.24 96.969 257.707 96.6356 258.32C96.3023 258.933 96.1356 259.653 96.1356 260.48C96.1356 261.32 96.3023 262.053 96.6356 262.68C96.969 263.293 97.4156 263.767 97.9756 264.1C98.5356 264.42 99.1556 264.58 99.8356 264.58C100.516 264.58 101.136 264.42 101.696 264.1C102.269 263.767 102.722 263.293 103.056 262.68C103.389 262.053 103.556 261.327 103.556 260.5ZM109.891 257.06C110.251 256.433 110.785 255.913 111.491 255.5C112.211 255.073 113.045 254.86 113.991 254.86C114.965 254.86 115.845 255.093 116.631 255.56C117.431 256.027 118.058 256.687 118.511 257.54C118.965 258.38 119.191 259.36 119.191 260.48C119.191 261.587 118.965 262.573 118.511 263.44C118.058 264.307 117.431 264.98 116.631 265.46C115.845 265.94 114.965 266.18 113.991 266.18C113.058 266.18 112.231 265.973 111.511 265.56C110.805 265.133 110.265 264.607 109.891 263.98V271.2H108.071V255.04H109.891V257.06ZM117.331 260.48C117.331 259.653 117.165 258.933 116.831 258.32C116.498 257.707 116.045 257.24 115.471 256.92C114.911 256.6 114.291 256.44 113.611 256.44C112.945 256.44 112.325 256.607 111.751 256.94C111.191 257.26 110.738 257.733 110.391 258.36C110.058 258.973 109.891 259.687 109.891 260.5C109.891 261.327 110.058 262.053 110.391 262.68C110.738 263.293 111.191 263.767 111.751 264.1C112.325 264.42 112.945 264.58 113.611 264.58C114.291 264.58 114.911 264.42 115.471 264.1C116.045 263.767 116.498 263.293 116.831 262.68C117.165 262.053 117.331 261.32 117.331 260.48ZM123.007 257.06C123.367 256.433 123.9 255.913 124.607 255.5C125.327 255.073 126.16 254.86 127.107 254.86C128.08 254.86 128.96 255.093 129.747 255.56C130.547 256.027 131.174 256.687 131.627 257.54C132.08 258.38 132.307 259.36 132.307 260.48C132.307 261.587 132.08 262.573 131.627 263.44C131.174 264.307 130.547 264.98 129.747 265.46C128.96 265.94 128.08 266.18 127.107 266.18C126.174 266.18 125.347 265.973 124.627 265.56C123.92 265.133 123.38 264.607 123.007 263.98V271.2H121.187V255.04H123.007V257.06ZM130.447 260.48C130.447 259.653 130.28 258.933 129.947 258.32C129.614 257.707 129.16 257.24 128.587 256.92C128.027 256.6 127.407 256.44 126.727 256.44C126.06 256.44 125.44 256.607 124.867 256.94C124.307 257.26 123.854 257.733 123.507 258.36C123.174 258.973 123.007 259.687 123.007 260.5C123.007 261.327 123.174 262.053 123.507 262.68C123.854 263.293 124.307 263.767 124.867 264.1C125.44 264.42 126.06 264.58 126.727 264.58C127.407 264.58 128.027 264.42 128.587 264.1C129.16 263.767 129.614 263.293 129.947 262.68C130.28 262.053 130.447 261.32 130.447 260.48ZM143.743 255.04L137.143 271.16H135.263L137.423 265.88L133.003 255.04H135.023L138.463 263.92L141.863 255.04H143.743Z" fill="#9296A0"/>
<rect x="14" y="13" width="196" height="47" fill="#EA4B5C"/>
<rect x="14" y="60" width="196" height="46" fill="#EE7962"/>
<rect x="14" y="106" width="196" height="47" fill="#F3AD7D"/>
<rect x="14" y="153" width="196" height="47" fill="#FDF5D7"/>
</svg>
