<svg width="224" height="286" viewBox="0 0 224 286" fill="none" xmlns="http://www.w3.org/2000/svg">
<rect x="0.5" y="0.5" width="223" height="285" rx="10.5" fill="white" stroke="#ECECEC"/>
<path d="M45.8649 222.06V223.54H39.8049V228.24H44.7249V229.72H39.8049V236H37.9849V222.06H45.8649ZM49.483 226.82C49.803 226.193 50.2564 225.707 50.843 225.36C51.443 225.013 52.1697 224.84 53.023 224.84V226.72H52.543C50.503 226.72 49.483 227.827 49.483 230.04V236H47.663V225.04H49.483V226.82ZM55.664 223.26C55.3173 223.26 55.024 223.14 54.784 222.9C54.544 222.66 54.424 222.367 54.424 222.02C54.424 221.673 54.544 221.38 54.784 221.14C55.024 220.9 55.3173 220.78 55.664 220.78C55.9973 220.78 56.2773 220.9 56.504 221.14C56.744 221.38 56.864 221.673 56.864 222.02C56.864 222.367 56.744 222.66 56.504 222.9C56.2773 223.14 55.9973 223.26 55.664 223.26ZM56.544 225.04V236H54.724V225.04H56.544ZM69.2459 230.1C69.2459 230.447 69.2259 230.813 69.1859 231.2H60.4259C60.4925 232.28 60.8592 233.127 61.5259 233.74C62.2059 234.34 63.0259 234.64 63.9859 234.64C64.7725 234.64 65.4259 234.46 65.9459 234.1C66.4792 233.727 66.8525 233.233 67.0659 232.62H69.0259C68.7325 233.673 68.1459 234.533 67.2659 235.2C66.3859 235.853 65.2925 236.18 63.9859 236.18C62.9459 236.18 62.0125 235.947 61.1859 235.48C60.3725 235.013 59.7325 234.353 59.2659 233.5C58.7992 232.633 58.5659 231.633 58.5659 230.5C58.5659 229.367 58.7925 228.373 59.2459 227.52C59.6992 226.667 60.3325 226.013 61.1459 225.56C61.9725 225.093 62.9192 224.86 63.9859 224.86C65.0259 224.86 65.9459 225.087 66.7459 225.54C67.5459 225.993 68.1592 226.62 68.5859 227.42C69.0259 228.207 69.2459 229.1 69.2459 230.1ZM67.3659 229.72C67.3659 229.027 67.2125 228.433 66.9059 227.94C66.5992 227.433 66.1792 227.053 65.6459 226.8C65.1259 226.533 64.5459 226.4 63.9059 226.4C62.9859 226.4 62.1992 226.693 61.5459 227.28C60.9059 227.867 60.5392 228.68 60.4459 229.72H67.3659ZM76.5882 224.84C77.9215 224.84 79.0015 225.247 79.8282 226.06C80.6549 226.86 81.0682 228.02 81.0682 229.54V236H79.2682V229.8C79.2682 228.707 78.9949 227.873 78.4482 227.3C77.9015 226.713 77.1549 226.42 76.2082 226.42C75.2482 226.42 74.4815 226.72 73.9082 227.32C73.3482 227.92 73.0682 228.793 73.0682 229.94V236H71.2482V225.04H73.0682V226.6C73.4282 226.04 73.9149 225.607 74.5282 225.3C75.1549 224.993 75.8415 224.84 76.5882 224.84ZM82.9612 230.48C82.9612 229.36 83.1878 228.38 83.6412 227.54C84.0945 226.687 84.7145 226.027 85.5012 225.56C86.3012 225.093 87.1945 224.86 88.1812 224.86C89.0345 224.86 89.8278 225.06 90.5612 225.46C91.2945 225.847 91.8545 226.36 92.2412 227V221.2H94.0812V236H92.2412V233.94C91.8812 234.593 91.3478 235.133 90.6412 235.56C89.9345 235.973 89.1078 236.18 88.1612 236.18C87.1878 236.18 86.3012 235.94 85.5012 235.46C84.7145 234.98 84.0945 234.307 83.6412 233.44C83.1878 232.573 82.9612 231.587 82.9612 230.48ZM92.2412 230.5C92.2412 229.673 92.0745 228.953 91.7412 228.34C91.4078 227.727 90.9545 227.26 90.3812 226.94C89.8212 226.607 89.2012 226.44 88.5212 226.44C87.8412 226.44 87.2212 226.6 86.6612 226.92C86.1012 227.24 85.6545 227.707 85.3212 228.32C84.9878 228.933 84.8212 229.653 84.8212 230.48C84.8212 231.32 84.9878 232.053 85.3212 232.68C85.6545 233.293 86.1012 233.767 86.6612 234.1C87.2212 234.42 87.8412 234.58 88.5212 234.58C89.2012 234.58 89.8212 234.42 90.3812 234.1C90.9545 233.767 91.4078 233.293 91.7412 232.68C92.0745 232.053 92.2412 231.327 92.2412 230.5ZM98.5768 221.2V236H96.7568V221.2H98.5768ZM110.719 225.04L104.119 241.16H102.239L104.399 235.88L99.9787 225.04H101.999L105.439 233.92L108.839 225.04H110.719ZM114.028 233.48L111.788 238.86H110.568L112.028 233.48H114.028ZM122.465 234.52H127.345V236H120.645V222.06H122.465V234.52ZM133.658 236.18C132.631 236.18 131.698 235.947 130.858 235.48C130.031 235.013 129.378 234.353 128.898 233.5C128.431 232.633 128.198 231.633 128.198 230.5C128.198 229.38 128.438 228.393 128.918 227.54C129.411 226.673 130.078 226.013 130.918 225.56C131.758 225.093 132.698 224.86 133.738 224.86C134.778 224.86 135.718 225.093 136.558 225.56C137.398 226.013 138.058 226.667 138.538 227.52C139.031 228.373 139.278 229.367 139.278 230.5C139.278 231.633 139.025 232.633 138.518 233.5C138.025 234.353 137.351 235.013 136.498 235.48C135.645 235.947 134.698 236.18 133.658 236.18ZM133.658 234.58C134.311 234.58 134.925 234.427 135.498 234.12C136.071 233.813 136.531 233.353 136.878 232.74C137.238 232.127 137.418 231.38 137.418 230.5C137.418 229.62 137.245 228.873 136.898 228.26C136.551 227.647 136.098 227.193 135.538 226.9C134.978 226.593 134.371 226.44 133.718 226.44C133.051 226.44 132.438 226.593 131.878 226.9C131.331 227.193 130.891 227.647 130.558 228.26C130.225 228.873 130.058 229.62 130.058 230.5C130.058 231.393 130.218 232.147 130.538 232.76C130.871 233.373 131.311 233.833 131.858 234.14C132.405 234.433 133.005 234.58 133.658 234.58ZM150.711 225.04L144.111 241.16H142.231L144.391 235.88L139.971 225.04H141.991L145.431 233.92L148.831 225.04H150.711ZM151.46 230.48C151.46 229.36 151.687 228.38 152.14 227.54C152.594 226.687 153.214 226.027 154 225.56C154.8 225.093 155.687 224.86 156.66 224.86C157.62 224.86 158.454 225.067 159.16 225.48C159.867 225.893 160.394 226.413 160.74 227.04V225.04H162.58V236H160.74V233.96C160.38 234.6 159.84 235.133 159.12 235.56C158.414 235.973 157.587 236.18 156.64 236.18C155.667 236.18 154.787 235.94 154 235.46C153.214 234.98 152.594 234.307 152.14 233.44C151.687 232.573 151.46 231.587 151.46 230.48ZM160.74 230.5C160.74 229.673 160.574 228.953 160.24 228.34C159.907 227.727 159.454 227.26 158.88 226.94C158.32 226.607 157.7 226.44 157.02 226.44C156.34 226.44 155.72 226.6 155.16 226.92C154.6 227.24 154.154 227.707 153.82 228.32C153.487 228.933 153.32 229.653 153.32 230.48C153.32 231.32 153.487 232.053 153.82 232.68C154.154 233.293 154.6 233.767 155.16 234.1C155.72 234.42 156.34 234.58 157.02 234.58C157.7 234.58 158.32 234.42 158.88 234.1C159.454 233.767 159.907 233.293 160.24 232.68C160.574 232.053 160.74 231.327 160.74 230.5ZM167.076 221.2V236H165.256V221.2H167.076ZM185.41 236L183.59 234.16C182.91 234.867 182.183 235.393 181.41 235.74C180.637 236.073 179.763 236.24 178.79 236.24C177.83 236.24 176.977 236.067 176.23 235.72C175.497 235.373 174.923 234.88 174.51 234.24C174.11 233.6 173.91 232.853 173.91 232C173.91 231.027 174.183 230.173 174.73 229.44C175.29 228.693 176.11 228.107 177.19 227.68C176.763 227.173 176.457 226.707 176.27 226.28C176.083 225.853 175.99 225.387 175.99 224.88C175.99 224.293 176.137 223.767 176.43 223.3C176.737 222.82 177.17 222.447 177.73 222.18C178.29 221.913 178.937 221.78 179.67 221.78C180.39 221.78 181.017 221.92 181.55 222.2C182.083 222.48 182.483 222.873 182.75 223.38C183.017 223.873 183.137 224.427 183.11 225.04H181.29C181.303 224.493 181.15 224.067 180.83 223.76C180.51 223.44 180.097 223.28 179.59 223.28C179.057 223.28 178.623 223.433 178.29 223.74C177.97 224.033 177.81 224.413 177.81 224.88C177.81 225.28 177.917 225.667 178.13 226.04C178.357 226.413 178.73 226.873 179.25 227.42L183.41 231.6L183.77 231.04L185.13 228.76H187.09L185.45 231.6C185.223 232 184.957 232.42 184.65 232.86L187.79 236H185.41ZM178.79 234.68C179.51 234.68 180.157 234.54 180.73 234.26C181.317 233.98 181.87 233.547 182.39 232.96L178.29 228.84C176.583 229.493 175.73 230.527 175.73 231.94C175.73 232.727 176.01 233.38 176.57 233.9C177.143 234.42 177.883 234.68 178.79 234.68ZM78.8252 256.14C78.8252 257.3 78.4252 258.267 77.6252 259.04C76.8386 259.8 75.6319 260.18 74.0052 260.18H71.3252V266H69.5052V252.06H74.0052C75.5786 252.06 76.7719 252.44 77.5852 253.2C78.4119 253.96 78.8252 254.94 78.8252 256.14ZM74.0052 258.68C75.0186 258.68 75.7652 258.46 76.2452 258.02C76.7252 257.58 76.9652 256.953 76.9652 256.14C76.9652 254.42 75.9786 253.56 74.0052 253.56H71.3252V258.68H74.0052ZM90.6873 260.1C90.6873 260.447 90.6673 260.813 90.6273 261.2H81.8673C81.9339 262.28 82.3006 263.127 82.9673 263.74C83.6473 264.34 84.4673 264.64 85.4273 264.64C86.2139 264.64 86.8673 264.46 87.3873 264.1C87.9206 263.727 88.2939 263.233 88.5073 262.62H90.4673C90.1739 263.673 89.5873 264.533 88.7073 265.2C87.8273 265.853 86.7339 266.18 85.4273 266.18C84.3873 266.18 83.4539 265.947 82.6273 265.48C81.8139 265.013 81.1739 264.353 80.7073 263.5C80.2406 262.633 80.0073 261.633 80.0073 260.5C80.0073 259.367 80.2339 258.373 80.6873 257.52C81.1406 256.667 81.7739 256.013 82.5873 255.56C83.4139 255.093 84.3606 254.86 85.4273 254.86C86.4673 254.86 87.3873 255.087 88.1873 255.54C88.9873 255.993 89.6006 256.62 90.0273 257.42C90.4673 258.207 90.6873 259.1 90.6873 260.1ZM88.8073 259.72C88.8073 259.027 88.6539 258.433 88.3473 257.94C88.0406 257.433 87.6206 257.053 87.0873 256.8C86.5673 256.533 85.9873 256.4 85.3473 256.4C84.4273 256.4 83.6406 256.693 82.9873 257.28C82.3473 257.867 81.9806 258.68 81.8873 259.72H88.8073ZM92.0096 260.48C92.0096 259.36 92.2363 258.38 92.6896 257.54C93.1429 256.687 93.7629 256.027 94.5496 255.56C95.3496 255.093 96.2363 254.86 97.2096 254.86C98.1696 254.86 99.0029 255.067 99.7096 255.48C100.416 255.893 100.943 256.413 101.29 257.04V255.04H103.13V266H101.29V263.96C100.93 264.6 100.39 265.133 99.6696 265.56C98.9629 265.973 98.1363 266.18 97.1896 266.18C96.2163 266.18 95.3363 265.94 94.5496 265.46C93.7629 264.98 93.1429 264.307 92.6896 263.44C92.2363 262.573 92.0096 261.587 92.0096 260.48ZM101.29 260.5C101.29 259.673 101.123 258.953 100.79 258.34C100.456 257.727 100.003 257.26 99.4296 256.94C98.8696 256.607 98.2496 256.44 97.5696 256.44C96.8896 256.44 96.2696 256.6 95.7096 256.92C95.1496 257.24 94.7029 257.707 94.3696 258.32C94.0363 258.933 93.8696 259.653 93.8696 260.48C93.8696 261.32 94.0363 262.053 94.3696 262.68C94.7029 263.293 95.1496 263.767 95.7096 264.1C96.2696 264.42 96.8896 264.58 97.5696 264.58C98.2496 264.58 98.8696 264.42 99.4296 264.1C100.003 263.767 100.456 263.293 100.79 262.68C101.123 262.053 101.29 261.327 101.29 260.5ZM105.125 260.5C105.125 259.367 105.352 258.38 105.805 257.54C106.259 256.687 106.885 256.027 107.685 255.56C108.499 255.093 109.425 254.86 110.465 254.86C111.812 254.86 112.919 255.187 113.785 255.84C114.665 256.493 115.245 257.4 115.525 258.56H113.565C113.379 257.893 113.012 257.367 112.465 256.98C111.932 256.593 111.265 256.4 110.465 256.4C109.425 256.4 108.585 256.76 107.945 257.48C107.305 258.187 106.985 259.193 106.985 260.5C106.985 261.82 107.305 262.84 107.945 263.56C108.585 264.28 109.425 264.64 110.465 264.64C111.265 264.64 111.932 264.453 112.465 264.08C112.999 263.707 113.365 263.173 113.565 262.48H115.525C115.232 263.6 114.645 264.5 113.765 265.18C112.885 265.847 111.785 266.18 110.465 266.18C109.425 266.18 108.499 265.947 107.685 265.48C106.885 265.013 106.259 264.353 105.805 263.5C105.352 262.647 105.125 261.647 105.125 260.5ZM127.554 260.1C127.554 260.447 127.534 260.813 127.494 261.2H118.734C118.8 262.28 119.167 263.127 119.834 263.74C120.514 264.34 121.334 264.64 122.294 264.64C123.08 264.64 123.734 264.46 124.254 264.1C124.787 263.727 125.16 263.233 125.374 262.62H127.334C127.04 263.673 126.454 264.533 125.574 265.2C124.694 265.853 123.6 266.18 122.294 266.18C121.254 266.18 120.32 265.947 119.494 265.48C118.68 265.013 118.04 264.353 117.574 263.5C117.107 262.633 116.874 261.633 116.874 260.5C116.874 259.367 117.1 258.373 117.554 257.52C118.007 256.667 118.64 256.013 119.454 255.56C120.28 255.093 121.227 254.86 122.294 254.86C123.334 254.86 124.254 255.087 125.054 255.54C125.854 255.993 126.467 256.62 126.894 257.42C127.334 258.207 127.554 259.1 127.554 260.1ZM125.674 259.72C125.674 259.027 125.52 258.433 125.214 257.94C124.907 257.433 124.487 257.053 123.954 256.8C123.434 256.533 122.854 256.4 122.214 256.4C121.294 256.4 120.507 256.693 119.854 257.28C119.214 257.867 118.847 258.68 118.754 259.72H125.674ZM134.016 256.54H131.716V266H129.896V256.54H128.476V255.04H129.896V254.26C129.896 253.033 130.209 252.14 130.836 251.58C131.476 251.007 132.496 250.72 133.896 250.72V252.24C133.096 252.24 132.529 252.4 132.196 252.72C131.876 253.027 131.716 253.54 131.716 254.26V255.04H134.016V256.54ZM145.458 255.04V266H143.638V264.38C143.291 264.94 142.805 265.38 142.178 265.7C141.565 266.007 140.885 266.16 140.138 266.16C139.285 266.16 138.518 265.987 137.838 265.64C137.158 265.28 136.618 264.747 136.218 264.04C135.831 263.333 135.638 262.473 135.638 261.46V255.04H137.438V261.22C137.438 262.3 137.711 263.133 138.258 263.72C138.805 264.293 139.551 264.58 140.498 264.58C141.471 264.58 142.238 264.28 142.798 263.68C143.358 263.08 143.638 262.207 143.638 261.06V255.04H145.458ZM149.951 251.2V266H148.131V251.2H149.951ZM154.473 251.2V266H152.653V251.2H154.473Z" fill="#9296A0"/>
<rect x="14" y="13" width="196" height="47" fill="#2554F5"/>
<rect x="14" y="60" width="196" height="46" fill="#5B8BF6"/>
<rect x="14" y="106" width="196" height="47" fill="#A4C1F8"/>
<rect x="14" y="153" width="196" height="47" fill="#D4E1F9"/>
</svg>
