<svg width="224" height="286" viewBox="0 0 224 286" fill="none" xmlns="http://www.w3.org/2000/svg">
<rect x="0.5" y="0.5" width="223" height="285" rx="10.5" fill="white" stroke="#ECECEC"/>
<path d="M36.5827 222.06V236H34.7627V222.06H36.5827ZM44.6245 224.84C45.9579 224.84 47.0379 225.247 47.8645 226.06C48.6912 226.86 49.1045 228.02 49.1045 229.54V236H47.3045V229.8C47.3045 228.707 47.0312 227.873 46.4845 227.3C45.9379 226.713 45.1912 226.42 44.2445 226.42C43.2845 226.42 42.5179 226.72 41.9445 227.32C41.3845 227.92 41.1045 228.793 41.1045 229.94V236H39.2845V225.04H41.1045V226.6C41.4645 226.04 41.9512 225.607 42.5645 225.3C43.1912 224.993 43.8779 224.84 44.6245 224.84ZM53.8975 226.54V233C53.8975 233.533 54.0108 233.913 54.2375 234.14C54.4642 234.353 54.8575 234.46 55.4175 234.46H56.7575V236H55.1175C54.1042 236 53.3442 235.767 52.8375 235.3C52.3308 234.833 52.0775 234.067 52.0775 233V226.54H50.6575V225.04H52.0775V222.28H53.8975V225.04H56.7575V226.54H53.8975ZM68.5627 230.1C68.5627 230.447 68.5427 230.813 68.5027 231.2H59.7427C59.8093 232.28 60.176 233.127 60.8427 233.74C61.5227 234.34 62.3427 234.64 63.3027 234.64C64.0893 234.64 64.7427 234.46 65.2627 234.1C65.796 233.727 66.1693 233.233 66.3827 232.62H68.3427C68.0493 233.673 67.4627 234.533 66.5827 235.2C65.7027 235.853 64.6093 236.18 63.3027 236.18C62.2627 236.18 61.3293 235.947 60.5027 235.48C59.6893 235.013 59.0493 234.353 58.5827 233.5C58.116 232.633 57.8827 231.633 57.8827 230.5C57.8827 229.367 58.1093 228.373 58.5627 227.52C59.016 226.667 59.6493 226.013 60.4627 225.56C61.2893 225.093 62.236 224.86 63.3027 224.86C64.3427 224.86 65.2627 225.087 66.0627 225.54C66.8627 225.993 67.476 226.62 67.9027 227.42C68.3427 228.207 68.5627 229.1 68.5627 230.1ZM66.6827 229.72C66.6827 229.027 66.5293 228.433 66.2227 227.94C65.916 227.433 65.496 227.053 64.9627 226.8C64.4427 226.533 63.8627 226.4 63.2227 226.4C62.3027 226.4 61.516 226.693 60.8627 227.28C60.2227 227.867 59.856 228.68 59.7627 229.72H66.6827ZM75.905 224.84C77.2383 224.84 78.3183 225.247 79.145 226.06C79.9717 226.86 80.385 228.02 80.385 229.54V236H78.585V229.8C78.585 228.707 78.3117 227.873 77.765 227.3C77.2183 226.713 76.4717 226.42 75.525 226.42C74.565 226.42 73.7983 226.72 73.225 227.32C72.665 227.92 72.385 228.793 72.385 229.94V236H70.565V225.04H72.385V226.6C72.745 226.04 73.2317 225.607 73.845 225.3C74.4717 224.993 75.1583 224.84 75.905 224.84ZM86.838 236.18C85.998 236.18 85.2446 236.04 84.578 235.76C83.9113 235.467 83.3846 235.067 82.998 234.56C82.6113 234.04 82.398 233.447 82.358 232.78H84.238C84.2913 233.327 84.5446 233.773 84.998 234.12C85.4646 234.467 86.0713 234.64 86.818 234.64C87.5113 234.64 88.058 234.487 88.458 234.18C88.858 233.873 89.058 233.487 89.058 233.02C89.058 232.54 88.8446 232.187 88.418 231.96C87.9913 231.72 87.3313 231.487 86.438 231.26C85.6246 231.047 84.958 230.833 84.438 230.62C83.9313 230.393 83.4913 230.067 83.118 229.64C82.758 229.2 82.578 228.627 82.578 227.92C82.578 227.36 82.7446 226.847 83.078 226.38C83.4113 225.913 83.8846 225.547 84.498 225.28C85.1113 225 85.8113 224.86 86.598 224.86C87.8113 224.86 88.7913 225.167 89.538 225.78C90.2846 226.393 90.6846 227.233 90.738 228.3H88.918C88.878 227.727 88.6446 227.267 88.218 226.92C87.8046 226.573 87.2446 226.4 86.538 226.4C85.8846 226.4 85.3646 226.54 84.978 226.82C84.5913 227.1 84.398 227.467 84.398 227.92C84.398 228.28 84.5113 228.58 84.738 228.82C84.978 229.047 85.2713 229.233 85.618 229.38C85.978 229.513 86.4713 229.667 87.098 229.84C87.8846 230.053 88.5246 230.267 89.018 230.48C89.5113 230.68 89.9313 230.987 90.278 231.4C90.638 231.813 90.8246 232.353 90.838 233.02C90.838 233.62 90.6713 234.16 90.338 234.64C90.0046 235.12 89.5313 235.5 88.918 235.78C88.318 236.047 87.6246 236.18 86.838 236.18ZM103.007 230.1C103.007 230.447 102.987 230.813 102.947 231.2H94.1872C94.2539 232.28 94.6205 233.127 95.2872 233.74C95.9672 234.34 96.7872 234.64 97.7472 234.64C98.5339 234.64 99.1872 234.46 99.7072 234.1C100.241 233.727 100.614 233.233 100.827 232.62H102.787C102.494 233.673 101.907 234.533 101.027 235.2C100.147 235.853 99.0539 236.18 97.7472 236.18C96.7072 236.18 95.7739 235.947 94.9472 235.48C94.1339 235.013 93.4939 234.353 93.0272 233.5C92.5605 232.633 92.3272 231.633 92.3272 230.5C92.3272 229.367 92.5539 228.373 93.0072 227.52C93.4605 226.667 94.0939 226.013 94.9072 225.56C95.7339 225.093 96.6805 224.86 97.7472 224.86C98.7872 224.86 99.7072 225.087 100.507 225.54C101.307 225.993 101.921 226.62 102.347 227.42C102.787 228.207 103.007 229.1 103.007 230.1ZM101.127 229.72C101.127 229.027 100.974 228.433 100.667 227.94C100.361 227.433 99.9405 227.053 99.4072 226.8C98.8872 226.533 98.3072 226.4 97.6672 226.4C96.7472 226.4 95.9605 226.693 95.3072 227.28C94.6672 227.867 94.3005 228.68 94.2072 229.72H101.127ZM106.89 233.48L104.65 238.86H103.43L104.89 233.48H106.89ZM131.026 222.06L126.986 236H124.946L121.706 224.78L118.346 236L116.326 236.02L112.426 222.06H114.366L117.406 233.88L120.766 222.06H122.806L126.006 233.84L129.066 222.06H131.026ZM131.938 230.48C131.938 229.36 132.165 228.38 132.618 227.54C133.071 226.687 133.691 226.027 134.478 225.56C135.278 225.093 136.165 224.86 137.138 224.86C138.098 224.86 138.931 225.067 139.638 225.48C140.345 225.893 140.871 226.413 141.218 227.04V225.04H143.058V236H141.218V233.96C140.858 234.6 140.318 235.133 139.598 235.56C138.891 235.973 138.065 236.18 137.118 236.18C136.145 236.18 135.265 235.94 134.478 235.46C133.691 234.98 133.071 234.307 132.618 233.44C132.165 232.573 131.938 231.587 131.938 230.48ZM141.218 230.5C141.218 229.673 141.051 228.953 140.718 228.34C140.385 227.727 139.931 227.26 139.358 226.94C138.798 226.607 138.178 226.44 137.498 226.44C136.818 226.44 136.198 226.6 135.638 226.92C135.078 227.24 134.631 227.707 134.298 228.32C133.965 228.933 133.798 229.653 133.798 230.48C133.798 231.32 133.965 232.053 134.298 232.68C134.631 233.293 135.078 233.767 135.638 234.1C136.198 234.42 136.818 234.58 137.498 234.58C138.178 234.58 138.798 234.42 139.358 234.1C139.931 233.767 140.385 233.293 140.718 232.68C141.051 232.053 141.218 231.327 141.218 230.5ZM147.554 226.82C147.874 226.193 148.327 225.707 148.914 225.36C149.514 225.013 150.24 224.84 151.094 224.84V226.72H150.614C148.574 226.72 147.554 227.827 147.554 230.04V236H145.734V225.04H147.554V226.82ZM165.975 224.84C166.828 224.84 167.588 225.02 168.255 225.38C168.921 225.727 169.448 226.253 169.835 226.96C170.221 227.667 170.415 228.527 170.415 229.54V236H168.615V229.8C168.615 228.707 168.341 227.873 167.795 227.3C167.261 226.713 166.535 226.42 165.615 226.42C164.668 226.42 163.915 226.727 163.355 227.34C162.795 227.94 162.515 228.813 162.515 229.96V236H160.715V229.8C160.715 228.707 160.441 227.873 159.895 227.3C159.361 226.713 158.635 226.42 157.715 226.42C156.768 226.42 156.015 226.727 155.455 227.34C154.895 227.94 154.615 228.813 154.615 229.96V236H152.795V225.04H154.615V226.62C154.975 226.047 155.455 225.607 156.055 225.3C156.668 224.993 157.341 224.84 158.075 224.84C158.995 224.84 159.808 225.047 160.515 225.46C161.221 225.873 161.748 226.48 162.095 227.28C162.401 226.507 162.908 225.907 163.615 225.48C164.321 225.053 165.108 224.84 165.975 224.84ZM188.632 236L186.812 234.16C186.132 234.867 185.406 235.393 184.632 235.74C183.859 236.073 182.986 236.24 182.012 236.24C181.052 236.24 180.199 236.067 179.452 235.72C178.719 235.373 178.146 234.88 177.732 234.24C177.332 233.6 177.132 232.853 177.132 232C177.132 231.027 177.406 230.173 177.952 229.44C178.512 228.693 179.332 228.107 180.412 227.68C179.986 227.173 179.679 226.707 179.492 226.28C179.306 225.853 179.212 225.387 179.212 224.88C179.212 224.293 179.359 223.767 179.652 223.3C179.959 222.82 180.392 222.447 180.952 222.18C181.512 221.913 182.159 221.78 182.892 221.78C183.612 221.78 184.239 221.92 184.772 222.2C185.306 222.48 185.706 222.873 185.972 223.38C186.239 223.873 186.359 224.427 186.332 225.04H184.512C184.526 224.493 184.372 224.067 184.052 223.76C183.732 223.44 183.319 223.28 182.812 223.28C182.279 223.28 181.846 223.433 181.512 223.74C181.192 224.033 181.032 224.413 181.032 224.88C181.032 225.28 181.139 225.667 181.352 226.04C181.579 226.413 181.952 226.873 182.472 227.42L186.632 231.6L186.992 231.04L188.352 228.76H190.312L188.672 231.6C188.446 232 188.179 232.42 187.872 232.86L191.012 236H188.632ZM182.012 234.68C182.732 234.68 183.379 234.54 183.952 234.26C184.539 233.98 185.092 233.547 185.612 232.96L181.512 228.84C179.806 229.493 178.952 230.527 178.952 231.94C178.952 232.727 179.232 233.38 179.792 233.9C180.366 234.42 181.106 234.68 182.012 234.68ZM74.1648 266L70.8448 260.3H68.6448V266H66.8248V252.06H71.3248C72.3781 252.06 73.2648 252.24 73.9848 252.6C74.7181 252.96 75.2648 253.447 75.6248 254.06C75.9848 254.673 76.1648 255.373 76.1648 256.16C76.1648 257.12 75.8848 257.967 75.3248 258.7C74.7781 259.433 73.9514 259.92 72.8448 260.16L76.3448 266H74.1648ZM68.6448 258.84H71.3248C72.3114 258.84 73.0514 258.6 73.5448 258.12C74.0381 257.627 74.2848 256.973 74.2848 256.16C74.2848 255.333 74.0381 254.693 73.5448 254.24C73.0648 253.787 72.3248 253.56 71.3248 253.56H68.6448V258.84ZM83.3727 266.18C82.3461 266.18 81.4127 265.947 80.5727 265.48C79.7461 265.013 79.0927 264.353 78.6127 263.5C78.1461 262.633 77.9127 261.633 77.9127 260.5C77.9127 259.38 78.1527 258.393 78.6327 257.54C79.1261 256.673 79.7927 256.013 80.6327 255.56C81.4727 255.093 82.4127 254.86 83.4527 254.86C84.4927 254.86 85.4327 255.093 86.2727 255.56C87.1127 256.013 87.7727 256.667 88.2527 257.52C88.7461 258.373 88.9927 259.367 88.9927 260.5C88.9927 261.633 88.7394 262.633 88.2327 263.5C87.7394 264.353 87.0661 265.013 86.2127 265.48C85.3594 265.947 84.4127 266.18 83.3727 266.18ZM83.3727 264.58C84.0261 264.58 84.6394 264.427 85.2127 264.12C85.7861 263.813 86.2461 263.353 86.5927 262.74C86.9527 262.127 87.1327 261.38 87.1327 260.5C87.1327 259.62 86.9594 258.873 86.6127 258.26C86.2661 257.647 85.8127 257.193 85.2527 256.9C84.6927 256.593 84.0861 256.44 83.4327 256.44C82.7661 256.44 82.1527 256.593 81.5927 256.9C81.0461 257.193 80.6061 257.647 80.2727 258.26C79.9394 258.873 79.7727 259.62 79.7727 260.5C79.7727 261.393 79.9327 262.147 80.2527 262.76C80.5861 263.373 81.0261 263.833 81.5727 264.14C82.1194 264.433 82.7194 264.58 83.3727 264.58ZM104.166 254.84C105.019 254.84 105.779 255.02 106.446 255.38C107.112 255.727 107.639 256.253 108.026 256.96C108.412 257.667 108.606 258.527 108.606 259.54V266H106.806V259.8C106.806 258.707 106.532 257.873 105.986 257.3C105.452 256.713 104.726 256.42 103.806 256.42C102.859 256.42 102.106 256.727 101.546 257.34C100.986 257.94 100.706 258.813 100.706 259.96V266H98.9057V259.8C98.9057 258.707 98.6324 257.873 98.0857 257.3C97.5524 256.713 96.8257 256.42 95.9057 256.42C94.959 256.42 94.2057 256.727 93.6457 257.34C93.0857 257.94 92.8057 258.813 92.8057 259.96V266H90.9857V255.04H92.8057V256.62C93.1657 256.047 93.6457 255.607 94.2457 255.3C94.859 254.993 95.5324 254.84 96.2657 254.84C97.1857 254.84 97.999 255.047 98.7057 255.46C99.4124 255.873 99.939 256.48 100.286 257.28C100.592 256.507 101.099 255.907 101.806 255.48C102.512 255.053 103.299 254.84 104.166 254.84ZM110.511 260.48C110.511 259.36 110.738 258.38 111.191 257.54C111.645 256.687 112.265 256.027 113.051 255.56C113.851 255.093 114.738 254.86 115.711 254.86C116.671 254.86 117.505 255.067 118.211 255.48C118.918 255.893 119.445 256.413 119.791 257.04V255.04H121.631V266H119.791V263.96C119.431 264.6 118.891 265.133 118.171 265.56C117.465 265.973 116.638 266.18 115.691 266.18C114.718 266.18 113.838 265.94 113.051 265.46C112.265 264.98 111.645 264.307 111.191 263.44C110.738 262.573 110.511 261.587 110.511 260.48ZM119.791 260.5C119.791 259.673 119.625 258.953 119.291 258.34C118.958 257.727 118.505 257.26 117.931 256.94C117.371 256.607 116.751 256.44 116.071 256.44C115.391 256.44 114.771 256.6 114.211 256.92C113.651 257.24 113.205 257.707 112.871 258.32C112.538 258.933 112.371 259.653 112.371 260.48C112.371 261.32 112.538 262.053 112.871 262.68C113.205 263.293 113.651 263.767 114.211 264.1C114.771 264.42 115.391 264.58 116.071 264.58C116.751 264.58 117.371 264.42 117.931 264.1C118.505 263.767 118.958 263.293 119.291 262.68C119.625 262.053 119.791 261.327 119.791 260.5ZM129.647 254.84C130.98 254.84 132.06 255.247 132.887 256.06C133.713 256.86 134.127 258.02 134.127 259.54V266H132.327V259.8C132.327 258.707 132.053 257.873 131.507 257.3C130.96 256.713 130.213 256.42 129.267 256.42C128.307 256.42 127.54 256.72 126.967 257.32C126.407 257.92 126.127 258.793 126.127 259.94V266H124.307V255.04H126.127V256.6C126.487 256.04 126.973 255.607 127.587 255.3C128.213 254.993 128.9 254.84 129.647 254.84ZM138.92 256.54V263C138.92 263.533 139.033 263.913 139.26 264.14C139.486 264.353 139.88 264.46 140.44 264.46H141.78V266H140.14C139.126 266 138.366 265.767 137.86 265.3C137.353 264.833 137.1 264.067 137.1 263V256.54H135.68V255.04H137.1V252.28H138.92V255.04H141.78V256.54H138.92ZM144.525 253.26C144.178 253.26 143.885 253.14 143.645 252.9C143.405 252.66 143.285 252.367 143.285 252.02C143.285 251.673 143.405 251.38 143.645 251.14C143.885 250.9 144.178 250.78 144.525 250.78C144.858 250.78 145.138 250.9 145.365 251.14C145.605 251.38 145.725 251.673 145.725 252.02C145.725 252.367 145.605 252.66 145.365 252.9C145.138 253.14 144.858 253.26 144.525 253.26ZM145.405 255.04V266H143.585V255.04H145.405ZM147.427 260.5C147.427 259.367 147.653 258.38 148.107 257.54C148.56 256.687 149.187 256.027 149.987 255.56C150.8 255.093 151.727 254.86 152.767 254.86C154.113 254.86 155.22 255.187 156.087 255.84C156.967 256.493 157.547 257.4 157.827 258.56H155.867C155.68 257.893 155.313 257.367 154.767 256.98C154.233 256.593 153.567 256.4 152.767 256.4C151.727 256.4 150.887 256.76 150.247 257.48C149.607 258.187 149.287 259.193 149.287 260.5C149.287 261.82 149.607 262.84 150.247 263.56C150.887 264.28 151.727 264.64 152.767 264.64C153.567 264.64 154.233 264.453 154.767 264.08C155.3 263.707 155.667 263.173 155.867 262.48H157.827C157.533 263.6 156.947 264.5 156.067 265.18C155.187 265.847 154.087 266.18 152.767 266.18C151.727 266.18 150.8 265.947 149.987 265.48C149.187 265.013 148.56 264.353 148.107 263.5C147.653 262.647 147.427 261.647 147.427 260.5Z" fill="#9296A0"/>
<rect x="14" y="13" width="196" height="47" fill="#A92356"/>
<rect x="14" y="60" width="196" height="46" fill="#CC446E"/>
<rect x="14" y="106" width="196" height="47" fill="#EC86B4"/>
<rect x="14" y="153" width="196" height="47" fill="#F5BFDF"/>
</svg>
