<svg width="236" height="298" viewBox="0 0 236 298" fill="none" xmlns="http://www.w3.org/2000/svg">
<rect x="3" y="3" width="230" height="292" rx="14" fill="white" stroke="#81DE9A" stroke-width="6"/>
<path d="M49.3836 242H47.5636L40.2436 230.9V242H38.4236V228.04H40.2436L47.5636 239.12V228.04H49.3836V242ZM51.4061 236.48C51.4061 235.36 51.6328 234.38 52.0861 233.54C52.5394 232.687 53.1594 232.027 53.9461 231.56C54.7461 231.093 55.6328 230.86 56.6061 230.86C57.5661 230.86 58.3994 231.067 59.1061 231.48C59.8128 231.893 60.3394 232.413 60.6861 233.04V231.04H62.5261V242H60.6861V239.96C60.3261 240.6 59.7861 241.133 59.0661 241.56C58.3594 241.973 57.5328 242.18 56.5861 242.18C55.6128 242.18 54.7328 241.94 53.9461 241.46C53.1594 240.98 52.5394 240.307 52.0861 239.44C51.6328 238.573 51.4061 237.587 51.4061 236.48ZM60.6861 236.5C60.6861 235.673 60.5194 234.953 60.1861 234.34C59.8528 233.727 59.3994 233.26 58.8261 232.94C58.2661 232.607 57.6461 232.44 56.9661 232.44C56.2861 232.44 55.6661 232.6 55.1061 232.92C54.5461 233.24 54.0994 233.707 53.7661 234.32C53.4328 234.933 53.2661 235.653 53.2661 236.48C53.2661 237.32 53.4328 238.053 53.7661 238.68C54.0994 239.293 54.5461 239.767 55.1061 240.1C55.6661 240.42 56.2861 240.58 56.9661 240.58C57.6461 240.58 58.2661 240.42 58.8261 240.1C59.3994 239.767 59.8528 239.293 60.1861 238.68C60.5194 238.053 60.6861 237.327 60.6861 236.5ZM67.4217 232.54V239C67.4217 239.533 67.535 239.913 67.7617 240.14C67.9884 240.353 68.3817 240.46 68.9417 240.46H70.2817V242H68.6417C67.6284 242 66.8684 241.767 66.3617 241.3C65.855 240.833 65.6017 240.067 65.6017 239V232.54H64.1817V231.04H65.6017V228.28H67.4217V231.04H70.2817V232.54H67.4217ZM81.8069 231.04V242H79.9869V240.38C79.6402 240.94 79.1535 241.38 78.5269 241.7C77.9135 242.007 77.2335 242.16 76.4869 242.16C75.6335 242.16 74.8669 241.987 74.1869 241.64C73.5069 241.28 72.9669 240.747 72.5669 240.04C72.1802 239.333 71.9869 238.473 71.9869 237.46V231.04H73.7869V237.22C73.7869 238.3 74.0602 239.133 74.6069 239.72C75.1535 240.293 75.9002 240.58 76.8469 240.58C77.8202 240.58 78.5869 240.28 79.1469 239.68C79.7069 239.08 79.9869 238.207 79.9869 237.06V231.04H81.8069ZM86.2998 232.82C86.6198 232.193 87.0732 231.707 87.6598 231.36C88.2598 231.013 88.9865 230.84 89.8398 230.84V232.72H89.3598C87.3198 232.72 86.2998 233.827 86.2998 236.04V242H84.4798V231.04H86.2998V232.82ZM90.8608 236.48C90.8608 235.36 91.0874 234.38 91.5408 233.54C91.9941 232.687 92.6141 232.027 93.4008 231.56C94.2008 231.093 95.0874 230.86 96.0608 230.86C97.0208 230.86 97.8541 231.067 98.5608 231.48C99.2674 231.893 99.7941 232.413 100.141 233.04V231.04H101.981V242H100.141V239.96C99.7808 240.6 99.2408 241.133 98.5208 241.56C97.8141 241.973 96.9874 242.18 96.0408 242.18C95.0674 242.18 94.1874 241.94 93.4008 241.46C92.6141 240.98 91.9941 240.307 91.5408 239.44C91.0874 238.573 90.8608 237.587 90.8608 236.48ZM100.141 236.5C100.141 235.673 99.9741 234.953 99.6408 234.34C99.3074 233.727 98.8541 233.26 98.2808 232.94C97.7208 232.607 97.1008 232.44 96.4208 232.44C95.7408 232.44 95.1208 232.6 94.5608 232.92C94.0008 233.24 93.5541 233.707 93.2208 234.32C92.8874 234.933 92.7208 235.653 92.7208 236.48C92.7208 237.32 92.8874 238.053 93.2208 238.68C93.5541 239.293 94.0008 239.767 94.5608 240.1C95.1208 240.42 95.7408 240.58 96.4208 240.58C97.1008 240.58 97.7208 240.42 98.2808 240.1C98.8541 239.767 99.3074 239.293 99.6408 238.68C99.9741 238.053 100.141 237.327 100.141 236.5ZM106.476 227.2V242H104.656V227.2H106.476ZM111.058 239.48L108.818 244.86H107.598L109.058 239.48H111.058ZM128.415 228.06V242H126.595V235.68H119.495V242H117.675V228.06H119.495V234.18H126.595V228.06H128.415ZM130.443 236.48C130.443 235.36 130.669 234.38 131.123 233.54C131.576 232.687 132.196 232.027 132.983 231.56C133.783 231.093 134.669 230.86 135.643 230.86C136.603 230.86 137.436 231.067 138.143 231.48C138.849 231.893 139.376 232.413 139.723 233.04V231.04H141.563V242H139.723V239.96C139.363 240.6 138.823 241.133 138.103 241.56C137.396 241.973 136.569 242.18 135.623 242.18C134.649 242.18 133.769 241.94 132.983 241.46C132.196 240.98 131.576 240.307 131.123 239.44C130.669 238.573 130.443 237.587 130.443 236.48ZM139.723 236.5C139.723 235.673 139.556 234.953 139.223 234.34C138.889 233.727 138.436 233.26 137.863 232.94C137.303 232.607 136.683 232.44 136.003 232.44C135.323 232.44 134.703 232.6 134.143 232.92C133.583 233.24 133.136 233.707 132.803 234.32C132.469 234.933 132.303 235.653 132.303 236.48C132.303 237.32 132.469 238.053 132.803 238.68C133.136 239.293 133.583 239.767 134.143 240.1C134.703 240.42 135.323 240.58 136.003 240.58C136.683 240.58 137.303 240.42 137.863 240.1C138.436 239.767 138.889 239.293 139.223 238.68C139.556 238.053 139.723 237.327 139.723 236.5ZM146.058 233.06C146.418 232.433 146.952 231.913 147.658 231.5C148.378 231.073 149.212 230.86 150.158 230.86C151.132 230.86 152.012 231.093 152.798 231.56C153.598 232.027 154.225 232.687 154.678 233.54C155.132 234.38 155.358 235.36 155.358 236.48C155.358 237.587 155.132 238.573 154.678 239.44C154.225 240.307 153.598 240.98 152.798 241.46C152.012 241.94 151.132 242.18 150.158 242.18C149.225 242.18 148.398 241.973 147.678 241.56C146.972 241.133 146.432 240.607 146.058 239.98V247.2H144.238V231.04H146.058V233.06ZM153.498 236.48C153.498 235.653 153.332 234.933 152.998 234.32C152.665 233.707 152.212 233.24 151.638 232.92C151.078 232.6 150.458 232.44 149.778 232.44C149.112 232.44 148.492 232.607 147.918 232.94C147.358 233.26 146.905 233.733 146.558 234.36C146.225 234.973 146.058 235.687 146.058 236.5C146.058 237.327 146.225 238.053 146.558 238.68C146.905 239.293 147.358 239.767 147.918 240.1C148.492 240.42 149.112 240.58 149.778 240.58C150.458 240.58 151.078 240.42 151.638 240.1C152.212 239.767 152.665 239.293 152.998 238.68C153.332 238.053 153.498 237.32 153.498 236.48ZM159.174 233.06C159.534 232.433 160.067 231.913 160.774 231.5C161.494 231.073 162.327 230.86 163.274 230.86C164.247 230.86 165.127 231.093 165.914 231.56C166.714 232.027 167.341 232.687 167.794 233.54C168.247 234.38 168.474 235.36 168.474 236.48C168.474 237.587 168.247 238.573 167.794 239.44C167.341 240.307 166.714 240.98 165.914 241.46C165.127 241.94 164.247 242.18 163.274 242.18C162.341 242.18 161.514 241.973 160.794 241.56C160.087 241.133 159.547 240.607 159.174 239.98V247.2H157.354V231.04H159.174V233.06ZM166.614 236.48C166.614 235.653 166.447 234.933 166.114 234.32C165.781 233.707 165.327 233.24 164.754 232.92C164.194 232.6 163.574 232.44 162.894 232.44C162.227 232.44 161.607 232.607 161.034 232.94C160.474 233.26 160.021 233.733 159.674 234.36C159.341 234.973 159.174 235.687 159.174 236.5C159.174 237.327 159.341 238.053 159.674 238.68C160.021 239.293 160.474 239.767 161.034 240.1C161.607 240.42 162.227 240.58 162.894 240.58C163.574 240.58 164.194 240.42 164.754 240.1C165.327 239.767 165.781 239.293 166.114 238.68C166.447 238.053 166.614 237.32 166.614 236.48ZM179.91 231.04L173.31 247.16H171.43L173.59 241.88L169.17 231.04H171.19L174.63 239.92L178.03 231.04H179.91ZM196.971 242L195.151 240.16C194.471 240.867 193.745 241.393 192.971 241.74C192.198 242.073 191.325 242.24 190.351 242.24C189.391 242.24 188.538 242.067 187.791 241.72C187.058 241.373 186.485 240.88 186.071 240.24C185.671 239.6 185.471 238.853 185.471 238C185.471 237.027 185.745 236.173 186.291 235.44C186.851 234.693 187.671 234.107 188.751 233.68C188.325 233.173 188.018 232.707 187.831 232.28C187.645 231.853 187.551 231.387 187.551 230.88C187.551 230.293 187.698 229.767 187.991 229.3C188.298 228.82 188.731 228.447 189.291 228.18C189.851 227.913 190.498 227.78 191.231 227.78C191.951 227.78 192.578 227.92 193.111 228.2C193.645 228.48 194.045 228.873 194.311 229.38C194.578 229.873 194.698 230.427 194.671 231.04H192.851C192.865 230.493 192.711 230.067 192.391 229.76C192.071 229.44 191.658 229.28 191.151 229.28C190.618 229.28 190.185 229.433 189.851 229.74C189.531 230.033 189.371 230.413 189.371 230.88C189.371 231.28 189.478 231.667 189.691 232.04C189.918 232.413 190.291 232.873 190.811 233.42L194.971 237.6L195.331 237.04L196.691 234.76H198.651L197.011 237.6C196.785 238 196.518 238.42 196.211 238.86L199.351 242H196.971ZM190.351 240.68C191.071 240.68 191.718 240.54 192.291 240.26C192.878 239.98 193.431 239.547 193.951 238.96L189.851 234.84C188.145 235.493 187.291 236.527 187.291 237.94C187.291 238.727 187.571 239.38 188.131 239.9C188.705 240.42 189.445 240.68 190.351 240.68ZM92.2139 265.02C92.2139 263.66 92.5206 262.44 93.1339 261.36C93.7472 260.267 94.5806 259.413 95.6339 258.8C96.7006 258.187 97.8806 257.88 99.1739 257.88C100.694 257.88 102.021 258.247 103.154 258.98C104.287 259.713 105.114 260.753 105.634 262.1H103.454C103.067 261.26 102.507 260.613 101.774 260.16C101.054 259.707 100.187 259.48 99.1739 259.48C98.2006 259.48 97.3272 259.707 96.5539 260.16C95.7806 260.613 95.1739 261.26 94.7339 262.1C94.2939 262.927 94.0739 263.9 94.0739 265.02C94.0739 266.127 94.2939 267.1 94.7339 267.94C95.1739 268.767 95.7806 269.407 96.5539 269.86C97.3272 270.313 98.2006 270.54 99.1739 270.54C100.187 270.54 101.054 270.32 101.774 269.88C102.507 269.427 103.067 268.78 103.454 267.94H105.634C105.114 269.273 104.287 270.307 103.154 271.04C102.021 271.76 100.694 272.12 99.1739 272.12C97.8806 272.12 96.7006 271.82 95.6339 271.22C94.5806 270.607 93.7472 269.76 93.1339 268.68C92.5206 267.6 92.2139 266.38 92.2139 265.02ZM107.263 266.48C107.263 265.36 107.49 264.38 107.943 263.54C108.396 262.687 109.016 262.027 109.803 261.56C110.603 261.093 111.49 260.86 112.463 260.86C113.423 260.86 114.256 261.067 114.963 261.48C115.67 261.893 116.196 262.413 116.543 263.04V261.04H118.383V272H116.543V269.96C116.183 270.6 115.643 271.133 114.923 271.56C114.216 271.973 113.39 272.18 112.443 272.18C111.47 272.18 110.59 271.94 109.803 271.46C109.016 270.98 108.396 270.307 107.943 269.44C107.49 268.573 107.263 267.587 107.263 266.48ZM116.543 266.5C116.543 265.673 116.376 264.953 116.043 264.34C115.71 263.727 115.256 263.26 114.683 262.94C114.123 262.607 113.503 262.44 112.823 262.44C112.143 262.44 111.523 262.6 110.963 262.92C110.403 263.24 109.956 263.707 109.623 264.32C109.29 264.933 109.123 265.653 109.123 266.48C109.123 267.32 109.29 268.053 109.623 268.68C109.956 269.293 110.403 269.767 110.963 270.1C111.523 270.42 112.143 270.58 112.823 270.58C113.503 270.58 114.123 270.42 114.683 270.1C115.256 269.767 115.71 269.293 116.043 268.68C116.376 268.053 116.543 267.327 116.543 266.5ZM122.879 257.2V272H121.059V257.2H122.879ZM138.761 260.84C139.614 260.84 140.374 261.02 141.041 261.38C141.707 261.727 142.234 262.253 142.621 262.96C143.007 263.667 143.201 264.527 143.201 265.54V272H141.401V265.8C141.401 264.707 141.127 263.873 140.581 263.3C140.047 262.713 139.321 262.42 138.401 262.42C137.454 262.42 136.701 262.727 136.141 263.34C135.581 263.94 135.301 264.813 135.301 265.96V272H133.501V265.8C133.501 264.707 133.227 263.873 132.681 263.3C132.147 262.713 131.421 262.42 130.501 262.42C129.554 262.42 128.801 262.727 128.241 263.34C127.681 263.94 127.401 264.813 127.401 265.96V272H125.581V261.04H127.401V262.62C127.761 262.047 128.241 261.607 128.841 261.3C129.454 260.993 130.127 260.84 130.861 260.84C131.781 260.84 132.594 261.047 133.301 261.46C134.007 261.873 134.534 262.48 134.881 263.28C135.187 262.507 135.694 261.907 136.401 261.48C137.107 261.053 137.894 260.84 138.761 260.84Z" fill="#9296A0"/>
<rect x="20" y="19" width="196" height="47" fill="#52A98B"/>
<rect x="20" y="66" width="196" height="46" fill="#80CFA5"/>
<rect x="20" y="112" width="196" height="47" fill="#B0F1C6"/>
<rect x="20" y="159" width="196" height="47" fill="#DEFAE9"/>
</svg>
