<svg width="224" height="286" viewBox="0 0 224 286" fill="none" xmlns="http://www.w3.org/2000/svg">
<rect x="0.5" y="0.5" width="223" height="285" rx="10.5" fill="white" stroke="#ECECEC"/>
<path d="M43.7823 236.14C42.8623 236.14 42.0356 235.98 41.3023 235.66C40.5823 235.327 40.0156 234.873 39.6023 234.3C39.1889 233.713 38.9756 233.04 38.9623 232.28H40.9023C40.9689 232.933 41.2356 233.487 41.7023 233.94C42.1823 234.38 42.8756 234.6 43.7823 234.6C44.6489 234.6 45.3289 234.387 45.8223 233.96C46.3289 233.52 46.5823 232.96 46.5823 232.28C46.5823 231.747 46.4356 231.313 46.1423 230.98C45.8489 230.647 45.4823 230.393 45.0423 230.22C44.6023 230.047 44.0089 229.86 43.2623 229.66C42.3423 229.42 41.6023 229.18 41.0423 228.94C40.4956 228.7 40.0223 228.327 39.6223 227.82C39.2356 227.3 39.0423 226.607 39.0423 225.74C39.0423 224.98 39.2356 224.307 39.6223 223.72C40.0089 223.133 40.5489 222.68 41.2423 222.36C41.9489 222.04 42.7556 221.88 43.6623 221.88C44.9689 221.88 46.0356 222.207 46.8623 222.86C47.7023 223.513 48.1756 224.38 48.2823 225.46H46.2823C46.2156 224.927 45.9356 224.46 45.4423 224.06C44.9489 223.647 44.2956 223.44 43.4823 223.44C42.7223 223.44 42.1023 223.64 41.6223 224.04C41.1423 224.427 40.9023 224.973 40.9023 225.68C40.9023 226.187 41.0423 226.6 41.3223 226.92C41.6156 227.24 41.9689 227.487 42.3823 227.66C42.8089 227.82 43.4023 228.007 44.1623 228.22C45.0823 228.473 45.8223 228.727 46.3823 228.98C46.9423 229.22 47.4223 229.6 47.8223 230.12C48.2223 230.627 48.4223 231.32 48.4223 232.2C48.4223 232.88 48.2423 233.52 47.8823 234.12C47.5223 234.72 46.9889 235.207 46.2823 235.58C45.5756 235.953 44.7423 236.14 43.7823 236.14ZM55.4805 236.18C54.4539 236.18 53.5205 235.947 52.6805 235.48C51.8539 235.013 51.2005 234.353 50.7205 233.5C50.2539 232.633 50.0205 231.633 50.0205 230.5C50.0205 229.38 50.2605 228.393 50.7405 227.54C51.2339 226.673 51.9005 226.013 52.7405 225.56C53.5805 225.093 54.5205 224.86 55.5605 224.86C56.6005 224.86 57.5405 225.093 58.3805 225.56C59.2205 226.013 59.8805 226.667 60.3605 227.52C60.8539 228.373 61.1005 229.367 61.1005 230.5C61.1005 231.633 60.8472 232.633 60.3405 233.5C59.8472 234.353 59.1739 235.013 58.3205 235.48C57.4672 235.947 56.5205 236.18 55.4805 236.18ZM55.4805 234.58C56.1339 234.58 56.7472 234.427 57.3205 234.12C57.8939 233.813 58.3539 233.353 58.7005 232.74C59.0605 232.127 59.2405 231.38 59.2405 230.5C59.2405 229.62 59.0672 228.873 58.7205 228.26C58.3739 227.647 57.9205 227.193 57.3605 226.9C56.8005 226.593 56.1939 226.44 55.5405 226.44C54.8739 226.44 54.2605 226.593 53.7005 226.9C53.1539 227.193 52.7139 227.647 52.3805 228.26C52.0472 228.873 51.8805 229.62 51.8805 230.5C51.8805 231.393 52.0405 232.147 52.3605 232.76C52.6939 233.373 53.1339 233.833 53.6805 234.14C54.2272 234.433 54.8272 234.58 55.4805 234.58ZM76.2735 224.84C77.1269 224.84 77.8869 225.02 78.5535 225.38C79.2202 225.727 79.7469 226.253 80.1335 226.96C80.5202 227.667 80.7135 228.527 80.7135 229.54V236H78.9135V229.8C78.9135 228.707 78.6402 227.873 78.0935 227.3C77.5602 226.713 76.8335 226.42 75.9135 226.42C74.9669 226.42 74.2135 226.727 73.6535 227.34C73.0935 227.94 72.8135 228.813 72.8135 229.96V236H71.0135V229.8C71.0135 228.707 70.7402 227.873 70.1935 227.3C69.6602 226.713 68.9335 226.42 68.0135 226.42C67.0668 226.42 66.3135 226.727 65.7535 227.34C65.1935 227.94 64.9135 228.813 64.9135 229.96V236H63.0935V225.04H64.9135V226.62C65.2735 226.047 65.7535 225.607 66.3535 225.3C66.9668 224.993 67.6402 224.84 68.3735 224.84C69.2935 224.84 70.1069 225.047 70.8135 225.46C71.5202 225.873 72.0469 226.48 72.3935 227.28C72.7002 226.507 73.2068 225.907 73.9135 225.48C74.6202 225.053 75.4069 224.84 76.2735 224.84ZM85.119 227.08C85.4923 226.427 86.039 225.893 86.759 225.48C87.479 225.067 88.299 224.86 89.219 224.86C90.2057 224.86 91.0923 225.093 91.879 225.56C92.6657 226.027 93.2857 226.687 93.739 227.54C94.1923 228.38 94.419 229.36 94.419 230.48C94.419 231.587 94.1923 232.573 93.739 233.44C93.2857 234.307 92.659 234.98 91.859 235.46C91.0723 235.94 90.1923 236.18 89.219 236.18C88.2723 236.18 87.439 235.973 86.719 235.56C86.0123 235.147 85.479 234.62 85.119 233.98V236H83.299V221.2H85.119V227.08ZM92.559 230.48C92.559 229.653 92.3923 228.933 92.059 228.32C91.7257 227.707 91.2723 227.24 90.699 226.92C90.139 226.6 89.519 226.44 88.839 226.44C88.1723 226.44 87.5523 226.607 86.979 226.94C86.419 227.26 85.9657 227.733 85.619 228.36C85.2857 228.973 85.119 229.687 85.119 230.5C85.119 231.327 85.2857 232.053 85.619 232.68C85.9657 233.293 86.419 233.767 86.979 234.1C87.5523 234.42 88.1723 234.58 88.839 234.58C89.519 234.58 90.139 234.42 90.699 234.1C91.2723 233.767 91.7257 233.293 92.059 232.68C92.3923 232.053 92.559 231.32 92.559 230.48ZM106.415 230.1C106.415 230.447 106.395 230.813 106.355 231.2H97.5946C97.6613 232.28 98.0279 233.127 98.6946 233.74C99.3746 234.34 100.195 234.64 101.155 234.64C101.941 234.64 102.595 234.46 103.115 234.1C103.648 233.727 104.021 233.233 104.235 232.62H106.195C105.901 233.673 105.315 234.533 104.435 235.2C103.555 235.853 102.461 236.18 101.155 236.18C100.115 236.18 99.1813 235.947 98.3546 235.48C97.5413 235.013 96.9013 234.353 96.4346 233.5C95.9679 232.633 95.7346 231.633 95.7346 230.5C95.7346 229.367 95.9613 228.373 96.4146 227.52C96.8679 226.667 97.5013 226.013 98.3146 225.56C99.1413 225.093 100.088 224.86 101.155 224.86C102.195 224.86 103.115 225.087 103.915 225.54C104.715 225.993 105.328 226.62 105.755 227.42C106.195 228.207 106.415 229.1 106.415 230.1ZM104.535 229.72C104.535 229.027 104.381 228.433 104.075 227.94C103.768 227.433 103.348 227.053 102.815 226.8C102.295 226.533 101.715 226.4 101.075 226.4C100.155 226.4 99.3679 226.693 98.7146 227.28C98.0746 227.867 97.7079 228.68 97.6146 229.72H104.535ZM110.237 226.82C110.557 226.193 111.01 225.707 111.597 225.36C112.197 225.013 112.924 224.84 113.777 224.84V226.72H113.297C111.257 226.72 110.237 227.827 110.237 230.04V236H108.417V225.04H110.237V226.82ZM117.358 233.48L115.118 238.86H113.898L115.358 233.48H117.358ZM125.795 223.54V228.2H130.875V229.7H125.795V234.5H131.475V236H123.975V222.04H131.475V223.54H125.795ZM133.149 230.48C133.149 229.36 133.375 228.38 133.829 227.54C134.282 226.687 134.902 226.027 135.689 225.56C136.489 225.093 137.375 224.86 138.349 224.86C139.309 224.86 140.142 225.067 140.849 225.48C141.555 225.893 142.082 226.413 142.429 227.04V225.04H144.269V236H142.429V233.96C142.069 234.6 141.529 235.133 140.809 235.56C140.102 235.973 139.275 236.18 138.329 236.18C137.355 236.18 136.475 235.94 135.689 235.46C134.902 234.98 134.282 234.307 133.829 233.44C133.375 232.573 133.149 231.587 133.149 230.48ZM142.429 230.5C142.429 229.673 142.262 228.953 141.929 228.34C141.595 227.727 141.142 227.26 140.569 226.94C140.009 226.607 139.389 226.44 138.709 226.44C138.029 226.44 137.409 226.6 136.849 226.92C136.289 227.24 135.842 227.707 135.509 228.32C135.175 228.933 135.009 229.653 135.009 230.48C135.009 231.32 135.175 232.053 135.509 232.68C135.842 233.293 136.289 233.767 136.849 234.1C137.409 234.42 138.029 234.58 138.709 234.58C139.389 234.58 140.009 234.42 140.569 234.1C141.142 233.767 141.595 233.293 141.929 232.68C142.262 232.053 142.429 231.327 142.429 230.5ZM148.764 226.82C149.084 226.193 149.538 225.707 150.124 225.36C150.724 225.013 151.451 224.84 152.304 224.84V226.72H151.824C149.784 226.72 148.764 227.827 148.764 230.04V236H146.944V225.04H148.764V226.82ZM156.225 226.54V233C156.225 233.533 156.339 233.913 156.565 234.14C156.792 234.353 157.185 234.46 157.745 234.46H159.085V236H157.445C156.432 236 155.672 235.767 155.165 235.3C154.659 234.833 154.405 234.067 154.405 233V226.54H152.985V225.04H154.405V222.28H156.225V225.04H159.085V226.54H156.225ZM166.33 224.84C167.157 224.84 167.904 225.02 168.57 225.38C169.237 225.727 169.757 226.253 170.13 226.96C170.517 227.667 170.71 228.527 170.71 229.54V236H168.91V229.8C168.91 228.707 168.637 227.873 168.09 227.3C167.544 226.713 166.797 226.42 165.85 226.42C164.89 226.42 164.124 226.72 163.55 227.32C162.99 227.92 162.71 228.793 162.71 229.94V236H160.89V221.2H162.71V226.6C163.07 226.04 163.564 225.607 164.19 225.3C164.83 224.993 165.544 224.84 166.33 224.84ZM182.723 225.04L176.123 241.16H174.243L176.403 235.88L171.983 225.04H174.003L177.443 233.92L180.843 225.04H182.723ZM186.033 233.48L183.793 238.86H182.573L184.033 233.48H186.033ZM47.3127 266.14C46.3927 266.14 45.5661 265.98 44.8327 265.66C44.1127 265.327 43.5461 264.873 43.1327 264.3C42.7194 263.713 42.5061 263.04 42.4927 262.28H44.4327C44.4994 262.933 44.7661 263.487 45.2327 263.94C45.7127 264.38 46.4061 264.6 47.3127 264.6C48.1794 264.6 48.8594 264.387 49.3527 263.96C49.8594 263.52 50.1127 262.96 50.1127 262.28C50.1127 261.747 49.9661 261.313 49.6727 260.98C49.3794 260.647 49.0127 260.393 48.5727 260.22C48.1327 260.047 47.5394 259.86 46.7927 259.66C45.8727 259.42 45.1327 259.18 44.5727 258.94C44.0261 258.7 43.5527 258.327 43.1527 257.82C42.7661 257.3 42.5727 256.607 42.5727 255.74C42.5727 254.98 42.7661 254.307 43.1527 253.72C43.5394 253.133 44.0794 252.68 44.7727 252.36C45.4794 252.04 46.2861 251.88 47.1927 251.88C48.4994 251.88 49.5661 252.207 50.3927 252.86C51.2327 253.513 51.7061 254.38 51.8127 255.46H49.8127C49.7461 254.927 49.4661 254.46 48.9727 254.06C48.4794 253.647 47.8261 253.44 47.0127 253.44C46.2527 253.44 45.6327 253.64 45.1527 254.04C44.6727 254.427 44.4327 254.973 44.4327 255.68C44.4327 256.187 44.5727 256.6 44.8527 256.92C45.1461 257.24 45.4994 257.487 45.9127 257.66C46.3394 257.82 46.9327 258.007 47.6927 258.22C48.6127 258.473 49.3527 258.727 49.9127 258.98C50.4727 259.22 50.9527 259.6 51.3527 260.12C51.7527 260.627 51.9527 261.32 51.9527 262.2C51.9527 262.88 51.7727 263.52 51.4127 264.12C51.0527 264.72 50.5194 265.207 49.8127 265.58C49.1061 265.953 48.2727 266.14 47.3127 266.14ZM59.011 266.18C57.9844 266.18 57.051 265.947 56.211 265.48C55.3844 265.013 54.731 264.353 54.251 263.5C53.7844 262.633 53.551 261.633 53.551 260.5C53.551 259.38 53.791 258.393 54.271 257.54C54.7644 256.673 55.431 256.013 56.271 255.56C57.111 255.093 58.051 254.86 59.091 254.86C60.131 254.86 61.071 255.093 61.911 255.56C62.751 256.013 63.411 256.667 63.891 257.52C64.3844 258.373 64.631 259.367 64.631 260.5C64.631 261.633 64.3777 262.633 63.871 263.5C63.3777 264.353 62.7044 265.013 61.851 265.48C60.9977 265.947 60.051 266.18 59.011 266.18ZM59.011 264.58C59.6644 264.58 60.2777 264.427 60.851 264.12C61.4244 263.813 61.8844 263.353 62.231 262.74C62.591 262.127 62.771 261.38 62.771 260.5C62.771 259.62 62.5977 258.873 62.251 258.26C61.9044 257.647 61.451 257.193 60.891 256.9C60.331 256.593 59.7244 256.44 59.071 256.44C58.4044 256.44 57.791 256.593 57.231 256.9C56.6844 257.193 56.2444 257.647 55.911 258.26C55.5777 258.873 55.411 259.62 55.411 260.5C55.411 261.393 55.571 262.147 55.891 262.76C56.2244 263.373 56.6644 263.833 57.211 264.14C57.7577 264.433 58.3577 264.58 59.011 264.58ZM68.444 251.2V266H66.624V251.2H68.444ZM72.0859 253.26C71.7392 253.26 71.4459 253.14 71.2059 252.9C70.9659 252.66 70.8459 252.367 70.8459 252.02C70.8459 251.673 70.9659 251.38 71.2059 251.14C71.4459 250.9 71.7392 250.78 72.0859 250.78C72.4192 250.78 72.6992 250.9 72.9259 251.14C73.1659 251.38 73.2859 251.673 73.2859 252.02C73.2859 252.367 73.1659 252.66 72.9259 252.9C72.6992 253.14 72.4192 253.26 72.0859 253.26ZM72.9659 255.04V266H71.1459V255.04H72.9659ZM74.9877 260.48C74.9877 259.36 75.2144 258.38 75.6677 257.54C76.1211 256.687 76.7411 256.027 77.5277 255.56C78.3277 255.093 79.2211 254.86 80.2077 254.86C81.0611 254.86 81.8544 255.06 82.5877 255.46C83.3211 255.847 83.8811 256.36 84.2677 257V251.2H86.1077V266H84.2677V263.94C83.9077 264.593 83.3744 265.133 82.6677 265.56C81.9611 265.973 81.1344 266.18 80.1877 266.18C79.2144 266.18 78.3277 265.94 77.5277 265.46C76.7411 264.98 76.1211 264.307 75.6677 263.44C75.2144 262.573 74.9877 261.587 74.9877 260.48ZM84.2677 260.5C84.2677 259.673 84.1011 258.953 83.7677 258.34C83.4344 257.727 82.9811 257.26 82.4077 256.94C81.8477 256.607 81.2277 256.44 80.5477 256.44C79.8677 256.44 79.2477 256.6 78.6877 256.92C78.1277 257.24 77.6811 257.707 77.3477 258.32C77.0144 258.933 76.8477 259.653 76.8477 260.48C76.8477 261.32 77.0144 262.053 77.3477 262.68C77.6811 263.293 78.1277 263.767 78.6877 264.1C79.2477 264.42 79.8677 264.58 80.5477 264.58C81.2277 264.58 81.8477 264.42 82.4077 264.1C82.9811 263.767 83.4344 263.293 83.7677 262.68C84.1011 262.053 84.2677 261.327 84.2677 260.5ZM104.415 266L102.595 264.16C101.915 264.867 101.189 265.393 100.415 265.74C99.6421 266.073 98.7687 266.24 97.7954 266.24C96.8354 266.24 95.9821 266.067 95.2354 265.72C94.5021 265.373 93.9287 264.88 93.5154 264.24C93.1154 263.6 92.9154 262.853 92.9154 262C92.9154 261.027 93.1887 260.173 93.7354 259.44C94.2954 258.693 95.1154 258.107 96.1954 257.68C95.7687 257.173 95.4621 256.707 95.2754 256.28C95.0887 255.853 94.9954 255.387 94.9954 254.88C94.9954 254.293 95.1421 253.767 95.4354 253.3C95.7421 252.82 96.1754 252.447 96.7354 252.18C97.2954 251.913 97.9421 251.78 98.6754 251.78C99.3954 251.78 100.022 251.92 100.555 252.2C101.089 252.48 101.489 252.873 101.755 253.38C102.022 253.873 102.142 254.427 102.115 255.04H100.295C100.309 254.493 100.155 254.067 99.8354 253.76C99.5154 253.44 99.1021 253.28 98.5954 253.28C98.0621 253.28 97.6287 253.433 97.2954 253.74C96.9754 254.033 96.8154 254.413 96.8154 254.88C96.8154 255.28 96.9221 255.667 97.1354 256.04C97.3621 256.413 97.7354 256.873 98.2554 257.42L102.415 261.6L102.775 261.04L104.135 258.76H106.095L104.455 261.6C104.229 262 103.962 262.42 103.655 262.86L106.795 266H104.415ZM97.7954 264.68C98.5154 264.68 99.1621 264.54 99.7354 264.26C100.322 263.98 100.875 263.547 101.395 262.96L97.2954 258.84C95.5887 259.493 94.7354 260.527 94.7354 261.94C94.7354 262.727 95.0154 263.38 95.5754 263.9C96.1487 264.42 96.8887 264.68 97.7954 264.68ZM123.993 266H122.173L114.853 254.9V266H113.033V252.04H114.853L122.173 263.12V252.04H123.993V266ZM126.015 260.48C126.015 259.36 126.242 258.38 126.695 257.54C127.148 256.687 127.768 256.027 128.555 255.56C129.355 255.093 130.242 254.86 131.215 254.86C132.175 254.86 133.008 255.067 133.715 255.48C134.422 255.893 134.948 256.413 135.295 257.04V255.04H137.135V266H135.295V263.96C134.935 264.6 134.395 265.133 133.675 265.56C132.968 265.973 132.142 266.18 131.195 266.18C130.222 266.18 129.342 265.94 128.555 265.46C127.768 264.98 127.148 264.307 126.695 263.44C126.242 262.573 126.015 261.587 126.015 260.48ZM135.295 260.5C135.295 259.673 135.128 258.953 134.795 258.34C134.462 257.727 134.008 257.26 133.435 256.94C132.875 256.607 132.255 256.44 131.575 256.44C130.895 256.44 130.275 256.6 129.715 256.92C129.155 257.24 128.708 257.707 128.375 258.32C128.042 258.933 127.875 259.653 127.875 260.48C127.875 261.32 128.042 262.053 128.375 262.68C128.708 263.293 129.155 263.767 129.715 264.1C130.275 264.42 130.895 264.58 131.575 264.58C132.255 264.58 132.875 264.42 133.435 264.1C134.008 263.767 134.462 263.293 134.795 262.68C135.128 262.053 135.295 261.327 135.295 260.5ZM142.031 256.54V263C142.031 263.533 142.144 263.913 142.371 264.14C142.597 264.353 142.991 264.46 143.551 264.46H144.891V266H143.251C142.237 266 141.477 265.767 140.971 265.3C140.464 264.833 140.211 264.067 140.211 263V256.54H138.791V255.04H140.211V252.28H142.031V255.04H144.891V256.54H142.031ZM156.416 255.04V266H154.596V264.38C154.249 264.94 153.763 265.38 153.136 265.7C152.523 266.007 151.843 266.16 151.096 266.16C150.243 266.16 149.476 265.987 148.796 265.64C148.116 265.28 147.576 264.747 147.176 264.04C146.789 263.333 146.596 262.473 146.596 261.46V255.04H148.396V261.22C148.396 262.3 148.669 263.133 149.216 263.72C149.763 264.293 150.509 264.58 151.456 264.58C152.429 264.58 153.196 264.28 153.756 263.68C154.316 263.08 154.596 262.207 154.596 261.06V255.04H156.416ZM160.909 256.82C161.229 256.193 161.682 255.707 162.269 255.36C162.869 255.013 163.595 254.84 164.449 254.84V256.72H163.969C161.929 256.72 160.909 257.827 160.909 260.04V266H159.089V255.04H160.909V256.82ZM165.47 260.48C165.47 259.36 165.696 258.38 166.15 257.54C166.603 256.687 167.223 256.027 168.01 255.56C168.81 255.093 169.696 254.86 170.67 254.86C171.63 254.86 172.463 255.067 173.17 255.48C173.876 255.893 174.403 256.413 174.75 257.04V255.04H176.59V266H174.75V263.96C174.39 264.6 173.85 265.133 173.13 265.56C172.423 265.973 171.596 266.18 170.65 266.18C169.676 266.18 168.796 265.94 168.01 265.46C167.223 264.98 166.603 264.307 166.15 263.44C165.696 262.573 165.47 261.587 165.47 260.48ZM174.75 260.5C174.75 259.673 174.583 258.953 174.25 258.34C173.916 257.727 173.463 257.26 172.89 256.94C172.33 256.607 171.71 256.44 171.03 256.44C170.35 256.44 169.73 256.6 169.17 256.92C168.61 257.24 168.163 257.707 167.83 258.32C167.496 258.933 167.33 259.653 167.33 260.48C167.33 261.32 167.496 262.053 167.83 262.68C168.163 263.293 168.61 263.767 169.17 264.1C169.73 264.42 170.35 264.58 171.03 264.58C171.71 264.58 172.33 264.42 172.89 264.1C173.463 263.767 173.916 263.293 174.25 262.68C174.583 262.053 174.75 261.327 174.75 260.5ZM181.085 251.2V266H179.265V251.2H181.085Z" fill="#9296A0"/>
<rect x="14" y="13" width="196" height="47" fill="#533A37"/>
<rect x="14" y="60" width="196" height="46" fill="#8C7057"/>
<rect x="14" y="106" width="196" height="47" fill="#D7CBBC"/>
<rect x="14" y="153" width="196" height="47" fill="#F3E2D0"/>
</svg>
